<svg width="311" height="326" viewBox="0 0 311 326" fill="none" xmlns="http://www.w3.org/2000/svg">
<path d="M98.4119 161.191C94.3573 164.104 78.3618 173.925 58.1308 184.49C41.4513 193.189 20.9299 185.312 14.4443 167.677L10.742 157.61C4.79176 141.431 13.1354 123.489 29.3534 117.606C111.879 87.6673 238.068 43.9396 251.464 47.5885C262.657 50.6413 283.364 50.944 299.188 50.5015C317.995 49.9814 336.664 54.2975 353.148 63.3469C353.643 63.6173 354.13 63.8903 354.6 64.1615C364.803 69.9794 373.217 78.4944 379.094 88.6577C426.147 170.065 372.735 214.867 337.806 227.796C337.183 228.025 336.567 228.276 335.957 228.541C316.315 236.924 267.799 238.816 223.197 181.526C177.896 123.318 121.127 143.711 98.4119 161.191Z" fill="url(#paint0_linear)"/>
<defs>
<linearGradient id="paint0_linear" x1="376.72" y1="191.689" x2="-109.38" y2="43.0487" gradientUnits="userSpaceOnUse">
<stop stop-color="#E9E9E9"/>
<stop offset="1" stop-color="#FDFDFD" stop-opacity="0"/>
</linearGradient>
</defs>
</svg>
