<svg width="125" height="20" viewBox="0 0 125 20" fill="none" xmlns="http://www.w3.org/2000/svg">
<path d="M24.7699 10C25.9003 11.3306 26.405 12.7027 26.405 14.1372C26.405 17.3597 23.8614 20 20.7324 20H0V0H20.7324C23.8614 0 26.405 2.61954 26.405 5.842C26.405 7.25572 25.8802 8.64865 24.7699 10ZM20.7324 8.23285C22.0244 8.23285 23.0539 7.17256 23.0539 5.842C23.0539 4.55302 22.0042 3.49272 20.7324 3.49272H3.39147V8.23285H20.7324ZM20.7324 16.4865C22.0244 16.4865 23.0539 15.4262 23.0539 14.1372C23.0539 12.8274 22.0042 11.7464 20.7324 11.7464H3.39147V16.4865H20.7324Z" fill="#FF7300"/>
<path d="M50.771 16.5489C52.8705 16.5489 54.1826 15.9875 54.1826 13.4304V6.36175C54.1826 3.80458 52.8705 3.45114 50.771 3.45114H38.1337C36.0342 3.45114 34.722 3.80458 34.722 6.36175V13.4304C34.722 15.9875 36.0342 16.5489 38.1337 16.5489H50.771ZM38.2952 20C33.0869 20 31.3306 17.4012 31.3306 12.5156V7.56757C31.3306 2.68191 33.0667 0 38.2952 0H50.6095C55.8178 0 57.5741 2.68191 57.5741 7.56757V12.5156C57.5741 17.4012 55.838 20 50.6095 20H38.2952Z" fill="#FF7300"/>
<path d="M72.3717 20H68.1526L60.8246 0H64.8621L70.3126 14.9064L75.844 0H79.8612L85.332 14.9688L90.8431 0H94.8806L87.5526 20H83.3335L77.8627 5.25988L72.3717 20Z" fill="#FF7300"/>
<path d="M125 5.842V20H121.649V15.842H101.784V20H98.3929V5.842C98.3929 2.39085 100.735 0 104.066 0H119.327C122.618 0 125 2.45322 125 5.842ZM101.764 12.3909H121.629V5.842C121.629 4.36591 120.74 3.49272 119.307 3.49272H104.045C102.572 3.49272 101.764 4.34512 101.764 5.842V12.3909Z" fill="#FF7300"/>
</svg>
