<svg width="125" height="7" viewBox="0 0 125 7" fill="none" xmlns="http://www.w3.org/2000/svg">
<path d="M0 0.0806274H1.33237L5.02665 5.36203L8.72093 0.0806274H10.0533V6.3901H9.20543V0.846634H9.18524L5.34965 6.3901H4.74403L0.908431 0.846634H0.888244V6.3901H0.0403756V0.0806274H0Z" fill="black"/>
<path d="M23.4172 0.0806274H29.6147V0.786159H24.265V2.80196H29.3926V3.5075H24.265V5.70472H29.6349V6.41025H23.397V0.0806274H23.4172Z" fill="black"/>
<path d="M42.6763 0.0806274H47.7837C49.9034 0.0806274 50.4686 0.745844 50.4686 3.22528C50.4686 5.54346 49.8832 6.36994 47.7433 6.36994H42.6763V0.0806274ZM49.6006 2.92291C49.6006 1.10869 49.0353 0.766 47.9856 0.766H43.5242V5.68457H47.8644C48.894 5.68457 49.6208 5.46283 49.6208 3.56797V2.92291H49.6006Z" fill="black"/>
<path d="M63.7515 0.0806274H64.5994V6.3901H63.7515V0.0806274Z" fill="black"/>
<path d="M77.9031 2.35849C77.9031 0.766005 78.4481 0 80.1439 0H83.4142C84.9686 0 85.3926 0.725687 85.3926 1.57232V2.11659H84.6456V1.83438C84.6456 0.766004 83.9794 0.705531 83.1921 0.705531H80.2246C79.3969 0.705531 78.7509 0.947426 78.7509 2.03596V4.39445C78.7509 5.48299 79.4171 5.72488 80.2246 5.72488H83.2123C84.363 5.72488 84.686 5.48299 84.686 4.63635V4.25335H85.4935V4.67667C85.4935 5.82567 85.1301 6.43041 83.3536 6.43041H80.1237C78.4077 6.43041 77.8829 5.66441 77.8829 4.07192V2.35849H77.9031Z" fill="black"/>
<path d="M101.704 0.0806274H102.774L106.528 6.3901H105.539L104.752 5.05966H99.7051L98.9178 6.3901H97.9488L101.704 0.0806274ZM102.229 0.766L100.109 4.33398H104.348L102.229 0.766Z" fill="black"/>
<path d="M119.247 0.0806274H120.095V5.68456H125V6.3901H119.247V0.0806274Z" fill="black"/>
</svg>
