<svg width="182" height="312" viewBox="0 0 182 312" fill="none" xmlns="http://www.w3.org/2000/svg">
<path d="M145.257 21.0459C143.922 16.2349 140.226 -2.16745 137.294 -24.8016C134.886 -43.4588 149.363 -60 168.153 -60H178.879C196.117 -60 210.077 -45.9762 210 -28.7246C209.614 59.0629 207.098 192.59 199.05 203.903C192.321 213.355 184.89 232.684 179.843 247.689C173.84 265.519 163.345 281.551 149.162 293.899C148.738 294.27 148.313 294.633 147.896 294.98C138.914 302.548 128.018 307.506 116.451 309.514C23.8056 325.576 0.19279 259.983 0.115624 222.738C0.115624 222.074 0.0924741 221.409 0.053891 220.745C-1.03415 199.416 13.9361 153.229 83.1 131.143C153.367 108.718 153.823 48.3984 145.257 21.0459Z" fill="url(#paint0_linear)"/>
<defs>
<linearGradient id="paint0_linear" x1="20.5717" y1="271.723" x2="327.861" y2="-133.197" gradientUnits="userSpaceOnUse">
<stop stop-color="#E9E9E9"/>
<stop offset="1" stop-color="#F3F3F3" stop-opacity="0"/>
</linearGradient>
</defs>
</svg>
