<svg width="186" height="371" viewBox="0 0 186 371" fill="none" xmlns="http://www.w3.org/2000/svg">
<path d="M40.7427 290.172C42.0777 294.97 45.7739 313.323 48.7062 335.896C51.1138 354.503 36.6375 371 17.8475 371L7.12141 371C-10.1175 371 -24.0769 357.014 -23.9997 339.809C-23.6139 252.257 -21.0982 119.089 -13.0498 107.806C-6.32091 98.3797 1.11019 79.1027 6.15687 64.1385C12.1604 46.3556 22.655 30.3671 36.8381 18.0523C37.2625 17.6827 37.6869 17.3207 38.1036 16.9741C47.0858 9.42659 57.9816 4.48217 69.5488 2.47976C162.194 -13.5395 185.807 51.8777 185.884 89.0223C185.884 89.6847 185.908 90.347 185.946 91.0093C187.034 112.281 172.064 158.344 102.9 180.371C32.6325 202.736 32.1773 262.893 40.7427 290.172Z" fill="url(#paint0_linear)"/>
<defs>
<linearGradient id="paint0_linear" x1="156.469" y1="13.1161" x2="-196.057" y2="530.143" gradientUnits="userSpaceOnUse">
<stop stop-color="#E9E9E9"/>
<stop offset="1" stop-color="white" stop-opacity="0"/>
</linearGradient>
</defs>
</svg>
