<svg width="73" height="82" viewBox="0 0 73 82" fill="none" xmlns="http://www.w3.org/2000/svg">
<path d="M20.7855 45.1305C20.8829 44.6451 20.9319 44.1513 20.9317 43.6562C20.9317 38.8993 16.4212 35.0444 10.8582 35.0444C5.29517 35.0444 0.780457 38.9034 0.780457 43.6562C0.780457 48.409 5.291 52.268 10.8582 52.268C14.7631 52.268 18.146 50.3677 19.8208 47.5904C23.7926 48.7013 25.129 45.2057 25.129 45.2057C23.542 46.3082 21.9341 45.8196 20.7855 45.1305Z" fill="white"/>
<path d="M10.8582 52.6857C5.06963 52.6857 0.362793 48.6345 0.362793 43.652C0.362793 38.6696 5.06963 34.6226 10.8582 34.6226C16.6467 34.6226 21.3493 38.6737 21.3493 43.652C21.3488 44.0717 21.3153 44.4906 21.2491 44.905C22.5856 45.6233 23.8093 45.6066 24.891 44.859C24.9629 44.8058 25.05 44.7771 25.1395 44.7771C25.2289 44.7771 25.316 44.8058 25.388 44.859C25.4589 44.9141 25.5102 44.9905 25.5343 45.077C25.5584 45.1636 25.5539 45.2555 25.5216 45.3393C25.5216 45.3727 24.064 48.9937 20.0129 48.054C18.1544 50.9274 14.6754 52.6857 10.8582 52.6857ZM10.8582 35.4579C5.53321 35.4579 1.19808 39.1331 1.19808 43.652C1.19808 48.1709 5.54156 51.8504 10.8582 51.8504C14.5042 51.8504 17.7994 50.1339 19.4616 47.3732C19.5087 47.2944 19.5804 47.2332 19.6657 47.1993C19.751 47.1653 19.8452 47.1604 19.9335 47.1853C22.0593 47.7825 23.3415 46.9514 24.0431 46.1579C23.4485 46.2852 22.8343 46.2912 22.2372 46.1757C21.6402 46.0601 21.0726 45.8254 20.5683 45.4855C20.4945 45.4407 20.4363 45.374 20.4019 45.2947C20.3675 45.2154 20.3585 45.1274 20.3762 45.0428C20.4674 44.5848 20.5135 44.119 20.5141 43.652C20.5141 39.1373 16.1831 35.4621 10.8582 35.4621V35.4579Z" fill="#DFEAEF"/>
<path d="M61.5642 47.4484C61.5642 47.4484 60.4491 44.7003 60.0189 44.0154C59.5887 43.3305 57.442 41.8687 57.6133 40.7494C57.7845 39.6301 61.134 32.2629 63.8779 33.3738C66.6218 34.4848 65.252 39.3545 65.1643 40.3527C65.0766 41.3508 66.9685 46.3333 66.9685 46.3333L61.5642 47.4484Z" fill="#FFC9B0"/>
<path d="M61.5642 47.8661C61.4817 47.8656 61.4012 47.8408 61.3328 47.7948C61.2645 47.7487 61.2112 47.6834 61.1799 47.6071C60.8709 46.8512 60.0022 44.7755 59.6639 44.2367C59.4442 43.9575 59.1996 43.6989 58.933 43.4641C58.0977 42.6622 57.0536 41.6641 57.204 40.6868C57.3543 39.7095 59.6138 34.5934 62.0444 33.2068C62.3368 33.0166 62.6697 32.8976 63.0163 32.8592C63.363 32.8207 63.7138 32.864 64.0408 32.9854C66.6928 34.0546 65.9912 38.0473 65.6905 39.7471C65.6403 40.0227 65.5986 40.2608 65.5902 40.3902C65.5318 41.0501 66.6469 44.2952 67.3652 46.1871C67.3882 46.2429 67.398 46.3032 67.3936 46.3634C67.3893 46.4236 67.371 46.4819 67.3401 46.5338C67.3113 46.5867 67.2714 46.6328 67.2231 46.6688C67.1748 46.7049 67.1193 46.73 67.0603 46.7426L61.6519 47.8577C61.6232 47.8646 61.5936 47.8674 61.5642 47.8661ZM63.3015 33.6662C63.0057 33.6802 62.7182 33.7694 62.4663 33.9251C60.3029 35.1781 58.1562 40.0144 58.0351 40.8079C57.9515 41.355 58.8954 42.2571 59.5177 42.8543C59.8389 43.1325 60.1287 43.4447 60.3822 43.7857C60.919 44.8192 61.4013 45.88 61.8273 46.9639L66.4213 46.0159C65.9035 44.621 64.6881 41.2214 64.7508 40.3109C64.7508 40.1438 64.8092 39.8933 64.8635 39.5967C65.1517 37.9637 65.7489 34.585 63.7234 33.7497C63.5887 33.6985 63.4456 33.673 63.3015 33.6745V33.6662Z" fill="#093F68"/>
<path d="M66.8181 42.7416L60.0732 46.918C62.9006 51.5121 63.7944 53.9803 64.0742 55.1832C61.3971 54.9075 52.9482 51.1947 49.156 48.9185C45.6353 46.8303 31.5482 47.6405 27.0669 49.1942C22.9448 50.6183 14.2578 54.8115 13.0383 66.7352C12.5037 71.9265 14.617 76.6834 18.2964 78.5753C19.3809 79.1258 20.5801 79.412 21.7962 79.4106C23.5712 79.4106 25.7847 78.8009 28.1569 76.7085C28.2112 76.6625 28.2572 76.6124 28.3073 76.5623H49.6071L49.8075 57.5595C51.3862 58.3948 52.234 59.4807 54.3097 60.3661C57.5966 61.7652 61.3512 63.1142 64.638 63.1142C66.7931 63.1142 68.7476 62.5337 70.2386 61.026C74.5195 56.6574 70.6604 48.9603 66.8181 42.7416ZM23.187 71.0619C22.3517 71.8053 21.8464 71.8972 21.7587 71.8972C21.341 71.7886 20.2468 70.1014 20.5057 67.4953C20.9234 63.4942 23.8469 60.4705 26.4864 58.5285V70.2225C25.9092 70.0929 25.3095 70.1014 24.7362 70.2472C24.1629 70.3931 23.6321 70.6722 23.187 71.0619Z" fill="#FD985B"/>
<path d="M21.7962 79.8324C20.5128 79.834 19.2474 79.5306 18.1043 78.947C14.2745 76.9758 12.0735 72.0517 12.6206 66.6934C13.8151 54.9994 22.0969 50.4638 26.9291 48.789C31.2391 47.2981 45.5643 46.2832 49.369 48.551C52.9941 50.7227 60.4157 53.9803 63.4979 54.6486C63.1053 53.3956 62.1322 51.0318 59.7391 47.131C59.6815 47.0373 59.6632 46.9246 59.6883 46.8174C59.7133 46.7103 59.7796 46.6174 59.8727 46.5588L66.6218 42.3824C66.7156 42.3248 66.8283 42.3066 66.9354 42.3316C67.0425 42.3566 67.1355 42.4229 67.194 42.516C71.1157 48.8642 75.0415 56.7368 70.5351 61.31C69.0901 62.7884 67.1063 63.536 64.638 63.536C61.1173 63.536 57.1831 62.0492 54.1468 60.7545C53.1345 60.309 52.183 59.7364 51.3152 59.0505C50.9519 58.7832 50.6011 58.5243 50.2168 58.2821L50.0247 76.5706C50.0247 76.6814 49.9807 76.7876 49.9024 76.866C49.8241 76.9443 49.7178 76.9883 49.6071 76.9883H28.4785L28.4326 77.03C26.3193 78.8969 24.0849 79.8324 21.7962 79.8324ZM40.4273 48.0916C39.8008 48.0916 39.1535 48.0916 38.4852 48.1208C33.8912 48.2628 29.3681 48.86 27.2089 49.6076C22.5689 51.2156 14.6086 55.5883 13.4601 66.8062C12.9464 71.8179 14.9678 76.4119 18.4927 78.2329C19.5183 78.7558 20.6534 79.0278 21.8046 79.0264C23.8928 79.0264 25.9309 78.1535 27.8896 76.4286L27.9732 76.3451L28.0233 76.2992C28.1011 76.222 28.2061 76.1785 28.3156 76.1781H49.1978L49.3941 57.5888C49.3953 57.5177 49.4147 57.4482 49.4504 57.3867C49.486 57.3252 49.5368 57.2738 49.5979 57.2375C49.6589 57.2011 49.7282 57.1809 49.7993 57.1788C49.8703 57.1767 49.9407 57.1927 50.0038 57.2254C50.6393 57.5691 51.2456 57.9644 51.8164 58.4074C52.6319 59.0533 53.5258 59.5935 54.4768 60.0153C57.442 61.2682 61.2718 62.73 64.6422 62.73C66.91 62.73 68.6432 62.0826 69.9463 60.7545C73.9515 56.6741 70.3639 49.3612 66.6928 43.3388L60.6579 47.0642C63.2849 51.3659 64.1953 53.8049 64.4918 55.1038C64.5066 55.168 64.5059 55.2347 64.49 55.2986C64.474 55.3625 64.4432 55.4216 64.4 55.4713C64.3564 55.5216 64.3014 55.5606 64.2397 55.5853C64.1779 55.61 64.1112 55.6196 64.045 55.6133C61.2092 55.3168 52.564 51.4369 48.9514 49.2986C47.6483 48.5092 44.5327 48.0916 40.4273 48.0916ZM21.767 72.3149H21.6751C20.9735 72.1311 19.8124 70.2601 20.1006 67.4619C20.5182 63.2353 23.6798 60.0905 26.2441 58.1985C26.3065 58.1518 26.3806 58.1234 26.4582 58.1166C26.5359 58.1098 26.6138 58.1248 26.6834 58.16C26.7529 58.1952 26.8112 58.2492 26.8516 58.3157C26.8921 58.3823 26.9131 58.4589 26.9123 58.5368V70.2308C26.9139 70.2943 26.901 70.3574 26.8745 70.4151C26.848 70.4729 26.8087 70.5238 26.7596 70.5641C26.7105 70.6044 26.6528 70.6329 26.591 70.6475C26.5291 70.6621 26.4648 70.6625 26.4028 70.6485C25.891 70.535 25.3597 70.5435 24.8519 70.6734C24.344 70.8033 23.8738 71.0508 23.4793 71.396C22.6649 72.0893 22.0802 72.3149 21.767 72.3149ZM26.0771 59.3679C23.7967 61.1889 21.2951 63.962 20.9317 67.5329C20.702 69.7881 21.5415 71.183 21.838 71.4587C22.2376 71.2923 22.6018 71.0513 22.9113 70.7487C23.3411 70.3711 23.8438 70.0858 24.3884 69.9105C24.933 69.7352 25.5077 69.6736 26.0771 69.7297V59.3679Z" fill="#093F68"/>
<path d="M44.374 48.054L40.1266 71.3626L34.597 48.7473L44.374 48.054Z" fill="white"/>
<path d="M40.1266 71.7803C40.0312 71.7831 39.9377 71.7531 39.8617 71.6953C39.7857 71.6376 39.7318 71.5555 39.7089 71.4629L34.1919 48.8475C34.1776 48.789 34.1762 48.7281 34.1878 48.669C34.1993 48.6099 34.2235 48.5539 34.2587 48.5051C34.2945 48.4557 34.3408 48.4147 34.3942 48.3851C34.4476 48.3556 34.5068 48.338 34.5677 48.3338L44.3447 47.6364C44.4086 47.6316 44.4727 47.6415 44.532 47.6654C44.5914 47.6893 44.6445 47.7265 44.6872 47.7742C44.73 47.8217 44.7613 47.8785 44.7786 47.94C44.796 48.0016 44.799 48.0663 44.7874 48.1292L40.54 71.4378C40.5222 71.5351 40.4705 71.6229 40.394 71.6856C40.3175 71.7484 40.2213 71.7819 40.1224 71.7803H40.1266ZM35.1148 49.1315L40.0639 69.3621L43.8645 48.5092L35.1148 49.1315Z" fill="#093F68"/>
<path d="M37.3701 45.8071H42.1855V48.576C42.1855 49.1177 41.9704 49.6371 41.5874 50.0201C41.2044 50.4031 40.6849 50.6183 40.1433 50.6183H39.4166C38.8749 50.6183 38.3555 50.4031 37.9725 50.0201C37.5895 49.6371 37.3743 49.1177 37.3743 48.576V45.8071H37.3701Z" fill="#FFC9B0"/>
<path d="M40.1433 51.036H39.4166C38.7638 51.036 38.1377 50.7769 37.6757 50.3157C37.2137 49.8545 36.9536 49.2288 36.9525 48.576V45.8071C36.9525 45.6963 36.9965 45.5901 37.0748 45.5118C37.1532 45.4334 37.2594 45.3894 37.3702 45.3894H42.1856C42.2963 45.3894 42.4026 45.4334 42.4809 45.5118C42.5592 45.5901 42.6032 45.6963 42.6032 45.8071V48.576C42.6021 49.2281 42.3426 49.8532 41.8815 50.3142C41.4204 50.7753 40.7954 51.0349 40.1433 51.036ZM37.7878 46.2247V48.576C37.7889 49.0073 37.961 49.4205 38.2663 49.7251C38.5717 50.0296 38.9853 50.2007 39.4166 50.2007H40.1433C40.5742 50.2007 40.9874 50.0295 41.2921 49.7248C41.5968 49.4202 41.7679 49.0069 41.7679 48.576V46.2247H37.7878Z" fill="#093F68"/>
<path d="M23.1577 32.4509C22.0536 32.0536 21.0459 31.4274 20.2008 30.6132C18.6514 29.0763 17.7451 27.0215 16.8597 25.021C17.6577 25.201 18.4873 25.1877 19.2792 24.9821C20.071 24.7765 20.8023 24.3846 21.412 23.8391C18.673 24.174 15.906 23.4967 13.6313 21.9346C15.8949 21.7258 17.4736 19.5749 18.3131 17.4617C19.1525 15.3484 19.6078 13.0054 21.0612 11.2597C22.9573 8.97098 25.2167 8.93757 27.8771 9.17145C27.781 4.7862 30.408 0.676597 35.0689 0.430188C42.5322 0.0125451 46.8214 8.04382 50.9978 7.44659C55.1742 6.84936 56.2893 4.99502 56.2893 4.99502C56.9884 6.33156 57.2772 7.84474 57.1197 9.34481C56.9622 10.8449 56.3653 12.265 55.4039 13.4272C55.4039 13.4272 58.6908 12.4667 59.0875 16.8435C59.4843 21.2204 56.8698 32.8518 56.8698 32.8518L53.8837 32.3297C52.6308 32.1084 51.0646 32.4174 49.8033 32.455L40.4732 32.7474C35.8039 32.8977 28.2363 34.372 23.1577 32.4509Z" fill="#725858"/>
<path d="M29.8859 33.8458C27.4385 33.8458 25.0287 33.6077 23.0115 32.8434C21.8527 32.4218 20.7944 31.7632 19.9043 30.9098C18.2796 29.2935 17.3316 27.1134 16.4963 25.1881C16.4681 25.1195 16.4587 25.0447 16.469 24.9713C16.4792 24.8979 16.5088 24.8286 16.5548 24.7704C16.6047 24.7109 16.6702 24.6664 16.744 24.6421C16.8178 24.6177 16.8969 24.6144 16.9724 24.6326C17.9514 24.8548 18.9757 24.7582 19.8959 24.3569C17.5793 24.3222 15.3245 23.6045 13.4141 22.2938C13.3432 22.245 13.2892 22.1756 13.2593 22.0949C13.2294 22.0143 13.2251 21.9264 13.247 21.8432C13.269 21.7601 13.316 21.6857 13.3818 21.6303C13.4476 21.5749 13.5289 21.5412 13.6146 21.5337C16.1204 21.3081 17.4736 18.5141 17.9455 17.3238C18.171 16.7475 18.3632 16.1419 18.5762 15.553C19.1066 13.9702 19.6579 12.333 20.7604 11.0091C22.6858 8.68698 24.9369 8.54498 27.4803 8.72457C27.568 4.51891 30.1407 0.279834 35.0689 0.0167194C39.3706 -0.22969 42.7117 2.29705 45.4055 4.33097C47.4937 5.90131 49.2771 7.25447 50.9476 7.02059C54.8359 6.46513 55.9301 4.78202 55.9385 4.76532C55.9768 4.70391 56.0305 4.65353 56.0942 4.61912C56.1579 4.5847 56.2294 4.56744 56.3018 4.56903C56.3736 4.56976 56.444 4.58897 56.5061 4.62482C56.5683 4.66067 56.6202 4.71193 56.6568 4.77367C56.6819 4.81543 58.958 8.82481 56.2851 12.9261C56.8602 12.9384 57.4202 13.112 57.9014 13.4272C58.816 14.0537 59.3548 15.1855 59.5051 16.7976C59.9228 21.1912 57.3835 32.455 57.2749 32.9353C57.2509 33.0397 57.1876 33.1309 57.0982 33.19C57.0088 33.2491 56.9001 33.2715 56.7946 33.2527L53.8127 32.7307C52.9264 32.6312 52.0312 32.6438 51.1481 32.7683C50.6804 32.81 50.2377 32.8518 49.8158 32.8643L40.4857 33.1567C39.3205 33.1943 37.9548 33.3154 36.5097 33.4448C34.4508 33.6411 32.1495 33.8458 29.8859 33.8458ZM17.5655 25.5389C18.3005 27.2094 19.165 28.9886 20.489 30.3042C21.2944 31.0761 22.2536 31.6696 23.3039 32.0457C27.0084 33.4532 32.2331 32.9854 36.4304 32.6137C37.888 32.4801 39.2662 32.359 40.4565 32.3214L49.7866 32.029C50.2042 32.029 50.6219 31.9789 51.0688 31.9372C52.0242 31.8046 52.9926 31.7948 53.9505 31.9079L56.5399 32.359C56.9868 30.3042 59.0123 20.6859 58.6657 16.8686C58.5446 15.5196 58.1269 14.5925 57.4128 14.1122C57.131 13.9367 56.8167 13.82 56.4887 13.7691C56.1607 13.7181 55.8258 13.734 55.5041 13.8156C55.4181 13.8411 55.3262 13.8382 55.2419 13.8074C55.1577 13.7765 55.0856 13.7194 55.0364 13.6444C54.9877 13.5702 54.9638 13.4825 54.9683 13.3939C54.9728 13.3053 55.0054 13.2204 55.0614 13.1516C55.91 12.1349 56.4627 10.9045 56.6594 9.59498C56.856 8.2854 56.689 6.94697 56.1765 5.7259C55.5 6.36906 54.0006 7.39647 51.0521 7.81411C49.0348 8.10228 47.1137 6.64889 44.8835 4.96161C42.173 2.91098 39.1075 0.58889 35.0814 0.785182C30.4873 1.02741 28.1987 5.14955 28.2864 9.09627C28.2866 9.15443 28.2747 9.212 28.2514 9.26528C28.2281 9.31857 28.1939 9.3664 28.151 9.40572C28.1082 9.44504 28.0576 9.47497 28.0025 9.4936C27.9474 9.51223 27.889 9.51915 27.8311 9.51392C25.2668 9.30509 23.1619 9.31345 21.3702 11.4643C20.372 12.6713 19.8667 14.1623 19.3363 15.7451C19.1358 16.3424 18.9186 16.9605 18.6931 17.5577C18.2295 18.7229 16.9891 21.2622 14.713 22.0641C16.7314 23.1899 19.0554 23.6447 21.3493 23.363C21.435 23.3548 21.5211 23.3733 21.5958 23.4159C21.6706 23.4585 21.7303 23.5231 21.767 23.601C21.8045 23.6815 21.8155 23.7718 21.7982 23.859C21.7809 23.9461 21.7363 24.0254 21.6709 24.0855C21.1205 24.5928 20.4728 24.9832 19.7672 25.233C19.0615 25.4828 18.3125 25.5869 17.5655 25.5389Z" fill="#093F68"/>
<path d="M55.9774 19.7352L49.7485 21.7699C48.6171 22.1395 47.9995 23.3562 48.3691 24.4876L53.5292 40.2842C53.8987 41.4155 55.1155 42.0331 56.2469 41.6635L62.4758 39.6288C63.6071 39.2592 64.2247 38.0425 63.8551 36.9111L58.695 21.1145C58.3255 19.9832 57.1087 19.3656 55.9774 19.7352Z" fill="white"/>
<path d="M55.5835 42.1861C55.04 42.186 54.5104 42.0144 54.0702 41.6957C53.63 41.377 53.3017 40.9274 53.1319 40.4111L47.9741 24.6159C47.869 24.2948 47.8282 23.9561 47.8541 23.6192C47.8799 23.2824 47.9719 22.9539 48.1247 22.6525C48.2775 22.3512 48.4882 22.0829 48.7447 21.863C49.0011 21.6431 49.2984 21.4758 49.6196 21.3708L55.8508 19.3369C56.4999 19.1261 57.2061 19.1814 57.8145 19.4907C58.4229 19.7999 58.8837 20.3379 59.0959 20.9866L64.2538 36.7776C64.3594 37.099 64.4007 37.4381 64.3752 37.7754C64.3496 38.1128 64.2578 38.4418 64.105 38.7436C63.9521 39.0454 63.7413 39.3141 63.4844 39.5343C63.2276 39.7545 62.9299 39.9219 62.6083 40.0269L56.3812 42.0608C56.1232 42.1428 55.8542 42.1851 55.5835 42.1861ZM56.6485 20.0511C56.4656 20.0499 56.2837 20.0781 56.1097 20.1346L49.8827 22.1685C49.4444 22.3119 49.0809 22.6232 48.8718 23.0343C48.6628 23.4453 48.6253 23.9225 48.7676 24.3611L53.9255 40.1564C54.0698 40.594 54.3813 40.9568 54.792 41.1657C55.2028 41.3746 55.6794 41.4126 56.1181 41.2715L62.341 39.2334C62.7788 39.0877 63.1418 38.7757 63.3517 38.3647C63.4556 38.161 63.5179 37.9387 63.5351 37.7107C63.5523 37.4827 63.5241 37.2535 63.4519 37.0366L58.294 21.2455C58.1801 20.8984 57.9599 20.5958 57.6646 20.3807C57.3693 20.1656 57.0138 20.0488 56.6485 20.0469V20.0511Z" fill="#093F68"/>
<path d="M56.4544 21.728L50.2811 23.7445C49.8842 23.8742 49.6676 24.301 49.7972 24.6978L54.1169 37.9218C54.2466 38.3187 54.6734 38.5353 55.0702 38.4057L61.2436 36.3891C61.6404 36.2595 61.857 35.8327 61.7274 35.4358L57.4077 22.2118C57.2781 21.8149 56.8513 21.5983 56.4544 21.728Z" fill="#DFEAEF"/>
<path d="M26.0228 37.3331C28.6061 37.3331 30.7004 35.5287 30.7004 33.3028C30.7004 31.077 28.6061 29.2726 26.0228 29.2726C23.4394 29.2726 21.3452 31.077 21.3452 33.3028C21.3452 35.5287 23.4394 37.3331 26.0228 37.3331Z" fill="#FFC9B0"/>
<path d="M26.0061 37.7507C23.1953 37.7507 20.9108 35.7544 20.9108 33.3028C20.9108 30.8513 23.1953 28.8549 26.0061 28.8549C28.8168 28.8549 31.0971 30.8513 31.0971 33.3028C31.0971 35.7544 28.8293 37.7507 26.0061 37.7507ZM26.0061 29.6902C23.6547 29.6902 21.7461 31.3107 21.7461 33.3028C21.7461 35.295 23.6547 36.9155 26.0061 36.9155C28.3574 36.9155 30.2618 35.295 30.2618 33.3028C30.2618 31.3107 28.3699 29.6902 26.0061 29.6902Z" fill="#093F68"/>
<path d="M53.2865 37.3331C55.8699 37.3331 57.9641 35.5287 57.9641 33.3028C57.9641 31.077 55.8699 29.2726 53.2865 29.2726C50.7031 29.2726 48.6089 31.077 48.6089 33.3028C48.6089 35.5287 50.7031 37.3331 53.2865 37.3331Z" fill="#FFC9B0"/>
<path d="M53.2865 37.7507C50.4758 37.7507 48.1913 35.7544 48.1913 33.3028C48.1913 30.8513 50.4758 28.8549 53.2865 28.8549C56.0973 28.8549 58.3818 30.8513 58.3818 33.3028C58.3818 35.7544 56.0764 37.7507 53.2865 37.7507ZM53.2865 29.6902C50.9352 29.6902 49.0266 31.3107 49.0266 33.3028C49.0266 35.295 50.9352 36.9155 53.2865 36.9155C55.6379 36.9155 57.5465 35.295 57.5465 33.3028C57.5465 31.3107 55.6337 29.6902 53.2865 29.6902Z" fill="#093F68"/>
<path d="M39.7883 46.421C37.9358 46.4215 36.1013 46.0571 34.3897 45.3486C32.6781 44.6401 31.1228 43.6013 29.8127 42.2916C28.5026 40.9819 27.4633 39.4269 26.7543 37.7155C26.0452 36.004 25.6803 34.1697 25.6803 32.3172V22.0933C26.5156 23.4465 29.2428 22.9286 33.2563 16.025C48.2915 23.6344 53.8921 19.2742 53.8921 19.2742V32.3339C53.8876 36.0716 52.3998 39.6546 49.7553 42.296C47.1108 44.9374 43.5259 46.421 39.7883 46.421Z" fill="#FFC9B0"/>
<path d="M39.7883 46.8386C35.9376 46.8353 32.2455 45.3045 29.5222 42.582C26.799 39.8595 25.2671 36.1679 25.2627 32.3172V22.0933C25.2618 22.0015 25.2912 21.9119 25.3463 21.8384C25.4015 21.765 25.4794 21.7117 25.5678 21.687C25.6563 21.6623 25.7505 21.6674 25.8357 21.7016C25.921 21.7358 25.9926 21.7971 26.0395 21.8761C26.1122 22.0017 26.2181 22.1047 26.3456 22.1739C26.473 22.2432 26.6171 22.276 26.762 22.2687C27.3175 22.2687 29.4015 21.7843 32.8846 15.812C32.9388 15.7212 33.0254 15.6543 33.1269 15.6249C33.2285 15.5954 33.3374 15.6056 33.4317 15.6533C47.9741 23.0205 53.5705 18.9944 53.6248 18.9401C53.6867 18.893 53.7606 18.8641 53.8381 18.8567C53.9156 18.8493 53.9936 18.8638 54.0633 18.8983C54.1336 18.9328 54.1928 18.9863 54.2341 19.0527C54.2755 19.1192 54.2973 19.196 54.2972 19.2742V32.3339C54.2883 36.1788 52.7568 39.8637 50.0376 42.582C47.3185 45.3004 43.6332 46.8309 39.7883 46.8386ZM26.0896 22.9829V32.3339C26.0984 35.9616 27.5454 39.4378 30.1134 42.0002C32.6813 44.5627 36.1606 46.0023 39.7883 46.0034C43.4167 45.9989 46.8953 44.5556 49.461 41.9899C52.0267 39.4242 53.47 35.9456 53.4744 32.3172V19.9967C51.5825 20.9156 45.581 22.6446 33.4276 16.5721C30.9217 20.7736 28.5787 23.0873 26.7912 23.104C26.5515 23.112 26.3127 23.0708 26.0896 22.9829Z" fill="#093F68"/>
<path d="M34.5552 31.5863C35.2772 31.5863 35.8624 31.0011 35.8624 30.2791C35.8624 29.5571 35.2772 28.9719 34.5552 28.9719C33.8333 28.9719 33.248 29.5571 33.248 30.2791C33.248 31.0011 33.8333 31.5863 34.5552 31.5863Z" fill="#093F68"/>
<path d="M46.7169 31.5863C47.4388 31.5863 48.0241 31.0011 48.0241 30.2791C48.0241 29.5571 47.4388 28.9719 46.7169 28.9719C45.9949 28.9719 45.4097 29.5571 45.4097 30.2791C45.4097 31.0011 45.9949 31.5863 46.7169 31.5863Z" fill="#093F68"/>
<path d="M40.9201 36.0969C40.492 36.0962 40.0646 36.0613 39.6421 35.9925C39.588 35.9829 39.5364 35.9628 39.4902 35.9332C39.4439 35.9037 39.4039 35.8653 39.3725 35.8203C39.3411 35.7754 39.3189 35.7246 39.3071 35.671C39.2953 35.6174 39.2942 35.562 39.3038 35.508C39.3133 35.454 39.3335 35.4024 39.363 35.3561C39.3925 35.3099 39.4309 35.2699 39.4759 35.2385C39.5209 35.207 39.5716 35.1848 39.6252 35.173C39.6788 35.1612 39.7342 35.1601 39.7882 35.1697C40.4247 35.2801 41.0748 35.2872 41.7136 35.1906C41.7887 34.8105 41.2959 33.4198 40.6152 32.1167C40.5851 32.0679 40.5655 32.0133 40.5574 31.9565C40.5494 31.8997 40.5531 31.8418 40.5684 31.7866C40.5837 31.7313 40.6103 31.6797 40.6464 31.6351C40.6825 31.5905 40.7274 31.5539 40.7783 31.5274C40.8292 31.5009 40.885 31.4853 40.9423 31.4813C40.9995 31.4774 41.057 31.4853 41.111 31.5045C41.1651 31.5238 41.2146 31.5539 41.2565 31.5932C41.2983 31.6324 41.3317 31.6798 41.3544 31.7325C41.8138 32.6096 42.837 34.7437 42.4612 35.579C42.4194 35.6814 42.3542 35.7725 42.2708 35.845C42.1873 35.9176 42.088 35.9695 41.9809 35.9966C41.6325 36.0721 41.2764 36.1057 40.9201 36.0969Z" fill="#093F68"/>
<path d="M37.65 26.7375H37.5539L31.3645 26.04C31.1429 26.0151 30.9404 25.9032 30.8013 25.7289C30.6623 25.5547 30.5982 25.3323 30.6231 25.1108C30.6481 24.8893 30.76 24.6867 30.9342 24.5477C31.1085 24.4086 31.3309 24.3445 31.5524 24.3695L37.7419 25.0669C37.9634 25.0791 38.171 25.1788 38.319 25.3441C38.4671 25.5093 38.5434 25.7266 38.5312 25.9482C38.519 26.1697 38.4193 26.3773 38.2541 26.5253C38.0888 26.6734 37.8715 26.7497 37.65 26.7375Z" fill="#093F68"/>
<path d="M44.0398 27.1593C43.9301 27.1667 43.82 27.1524 43.7159 27.1173C43.6117 27.0822 43.5155 27.0269 43.4327 26.9545C43.3499 26.8822 43.2821 26.7943 43.2333 26.6958C43.1845 26.5973 43.1555 26.4901 43.1481 26.3804C43.1407 26.2707 43.155 26.1606 43.1901 26.0565C43.2253 25.9523 43.2806 25.8561 43.3529 25.7733C43.4252 25.6905 43.5132 25.6227 43.6117 25.5739C43.7102 25.5251 43.8174 25.4961 43.927 25.4887L50.0956 24.6535C50.2053 24.6384 50.3169 24.645 50.424 24.6731C50.5311 24.7011 50.6317 24.75 50.7199 24.8169C50.8081 24.8838 50.8823 24.9674 50.9382 25.063C50.9941 25.1586 51.0307 25.2642 51.0458 25.3739C51.0608 25.4836 51.0542 25.5952 51.0261 25.7023C50.9981 25.8094 50.9492 25.9099 50.8823 25.9982C50.8154 26.0864 50.7318 26.1606 50.6362 26.2165C50.5407 26.2724 50.435 26.3089 50.3253 26.324L44.1568 27.1593C44.1179 27.1633 44.0787 27.1633 44.0398 27.1593Z" fill="#093F68"/>
<path d="M38.3682 33.9752H32.1036C31.6232 33.9741 31.1628 33.7828 30.8231 33.4431C30.4834 33.1035 30.2921 32.6431 30.291 32.1627V28.2744C30.291 28.1637 30.335 28.0574 30.4133 27.9791C30.4917 27.9008 30.5979 27.8568 30.7087 27.8568H39.7757C39.8865 27.8568 39.9927 27.9008 40.071 27.9791C40.1493 28.0574 40.1933 28.1637 40.1933 28.2744V32.1627C40.1928 32.4016 40.1451 32.6381 40.053 32.8586C39.961 33.079 39.8263 33.2792 39.6568 33.4476C39.4873 33.6159 39.2862 33.7492 39.0651 33.8398C38.844 33.9303 38.6072 33.9763 38.3682 33.9752ZM31.1138 28.6921V32.1627C31.1138 32.4219 31.2167 32.6704 31.4 32.8537C31.5833 33.037 31.8319 33.14 32.0911 33.14H38.3557C38.6149 33.14 38.8635 33.037 39.0467 32.8537C39.23 32.6704 39.333 32.4219 39.333 32.1627V28.6921H31.1138Z" fill="#093F68"/>
<path d="M49.6238 33.9752H43.3591C42.8788 33.9741 42.4184 33.7828 42.0787 33.4431C41.739 33.1035 41.5477 32.6431 41.5466 32.1627V28.2744C41.5466 28.1637 41.5906 28.0574 41.6689 27.9791C41.7472 27.9008 41.8534 27.8568 41.9642 27.8568H51.0271C51.1378 27.8568 51.2441 27.9008 51.3224 27.9791C51.4007 28.0574 51.4447 28.1637 51.4447 28.2744V32.1627C51.4447 32.4014 51.3975 32.6378 51.3059 32.8583C51.2143 33.0787 51.0801 33.2789 50.9109 33.4473C50.7417 33.6157 50.5409 33.7491 50.32 33.8397C50.0991 33.9303 49.8625 33.9763 49.6238 33.9752ZM42.3735 28.6921V32.1627C42.3735 32.4219 42.4765 32.6704 42.6597 32.8537C42.843 33.037 43.0916 33.14 43.3508 33.14H49.6154C49.8746 33.14 50.1232 33.037 50.3065 32.8537C50.4897 32.6704 50.5927 32.4219 50.5927 32.1627V28.6921H42.3735Z" fill="#093F68"/>
<path d="M30.6961 30.1831H24.5568C24.446 30.1831 24.3398 30.1391 24.2615 30.0607C24.1832 29.9824 24.1392 29.8762 24.1392 29.7654C24.1392 29.6547 24.1832 29.5484 24.2615 29.4701C24.3398 29.3918 24.446 29.3478 24.5568 29.3478H30.6961C30.8069 29.3478 30.9131 29.3918 30.9915 29.4701C31.0698 29.5484 31.1138 29.6547 31.1138 29.7654C31.1138 29.8762 31.0698 29.9824 30.9915 30.0607C30.9131 30.1391 30.8069 30.1831 30.6961 30.1831Z" fill="#093F68"/>
<path d="M53.2865 30.1831H51.0647C50.9539 30.1831 50.8477 30.1391 50.7694 30.0607C50.691 29.9824 50.647 29.8762 50.647 29.7654C50.647 29.6547 50.691 29.5484 50.7694 29.4701C50.8477 29.3918 50.9539 29.3478 51.0647 29.3478H53.3032C53.414 29.3478 53.5202 29.3918 53.5986 29.4701C53.6769 29.5484 53.7209 29.6547 53.7209 29.7654C53.7209 29.8762 53.6769 29.9824 53.5986 30.0607C53.5202 30.1391 53.414 30.1831 53.3032 30.1831H53.2865Z" fill="#093F68"/>
<path d="M38.481 38.7238C38.4557 38.9513 38.4431 39.1799 38.4434 39.4088C38.4434 41.2506 39.2787 42.7499 40.3145 42.7499C41.3502 42.7499 42.1855 41.2589 42.1855 39.4088C42.1845 39.1799 42.1705 38.9512 42.1437 38.7238H38.481Z" fill="white"/>
<path d="M40.3145 43.1592C39.0324 43.1592 38.0258 41.5137 38.0258 39.4004C38.0252 39.1548 38.0391 38.9093 38.0676 38.6654C38.0799 38.5635 38.1293 38.4697 38.2063 38.402C38.2834 38.3342 38.3826 38.2971 38.4852 38.2979H42.148C42.2506 38.2971 42.3499 38.3342 42.4269 38.402C42.5039 38.4697 42.5533 38.5635 42.5656 38.6654C42.592 38.9095 42.606 39.1549 42.6074 39.4004C42.6032 41.5137 41.5967 43.1592 40.3145 43.1592ZM38.8653 39.1415C38.8653 39.2292 38.8653 39.3211 38.8653 39.4088C38.8653 41.1253 39.6296 42.3323 40.3187 42.3323C41.0078 42.3323 41.7721 41.1337 41.7721 39.4088C41.7721 39.3211 41.7721 39.2292 41.7721 39.1415H38.8653Z" fill="#093F68"/>
<path d="M40.8742 51.5079H39.379C38.807 51.5079 38.3433 51.9716 38.3433 52.5436V53.2787C38.3433 53.8507 38.807 54.3144 39.379 54.3144H40.8742C41.4462 54.3144 41.9099 53.8507 41.9099 53.2787V52.5436C41.9099 51.9716 41.4462 51.5079 40.8742 51.5079Z" fill="#F56132"/>
<path d="M40.8742 54.7321H39.3707C38.9856 54.731 38.6165 54.5775 38.3442 54.3052C38.0719 54.0329 37.9184 53.6638 37.9173 53.2787V52.5437C37.9173 52.1578 38.0703 51.7877 38.3427 51.5145C38.6152 51.2412 38.9848 51.0872 39.3707 51.0861H40.8659C41.2517 51.0872 41.6214 51.2412 41.8938 51.5145C42.1663 51.7877 42.3193 52.1578 42.3192 52.5437V53.2787C42.3182 53.6624 42.1658 54.0302 41.8953 54.3023C41.6248 54.5744 41.2579 54.7288 40.8742 54.7321ZM39.3707 51.9214C39.2064 51.9225 39.0492 51.9885 38.9334 52.1051C38.8176 52.2217 38.7526 52.3793 38.7526 52.5437V53.2787C38.7537 53.4423 38.8191 53.5989 38.9348 53.7146C39.0505 53.8302 39.2071 53.8957 39.3707 53.8968H40.8659C41.0298 53.8968 41.187 53.8317 41.3029 53.7158C41.4188 53.5999 41.484 53.4426 41.484 53.2787V52.5437C41.484 52.3793 41.419 52.2217 41.3032 52.1051C41.1874 51.9885 41.0302 51.9225 40.8659 51.9214H39.3707Z" fill="#093F68"/>
<path d="M41.7136 62.6715L40.1265 71.3626L38.2095 63.5193L39.1033 54.3145H41.1456L41.7136 62.6715Z" fill="#F56132"/>
<path d="M40.1266 71.7803C40.0312 71.7831 39.9377 71.7531 39.8617 71.6953C39.7857 71.6376 39.7318 71.5555 39.7089 71.4629L37.7919 63.6154C37.7835 63.5698 37.7835 63.5231 37.7919 63.4775L38.6899 54.2894C38.7003 54.186 38.7488 54.0902 38.826 54.0207C38.9033 53.9512 39.0036 53.913 39.1075 53.9135H41.1498C41.2557 53.9133 41.3577 53.9532 41.4352 54.0253C41.5128 54.0974 41.56 54.1963 41.5674 54.3019L42.1313 62.6548C42.1356 62.6894 42.1356 62.7245 42.1313 62.7592L40.54 71.4378C40.5222 71.5351 40.4705 71.6229 40.394 71.6856C40.3175 71.7484 40.2213 71.7819 40.1224 71.7803H40.1266ZM38.6314 63.4901L40.0681 69.3621L41.2918 62.6506L40.7572 54.7154H39.5043L38.6314 63.4901Z" fill="#093F68"/>
<path d="M26.4905 58.6788C26.3798 58.6788 26.2735 58.6348 26.1952 58.5565C26.1169 58.4782 26.0729 58.3719 26.0729 58.2612V54.2643C26.0729 54.1536 26.1169 54.0473 26.1952 53.969C26.2735 53.8907 26.3798 53.8467 26.4905 53.8467C26.6013 53.8467 26.7075 53.8907 26.7858 53.969C26.8642 54.0473 26.9082 54.1536 26.9082 54.2643V58.2612C26.9082 58.3719 26.8642 58.4782 26.7858 58.5565C26.7075 58.6348 26.6013 58.6788 26.4905 58.6788Z" fill="#093F68"/>
<path d="M31.0679 66.2215H44.0399V77.5396C44.0399 78.6118 43.614 79.6401 42.8558 80.3982C42.0976 81.1564 41.0693 81.5824 39.9971 81.5824H35.1107C34.0385 81.5824 33.0102 81.1564 32.252 80.3982C31.4939 79.6401 31.0679 78.6118 31.0679 77.5396V66.2215Z" fill="#FFBC0E"/>
<path d="M39.9971 82H35.1107C33.9277 81.9978 32.7938 81.5266 31.9577 80.6896C31.1215 79.8527 30.6514 78.7184 30.6503 77.5354V66.2215C30.6503 66.1107 30.6943 66.0045 30.7726 65.9261C30.8509 65.8478 30.9571 65.8038 31.0679 65.8038H44.0399C44.1507 65.8038 44.2569 65.8478 44.3352 65.9261C44.4135 66.0045 44.4575 66.1107 44.4575 66.2215V77.5354C44.4564 78.7184 43.9863 79.8527 43.1501 80.6896C42.314 81.5266 41.1801 81.9978 39.9971 82ZM31.4856 66.6391V77.5354C31.4867 78.4969 31.8688 79.4187 32.5483 80.099C33.2278 80.7793 34.1492 81.1625 35.1107 81.1647H39.9971C40.9589 81.1636 41.881 80.7807 42.5607 80.1002C43.2405 79.4197 43.6223 78.4972 43.6223 77.5354V66.6391H31.4856Z" fill="#093F68"/>
<path d="M44.0441 66.2173C44.0441 66.6767 43.6682 67.1069 43.0209 67.4702C41.8682 68.1134 39.851 68.5394 37.5539 68.5394C35.2569 68.5394 33.2439 68.1217 32.0912 67.4702C31.4438 67.1069 31.0679 66.6767 31.0679 66.2173C31.0679 64.9351 33.9914 63.8952 37.5539 63.8952C41.1164 63.8952 44.0441 64.9351 44.0441 66.2173Z" fill="#FFBC0E"/>
<path d="M37.5539 68.9737C35.2653 68.9737 33.1478 68.5561 31.8865 67.8544C30.8633 67.2781 30.6336 66.6558 30.6336 66.234C30.6336 64.4548 34.1877 63.4942 37.5372 63.4942C40.8867 63.4942 44.445 64.4548 44.445 66.234C44.445 66.6516 44.2279 67.2781 43.1921 67.8544C41.9643 68.5561 39.8426 68.9737 37.5539 68.9737ZM37.5539 64.3295C33.7952 64.3295 31.4856 65.4405 31.4856 66.234C31.4856 66.5096 31.7821 66.8354 32.2958 67.1236C33.4151 67.75 35.4323 68.1384 37.5539 68.1384C39.6756 68.1384 41.6761 67.7584 42.8162 67.1236C43.3299 66.8354 43.6265 66.5096 43.6265 66.234C43.6265 65.4238 41.3169 64.3128 37.5539 64.3128V64.3295Z" fill="#093F68"/>
<path d="M43.0208 67.4702C41.8681 68.1134 39.8509 68.5394 37.5539 68.5394C35.2569 68.5394 33.2438 68.1217 32.0911 67.4702C33.2438 66.8229 35.261 66.3969 37.5539 66.3969C39.8467 66.3969 41.8765 66.8229 43.0208 67.4702Z" fill="#725858"/>
<path d="M37.5539 68.9737C35.2653 68.9737 33.1478 68.5561 31.8865 67.8544C31.8213 67.8183 31.7668 67.7654 31.729 67.7011C31.6911 67.6368 31.6711 67.5636 31.6711 67.489C31.6711 67.4144 31.6911 67.3411 31.729 67.2769C31.7668 67.2126 31.8213 67.1597 31.8865 67.1236C33.1395 66.4177 35.2611 65.9959 37.5539 65.9959C39.8468 65.9959 41.9684 66.4136 43.2255 67.1236C43.2908 67.1597 43.3452 67.2126 43.3831 67.2769C43.421 67.3411 43.441 67.4144 43.441 67.489C43.441 67.5636 43.421 67.6368 43.3831 67.7011C43.3452 67.7654 43.2908 67.8183 43.2255 67.8544C41.9643 68.5561 39.8426 68.9737 37.5539 68.9737ZM33.1061 67.4702C34.5429 67.9317 36.045 68.1574 37.5539 68.1384C39.0622 68.1661 40.5649 67.946 42.0018 67.4869C39.1039 66.6127 36.0124 66.6127 33.1144 67.4869L33.1061 67.4702Z" fill="#093F68"/>
<path d="M32.7594 78.2454C31.8244 78.2846 30.8974 78.0593 30.0848 77.5953C29.2721 77.1314 28.6068 76.4476 28.1653 75.6226C27.1337 73.7223 27.1421 71.0285 28.1904 69.4415C28.3751 69.1328 28.6281 68.8707 28.93 68.6752C29.232 68.4797 29.5747 68.3561 29.9319 68.3138C31.5148 68.1635 33.0768 69.7046 33.1436 69.7714C33.1873 69.8089 33.2228 69.8549 33.2479 69.9067C33.273 69.9586 33.2871 70.015 33.2893 70.0725C33.2915 70.13 33.2818 70.1874 33.2608 70.241C33.2398 70.2946 33.208 70.3432 33.1673 70.3839C33.1266 70.4247 33.0779 70.4565 33.0243 70.4775C32.9707 70.4985 32.9133 70.5082 32.8558 70.506C32.7983 70.5037 32.7419 70.4897 32.6901 70.4646C32.6382 70.4395 32.5922 70.404 32.5547 70.3603C32.5547 70.3603 31.2016 69.0238 30.0113 69.145C29.7776 69.1767 29.5544 69.2617 29.3588 69.3935C29.1633 69.5253 29.0007 69.7003 28.8836 69.9051C28.1235 71.0452 27.9105 73.4049 28.8836 75.2217C29.4391 76.2407 30.5542 77.4352 32.8262 77.4101C32.937 77.4101 33.0432 77.4541 33.1215 77.5324C33.1998 77.6107 33.2438 77.717 33.2438 77.8277C33.2438 77.9385 33.1998 78.0447 33.1215 78.1231C33.0432 78.2014 32.937 78.2454 32.8262 78.2454H32.7594Z" fill="#093F68"/>
<path d="M27.284 69.7255H24.8408C23.7936 69.7255 22.9447 70.5744 22.9447 71.6216V74.9251C22.9447 75.9723 23.7936 76.8212 24.8408 76.8212H27.284C28.3312 76.8212 29.1801 75.9723 29.1801 74.9251V71.6216C29.1801 70.5744 28.3312 69.7255 27.284 69.7255Z" fill="#FFC9B0"/>
<path d="M27.2841 77.2389H24.8408C24.2275 77.2378 23.6397 76.9936 23.206 76.56C22.7723 76.1263 22.5282 75.5384 22.5271 74.9251V71.6258C22.5271 71.0117 22.7707 70.4228 23.2045 69.9882C23.6383 69.5536 24.2268 69.3089 24.8408 69.3078H27.2841C27.8981 69.3089 28.4866 69.5536 28.9204 69.9882C29.3542 70.4228 29.5978 71.0117 29.5978 71.6258V74.9251C29.5967 75.5384 29.3526 76.1263 28.9189 76.56C28.4852 76.9936 27.8974 77.2378 27.2841 77.2389ZM24.8408 70.1389C24.4483 70.14 24.0723 70.2967 23.7952 70.5747C23.518 70.8526 23.3624 71.2291 23.3624 71.6216V74.921C23.3635 75.3127 23.5196 75.6881 23.7966 75.9652C24.0737 76.2422 24.4491 76.3983 24.8408 76.3994H27.2841C27.6758 76.3983 28.0512 76.2422 28.3283 75.9652C28.6053 75.6881 28.7614 75.3127 28.7625 74.921V71.6216C28.7625 71.2291 28.6069 70.8526 28.3297 70.5747C28.0526 70.2967 27.6765 70.14 27.2841 70.1389H24.8408Z" fill="#093F68"/>
<path d="M30.9593 71.0494C30.9593 70.5881 30.5854 70.2141 30.124 70.2141C29.6627 70.2141 29.2888 70.5881 29.2888 71.0494V73.5553C29.2888 74.0166 29.6627 74.3905 30.124 74.3905C30.5854 74.3905 30.9593 74.0166 30.9593 73.5553V71.0494Z" fill="#FFC9B0"/>
<path d="M30.124 74.8207C29.7917 74.8207 29.473 74.6887 29.2381 74.4537C29.0031 74.2188 28.8711 73.9001 28.8711 73.5678V71.0619C28.8711 70.7296 29.0031 70.4109 29.2381 70.176C29.473 69.941 29.7917 69.809 30.124 69.809C30.4563 69.809 30.775 69.941 31.01 70.176C31.2449 70.4109 31.377 70.7296 31.377 71.0619V73.5678C31.377 73.9001 31.2449 74.2188 31.01 74.4537C30.775 74.6887 30.4563 74.8207 30.124 74.8207ZM30.124 70.6443C30.0133 70.6443 29.907 70.6883 29.8287 70.7666C29.7504 70.8449 29.7064 70.9512 29.7064 71.0619V73.5678C29.7064 73.6785 29.7504 73.7848 29.8287 73.8631C29.907 73.9414 30.0133 73.9854 30.124 73.9854C30.2348 73.9854 30.341 73.9414 30.4193 73.8631C30.4977 73.7848 30.5417 73.6785 30.5417 73.5678V71.0619C30.5417 70.9512 30.4977 70.8449 30.4193 70.7666C30.341 70.6883 30.2348 70.6443 30.124 70.6443Z" fill="#093F68"/>
<path d="M29.1801 72.0434H26.2566C26.1459 72.0434 26.0396 71.9994 25.9613 71.9211C25.883 71.8427 25.839 71.7365 25.839 71.6257C25.839 71.515 25.883 71.4088 25.9613 71.3304C26.0396 71.2521 26.1459 71.2081 26.2566 71.2081H29.1801C29.2909 71.2081 29.3971 71.2521 29.4755 71.3304C29.5538 71.4088 29.5978 71.515 29.5978 71.6257C29.5978 71.7365 29.5538 71.8427 29.4755 71.9211C29.3971 71.9994 29.2909 72.0434 29.1801 72.0434Z" fill="#093F68"/>
<path d="M29.1801 73.7307H26.2566C26.1459 73.7307 26.0396 73.6867 25.9613 73.6083C25.883 73.53 25.839 73.4238 25.839 73.313C25.839 73.2023 25.883 73.096 25.9613 73.0177C26.0396 72.9394 26.1459 72.8954 26.2566 72.8954H29.1801C29.2909 72.8954 29.3971 72.9394 29.4755 73.0177C29.5538 73.096 29.5978 73.2023 29.5978 73.313C29.5978 73.4238 29.5538 73.53 29.4755 73.6083C29.3971 73.6867 29.2909 73.7307 29.1801 73.7307Z" fill="#093F68"/>
<path d="M29.1801 75.4221H26.2566C26.1459 75.4221 26.0396 75.3781 25.9613 75.2998C25.883 75.2215 25.839 75.1152 25.839 75.0045C25.839 74.8937 25.883 74.7875 25.9613 74.7092C26.0396 74.6308 26.1459 74.5868 26.2566 74.5868H29.1801C29.2909 74.5868 29.3971 74.6308 29.4755 74.7092C29.5538 74.7875 29.5978 74.8937 29.5978 75.0045C29.5978 75.1152 29.5538 75.2215 29.4755 75.2998C29.3971 75.3781 29.2909 75.4221 29.1801 75.4221Z" fill="#093F68"/>
<path d="M13.5854 48.4758C12.926 48.4514 12.2795 48.2862 11.6893 47.9913C9.2753 46.7718 7.38338 45.0679 6.46039 42.4325C6.18935 41.8294 6.10079 41.1601 6.20562 40.5072C6.3149 40.0962 6.52035 39.7172 6.80501 39.4013C7.08967 39.0854 7.44539 38.8418 7.84278 38.6904C8.18525 38.5317 8.3189 38.6027 8.51519 38.9201C8.87436 39.509 9.23771 40.0979 9.59271 40.691C9.77647 40.9917 9.76812 41.1086 9.51753 41.3675C9.26695 41.6265 9.00801 41.7852 8.75742 42.0316C8.41495 42.3323 8.36902 42.4492 8.57784 42.8669C8.7625 43.233 8.99111 43.5752 9.25859 43.8859C10.0204 44.7211 10.8897 45.4514 11.8438 46.0577C12.2072 46.2915 12.3324 46.2707 12.6123 45.9407C12.8127 45.7027 12.9923 45.4521 13.197 45.2182C13.4643 44.9133 13.6146 44.8924 13.9529 45.0929C14.5585 45.4437 15.1557 45.8113 15.7696 46.1537C15.8619 46.1933 15.9348 46.2678 15.9724 46.3609C16.0099 46.454 16.0091 46.5582 15.9701 46.6507C15.8475 47.0974 15.6014 47.5005 15.2601 47.8137C14.9188 48.1269 14.4962 48.3376 14.0406 48.4215C13.8944 48.4508 13.6981 48.4591 13.5854 48.4758Z" fill="#DFEAEF"/>
</svg>
