<svg width="70" height="75" viewBox="0 0 70 75" fill="none" xmlns="http://www.w3.org/2000/svg">
<path d="M51.5376 0.757607H16.6442C13.9719 0.757607 11.8055 2.92939 11.8055 5.60842V68.7965C11.8055 71.4755 13.9719 73.6473 16.6442 73.6473H51.5376C54.2099 73.6473 56.3762 71.4755 56.3762 68.7965V5.60842C56.3762 2.92939 54.2099 0.757607 51.5376 0.757607Z" fill="#FD985B"/>
<path d="M51.5326 74.1328H16.6442C15.2316 74.1315 13.8771 73.5684 12.8782 72.567C11.8793 71.5656 11.3176 70.2078 11.3163 68.7916V5.60842C11.3176 4.19222 11.8793 2.8344 12.8782 1.833C13.8771 0.831594 15.2316 0.268434 16.6442 0.267136H51.5326C52.9462 0.267135 54.3018 0.829721 55.3018 1.83127C56.3018 2.83281 56.8642 4.19137 56.8655 5.60842V68.7916C56.8642 70.2086 56.3018 71.5672 55.3018 72.5687C54.3018 73.5703 52.9462 74.1328 51.5326 74.1328ZM16.6442 1.24809C15.4911 1.24939 14.3855 1.7092 13.5701 2.52664C12.7547 3.34408 12.2961 4.45239 12.2948 5.60842V68.7916C12.2961 69.9476 12.7547 71.0559 13.5701 71.8733C14.3855 72.6908 15.4911 73.1506 16.6442 73.1519H51.5326C52.6866 73.1519 53.7934 72.6927 54.6099 71.8751C55.4263 71.0575 55.8857 69.9484 55.887 68.7916V5.60842C55.8857 4.45154 55.4263 3.34248 54.6099 2.5249C53.7934 1.70732 52.6866 1.24809 51.5326 1.24809H16.6442Z" fill="#093F68"/>
<path d="M56.3762 6.8297H11.8055V62.6214H56.3762V6.8297Z" fill="white"/>
<path d="M56.3762 63.1119H11.8055C11.6758 63.1119 11.5513 63.0602 11.4596 62.9682C11.3678 62.8762 11.3163 62.7515 11.3163 62.6214V6.82971C11.3163 6.69963 11.3678 6.57487 11.4596 6.48289C11.5513 6.39091 11.6758 6.33923 11.8055 6.33923H56.3762C56.506 6.33923 56.6304 6.39091 56.7222 6.48289C56.8139 6.57487 56.8655 6.69963 56.8655 6.82971V62.6214C56.8655 62.7515 56.8139 62.8762 56.7222 62.9682C56.6304 63.0602 56.506 63.1119 56.3762 63.1119ZM12.2948 62.1309H55.887V7.32019H12.2948V62.1309Z" fill="#093F68"/>
<path d="M51.2685 45.2242H34.3845C33.4495 45.2242 32.6917 45.984 32.6917 46.9212V49.6287C32.6917 50.5659 33.4495 51.3257 34.3845 51.3257H51.2685C52.2034 51.3257 52.9613 50.5659 52.9613 49.6287V46.9212C52.9613 45.984 52.2034 45.2242 51.2685 45.2242Z" fill="#DFEAEF"/>
<path d="M51.2734 51.8162H34.3844C33.8057 51.8162 33.2507 51.5857 32.8415 51.1755C32.4323 50.7652 32.2024 50.2088 32.2024 49.6287V46.9163C32.2037 46.337 32.4342 45.7819 32.8432 45.3727C33.2523 44.9635 33.8066 44.7337 34.3844 44.7337H51.2734C51.8504 44.735 52.4034 44.9654 52.8114 45.3744C53.2194 45.7835 53.4492 46.3379 53.4505 46.9163V49.6287C53.4505 50.208 53.2213 50.7636 52.8131 51.1737C52.405 51.5838 51.8512 51.8149 51.2734 51.8162ZM34.3844 45.7147C34.0661 45.7147 33.7607 45.8411 33.5351 46.0663C33.3096 46.2915 33.1822 46.5972 33.1809 46.9163V49.6287C33.1809 49.9487 33.3077 50.2556 33.5334 50.4818C33.7591 50.7081 34.0652 50.8352 34.3844 50.8352H51.2734C51.5917 50.8339 51.8966 50.7062 52.1212 50.4801C52.3459 50.254 52.472 49.9478 52.472 49.6287V46.9163C52.472 46.5976 52.3457 46.292 52.1209 46.0666C51.8961 45.8413 51.5913 45.7147 51.2734 45.7147H34.3844Z" fill="#DFEAEF"/>
<path d="M51.0483 10.6015H34.6046C33.5481 10.6015 32.6917 11.4601 32.6917 12.5192V16.5117C32.6917 17.5709 33.5481 18.4295 34.6046 18.4295H51.0483C52.1048 18.4295 52.9613 17.5709 52.9613 16.5117V12.5192C52.9613 11.4601 52.1048 10.6015 51.0483 10.6015Z" fill="#DFEAEF"/>
<path d="M51.0483 18.915H34.6095C33.9719 18.915 33.3604 18.6615 32.9091 18.21C32.4579 17.7585 32.2037 17.146 32.2024 16.5068V12.5192C32.2037 11.8801 32.4579 11.2675 32.9091 10.8161C33.3604 10.3646 33.9719 10.111 34.6095 10.111H51.0483C51.6854 10.111 52.2964 10.3647 52.7469 10.8164C53.1974 11.268 53.4505 11.8805 53.4505 12.5192V16.5068C53.4505 17.1455 53.1974 17.758 52.7469 18.2097C52.2964 18.6613 51.6854 18.915 51.0483 18.915ZM34.6095 11.0674C34.4221 11.0668 34.2365 11.1032 34.0632 11.1747C33.8899 11.2461 33.7323 11.3511 33.5996 11.4837C33.4669 11.6163 33.3616 11.7739 33.2897 11.9474C33.2179 12.1209 33.1809 12.3069 33.1809 12.4947V16.4823C33.1822 16.8613 33.3333 17.2243 33.6011 17.4918C33.8688 17.7593 34.2315 17.9096 34.6095 17.9096H51.0483C51.4255 17.9083 51.7869 17.7575 52.0536 17.4901C52.3203 17.2227 52.4707 16.8604 52.472 16.4823V12.5192C52.472 12.1407 52.322 11.7777 52.055 11.51C51.788 11.2423 51.4259 11.0919 51.0483 11.0919L34.6095 11.0674Z" fill="#DFEAEF"/>
<path d="M32.584 36.3858H15.6021C14.6942 36.3858 13.9583 37.1236 13.9583 38.0338V40.4911C13.9583 41.4012 14.6942 42.1391 15.6021 42.1391H32.584C33.4919 42.1391 34.2279 41.4012 34.2279 40.4911V38.0338C34.2279 37.1236 33.4919 36.3858 32.584 36.3858Z" fill="#DFEAEF"/>
<path d="M32.584 42.6296H15.6021C15.322 42.6296 15.0446 42.5742 14.7858 42.4668C14.527 42.3593 14.2919 42.2018 14.0938 42.0032C13.8957 41.8046 13.7386 41.5689 13.6314 41.3094C13.5242 41.05 13.469 40.7719 13.469 40.4911V38.0387C13.4703 37.4724 13.6956 36.9297 14.0955 36.5297C14.4954 36.1298 15.0372 35.9051 15.6021 35.9051H32.584C33.1489 35.9051 33.6907 36.1298 34.0906 36.5297C34.4905 36.9297 34.7158 37.4724 34.7171 38.0387V40.4911C34.7171 41.0582 34.4924 41.6022 34.0923 42.0032C33.6923 42.4043 33.1497 42.6296 32.584 42.6296ZM15.6021 36.8763C15.2967 36.8763 15.0038 36.9976 14.7874 37.2136C14.571 37.4296 14.4488 37.7227 14.4475 38.0289V40.4813C14.4475 40.7883 14.5691 41.0827 14.7857 41.2998C15.0022 41.5168 15.2959 41.6388 15.6021 41.6388H32.584C32.8902 41.6388 33.1839 41.5168 33.4004 41.2998C33.617 41.0827 33.7386 40.7883 33.7386 40.4813V38.0289C33.7373 37.7227 33.6151 37.4296 33.3987 37.2136C33.1823 36.9976 32.8894 36.8763 32.584 36.8763H15.6021Z" fill="#DFEAEF"/>
<path d="M31.7376 19.6753H16.4485C15.0732 19.6753 13.9583 20.793 13.9583 22.1718V30.3922C13.9583 31.771 15.0732 32.8887 16.4485 32.8887H31.7376C33.1129 32.8887 34.2279 31.771 34.2279 30.3922V22.1718C34.2279 20.793 33.1129 19.6753 31.7376 19.6753Z" fill="#DFEAEF"/>
<path d="M31.7376 33.3792H16.4485C15.6583 33.3792 14.9005 33.0645 14.3417 32.5043C13.7829 31.9441 13.469 31.1844 13.469 30.3922V22.1669C13.4703 21.3755 13.7848 20.617 14.3434 20.0579C14.902 19.4988 15.6592 19.1848 16.4485 19.1848H31.7376C32.527 19.1848 33.2841 19.4988 33.8427 20.0579C34.4013 20.617 34.7158 21.3755 34.7171 22.1669V30.3922C34.7171 31.1844 34.4032 31.9441 33.8444 32.5043C33.2857 33.0645 32.5278 33.3792 31.7376 33.3792ZM16.4485 20.1657C15.9187 20.1657 15.4104 20.3764 15.0353 20.7516C14.6602 21.1267 14.4488 21.6357 14.4475 22.1669V30.3922C14.4488 30.9238 14.66 31.4333 15.035 31.8092C15.41 32.1852 15.9182 32.3969 16.4485 32.3982H31.7376C32.2683 32.3982 32.7773 32.1869 33.1525 31.8107C33.5278 31.4345 33.7386 30.9242 33.7386 30.3922V22.1669C33.7373 21.6357 33.5259 21.1267 33.1508 20.7516C32.7757 20.3764 32.2675 20.1657 31.7376 20.1657H16.4485Z" fill="#DFEAEF"/>
<path d="M38.773 4.37733H31.6104C31.4806 4.37733 31.3562 4.32565 31.2645 4.23367C31.1727 4.14169 31.1212 4.01694 31.1212 3.88685C31.1212 3.75677 31.1727 3.63202 31.2645 3.54003C31.3562 3.44805 31.4806 3.39638 31.6104 3.39638H38.773C38.9028 3.39638 39.0272 3.44805 39.119 3.54003C39.2107 3.63202 39.2623 3.75677 39.2623 3.88685C39.2623 4.01694 39.2107 4.14169 39.119 4.23367C39.0272 4.32565 38.9028 4.37733 38.773 4.37733Z" fill="#093F68"/>
<path d="M29.4039 4.37733C29.2741 4.37733 29.1497 4.32566 29.0579 4.23367C28.9662 4.14169 28.9146 4.01694 28.9146 3.88685C28.9122 3.8542 28.9122 3.82141 28.9146 3.78876L28.944 3.69557L28.988 3.61218L29.0516 3.53862C29.1433 3.44726 29.2673 3.39599 29.3966 3.39599C29.5258 3.39599 29.6498 3.44726 29.7415 3.53862L29.8051 3.61218L29.8491 3.69557L29.8785 3.78876C29.8809 3.82141 29.8809 3.8542 29.8785 3.88685C29.8766 4.01623 29.8239 4.13963 29.7317 4.23019C29.6883 4.27752 29.6348 4.31441 29.5751 4.33809C29.5209 4.36142 29.4629 4.37471 29.4039 4.37733Z" fill="#093F68"/>
<path d="M34.0909 70.2139C35.3528 70.2139 36.3757 69.1884 36.3757 67.9234C36.3757 66.6584 35.3528 65.6329 34.0909 65.6329C32.829 65.6329 31.8061 66.6584 31.8061 67.9234C31.8061 69.1884 32.829 70.2139 34.0909 70.2139Z" fill="#093F68"/>
<path d="M31.5419 10.6015H3.65464C2.97945 10.6015 2.33185 10.87 1.85396 11.3482C1.37607 11.8264 1.10695 12.4751 1.10565 13.152V28.5774C1.10695 29.2543 1.37607 29.903 1.85396 30.3812C2.33185 30.8594 2.97945 31.1279 3.65464 31.1279H20.3772L23.9292 37.3324V31.1279H31.5468C31.8813 31.1286 32.2126 31.0631 32.5219 30.9352C32.8311 30.8073 33.1121 30.6195 33.3489 30.3826C33.5857 30.1457 33.7735 29.8644 33.9017 29.5546C34.0298 29.2448 34.0958 28.9128 34.0958 28.5774V13.1667C34.0977 12.8297 34.033 12.4956 33.9054 12.1838C33.7778 11.8721 33.5899 11.5887 33.3524 11.3502C33.1149 11.1117 32.8327 10.9227 32.5219 10.7942C32.2111 10.6657 31.8781 10.6002 31.5419 10.6015Z" fill="#FFBC0E"/>
<path d="M23.9243 37.8229C23.8376 37.8228 23.7525 37.7995 23.6777 37.7556C23.6029 37.7116 23.5411 37.6485 23.4987 37.5728L20.0739 31.6184H3.63511C2.83016 31.6184 2.05811 31.2982 1.48847 30.728C0.918833 30.1579 0.598159 29.3844 0.596863 28.5774V13.1667C0.598159 12.3597 0.918833 11.5862 1.48847 11.0161C2.05811 10.4459 2.83016 10.1257 3.63511 10.1257H31.5224C32.3273 10.1257 33.0994 10.4459 33.669 11.0161C34.2386 11.5862 34.5593 12.3597 34.5606 13.1667V28.5921C34.5593 29.3991 34.2386 30.1726 33.669 30.7427C33.0994 31.3129 32.3273 31.6331 31.5224 31.6331H24.4136V37.3471C24.4173 37.4579 24.3836 37.5666 24.3179 37.6557C24.2521 37.7448 24.1582 37.8089 24.0515 37.8376C24.0086 37.8396 23.9657 37.8346 23.9243 37.8229ZM3.64979 11.0919C3.10435 11.0919 2.58119 11.3088 2.19506 11.695C1.80892 12.0812 1.59134 12.6051 1.59004 13.1519V28.5774C1.59134 29.1242 1.80892 29.6482 2.19506 30.0344C2.58119 30.4205 3.10435 30.6374 3.64979 30.6374H20.3723C20.459 30.6376 20.5441 30.6608 20.6189 30.7048C20.6937 30.7487 20.7555 30.8118 20.798 30.8876L23.4351 35.4931V31.1279C23.4351 30.9978 23.4866 30.8731 23.5784 30.7811C23.6701 30.6891 23.7946 30.6374 23.9243 30.6374H31.5419C32.0874 30.6374 32.6105 30.4205 32.9967 30.0344C33.3828 29.6482 33.6004 29.1242 33.6017 28.5774V13.1667C33.6004 12.6199 33.3828 12.0959 32.9967 11.7097C32.6105 11.3235 32.0874 11.1067 31.5419 11.1067L3.64979 11.0919Z" fill="#093F68"/>
<path d="M41.8993 24.325H67.0712C67.6811 24.325 68.2659 24.5679 68.6972 25.0002C69.1284 25.4325 69.3707 26.0189 69.3707 26.6302V40.5451C69.3707 41.1564 69.1284 41.7428 68.6972 42.1751C68.2659 42.6074 67.6811 42.8503 67.0712 42.8503H51.9778L48.7732 48.4466V42.8503H41.9237C41.6216 42.8509 41.3223 42.7918 41.043 42.6761C40.7637 42.5605 40.51 42.3907 40.2963 42.1765C40.0827 41.9624 39.9133 41.708 39.798 41.428C39.6827 41.148 39.6236 40.848 39.6243 40.5451V26.6302C39.623 26.0227 39.8614 25.4393 40.2877 25.0074C40.7139 24.5755 41.2933 24.3302 41.8993 24.325Z" fill="#F56132"/>
<path d="M48.7733 48.9371H48.6461C48.5394 48.9083 48.4455 48.8442 48.3797 48.7552C48.314 48.6661 48.2803 48.5573 48.284 48.4466V43.3408H41.9238C41.1846 43.3395 40.476 43.0445 39.9533 42.5205C39.4306 41.9965 39.1364 41.2861 39.1351 40.545V26.6302C39.1351 25.8888 39.4289 25.1777 39.9519 24.6534C40.4749 24.1291 41.1842 23.8345 41.9238 23.8345H67.0957C67.8353 23.8345 68.5446 24.1291 69.0676 24.6534C69.5906 25.1777 69.8844 25.8888 69.8844 26.6302V40.545C69.8831 41.2861 69.5889 41.9965 69.0662 42.5205C68.5435 43.0445 67.8349 43.3395 67.0957 43.3408H52.2616L49.1989 48.6919C49.1558 48.7667 49.0938 48.8288 49.019 48.8719C48.9443 48.9149 48.8595 48.9374 48.7733 48.9371ZM41.9238 24.8155C41.4437 24.8155 40.9833 25.0067 40.6438 25.347C40.3043 25.6873 40.1136 26.1489 40.1136 26.6302V40.545C40.1136 41.0264 40.3043 41.4879 40.6438 41.8283C40.9833 42.1686 41.4437 42.3598 41.9238 42.3598H48.7733C48.903 42.3598 49.0275 42.4115 49.1192 42.5035C49.211 42.5954 49.2625 42.7202 49.2625 42.8503V46.6073L51.5522 42.605C51.5953 42.5302 51.6574 42.4681 51.7321 42.425C51.8069 42.382 51.8917 42.3595 51.9779 42.3598H67.0712C67.5513 42.3598 68.0118 42.1686 68.3513 41.8283C68.6907 41.4879 68.8815 41.0264 68.8815 40.545V26.6302C68.8815 26.1489 68.6907 25.6873 68.3513 25.347C68.0118 25.0067 67.5513 24.8155 67.0712 24.8155H41.9238Z" fill="#093F68"/>
<path d="M51.0337 59.5117H17.1335C16.8066 59.5265 16.4802 59.4747 16.1739 59.3594C15.8675 59.2442 15.5876 59.0679 15.3511 58.8412C15.1146 58.6146 14.9264 58.3422 14.7978 58.0406C14.6692 57.739 14.6029 57.4144 14.6029 57.0863C14.6029 56.7583 14.6692 56.4337 14.7978 56.1321C14.9264 55.8305 15.1146 55.5581 15.3511 55.3314C15.5876 55.1048 15.8675 54.9285 16.1739 54.8133C16.4802 54.698 16.8066 54.6462 17.1335 54.6609H51.019C51.6418 54.689 52.2299 54.9568 52.6607 55.4086C53.0915 55.8604 53.332 56.4613 53.332 57.0863C53.332 57.7114 53.0915 58.3123 52.6607 58.7641C52.2299 59.2159 51.6418 59.4837 51.019 59.5117H51.0337ZM17.1335 55.6419C16.9372 55.6304 16.7407 55.6593 16.5559 55.7267C16.3712 55.7941 16.2021 55.8986 16.0591 56.0339C15.9161 56.1691 15.8022 56.3323 15.7243 56.5132C15.6464 56.6942 15.6062 56.8892 15.6062 57.0863C15.6062 57.2834 15.6464 57.4785 15.7243 57.6594C15.8022 57.8404 15.9161 58.0036 16.0591 58.1388C16.2021 58.2741 16.3712 58.3786 16.5559 58.446C16.7407 58.5134 16.9372 58.5423 17.1335 58.5308H51.019C51.3866 58.5093 51.7321 58.3478 51.9848 58.0792C52.2375 57.8107 52.3783 57.4555 52.3783 57.0863C52.3783 56.7172 52.2375 56.362 51.9848 56.0934C51.7321 55.8249 51.3866 55.6634 51.019 55.6419H17.1335Z" fill="#DFEAEF"/>
<path d="M27.7894 16.6H7.40234C7.27258 16.6 7.14814 16.5483 7.05638 16.4563C6.96463 16.3644 6.91309 16.2396 6.91309 16.1095C6.91309 15.9794 6.96463 15.8547 7.05638 15.7627C7.14814 15.6707 7.27258 15.619 7.40234 15.619H27.7894C27.9191 15.619 28.0436 15.6707 28.1353 15.7627C28.2271 15.8547 28.2786 15.9794 28.2786 16.1095C28.2786 16.2396 28.2271 16.3644 28.1353 16.4563C28.0436 16.5483 27.9191 16.6 27.7894 16.6Z" fill="#093F68"/>
<path d="M27.7894 20.563H7.40234C7.27258 20.563 7.14814 20.5114 7.05638 20.4194C6.96463 20.3274 6.91309 20.2027 6.91309 20.0726C6.91309 19.9425 6.96463 19.8177 7.05638 19.7257C7.14814 19.6338 7.27258 19.5821 7.40234 19.5821H27.7894C27.9191 19.5821 28.0436 19.6338 28.1353 19.7257C28.2271 19.8177 28.2786 19.9425 28.2786 20.0726C28.2786 20.2027 28.2271 20.3274 28.1353 20.4194C28.0436 20.5114 27.9191 20.563 27.7894 20.563Z" fill="#093F68"/>
<path d="M21.6297 24.531H7.40234C7.27258 24.531 7.14814 24.4793 7.05638 24.3873C6.96463 24.2954 6.91309 24.1706 6.91309 24.0405C6.91309 23.9104 6.96463 23.7857 7.05638 23.6937C7.14814 23.6017 7.27258 23.55 7.40234 23.55H21.6297C21.7595 23.55 21.8839 23.6017 21.9757 23.6937C22.0674 23.7857 22.119 23.9104 22.119 24.0405C22.119 24.1706 22.0674 24.2954 21.9757 24.3873C21.8839 24.4793 21.7595 24.531 21.6297 24.531Z" fill="#093F68"/>
<path d="M64.6788 29.4554H44.2917C44.162 29.4554 44.0375 29.4037 43.9458 29.3117C43.854 29.2197 43.8025 29.095 43.8025 28.9649C43.8025 28.8348 43.854 28.7101 43.9458 28.6181C44.0375 28.5261 44.162 28.4744 44.2917 28.4744H64.6788C64.8085 28.4744 64.933 28.5261 65.0248 28.6181C65.1165 28.7101 65.168 28.8348 65.168 28.9649C65.168 29.095 65.1165 29.2197 65.0248 29.3117C64.933 29.4037 64.8085 29.4554 64.6788 29.4554Z" fill="#093F68"/>
<path d="M64.6788 33.4184H44.2917C44.162 33.4184 44.0375 33.3667 43.9458 33.2748C43.854 33.1828 43.8025 33.058 43.8025 32.9279C43.8025 32.7979 43.854 32.6731 43.9458 32.5811C44.0375 32.4891 44.162 32.4375 44.2917 32.4375H64.6788C64.8085 32.4375 64.933 32.4891 65.0248 32.5811C65.1165 32.6731 65.168 32.7979 65.168 32.9279C65.168 33.058 65.1165 33.1828 65.0248 33.2748C64.933 33.3667 64.8085 33.4184 64.6788 33.4184Z" fill="#093F68"/>
<path d="M58.5191 37.3864H44.2917C44.162 37.3864 44.0375 37.3347 43.9458 37.2427C43.854 37.1507 43.8025 37.026 43.8025 36.8959C43.8025 36.7658 43.854 36.6411 43.9458 36.5491C44.0375 36.4571 44.162 36.4054 44.2917 36.4054H58.5191C58.6489 36.4054 58.7733 36.4571 58.8651 36.5491C58.9568 36.6411 59.0084 36.7658 59.0084 36.8959C59.0084 37.026 58.9568 37.1507 58.8651 37.2427C58.7733 37.3347 58.6489 37.3864 58.5191 37.3864Z" fill="#093F68"/>
</svg>
