<svg width="112" height="82" viewBox="0 0 112 82" fill="none" xmlns="http://www.w3.org/2000/svg">
<path d="M76.3633 27.9019V22.1346H98.2195V27.9019V36.8836V72.7231H29.5302V27.9019H76.3633Z" fill="#093F68"/>
<path d="M98.225 73.2533H29.5302C29.385 73.2533 29.2457 73.1958 29.143 73.0932C29.0403 72.9907 28.9827 72.8517 28.9827 72.7067V27.88C28.9827 27.735 29.0403 27.596 29.143 27.4935C29.2457 27.3909 29.385 27.3333 29.5302 27.3333H75.8158V22.1127C75.8158 21.9677 75.8735 21.8286 75.9762 21.7261C76.0789 21.6236 76.2181 21.566 76.3633 21.566H98.225C98.3702 21.566 98.5095 21.6236 98.6122 21.7261C98.7148 21.8286 98.7725 21.9677 98.7725 22.1127V72.7067C98.7725 72.7785 98.7583 72.8496 98.7308 72.9159C98.7033 72.9822 98.663 73.0425 98.6122 73.0932C98.5613 73.144 98.5009 73.1843 98.4345 73.2117C98.3681 73.2392 98.2969 73.2533 98.225 73.2533ZM30.0777 72.16H97.6775V22.6812H76.9108V27.88C76.9108 28.025 76.8531 28.164 76.7505 28.2666C76.6478 28.3691 76.5085 28.4267 76.3633 28.4267H30.0777V72.16Z" fill="#093F68"/>
<path d="M36.7297 63.5773H98.2194V12.0431L86.5194 1.10428H36.7297V63.5773Z" fill="white"/>
<path d="M98.225 64.124H36.7298C36.5845 64.124 36.4453 64.0664 36.3426 63.9639C36.2399 63.8614 36.1823 63.7224 36.1823 63.5774V1.09336C36.1823 0.948374 36.2399 0.809326 36.3426 0.706806C36.4453 0.604287 36.5845 0.546692 36.7298 0.546692H86.5194C86.6577 0.547169 86.7907 0.5999 86.8917 0.69429L98.5973 11.6276C98.653 11.6792 98.6973 11.7418 98.7275 11.8115C98.7577 11.8811 98.773 11.9563 98.7725 12.0322V63.5774C98.7725 63.7224 98.7148 63.8614 98.6121 63.9639C98.5094 64.0664 98.3702 64.124 98.225 64.124ZM37.2773 63.0307H97.6775V12.2782L86.3059 1.64003H37.2773V63.0307Z" fill="#093F68"/>
<path d="M29.5302 72.7231H98.2195L111.058 34.4127H42.3635L29.5302 72.7231Z" fill="#FD985B"/>
<path d="M98.2249 73.2534H29.5301C29.4437 73.2536 29.3585 73.2334 29.2814 73.1944C29.2044 73.1555 29.1376 73.0989 29.0866 73.0292C29.0349 72.9585 29.0009 72.8764 28.9876 72.7898C28.9742 72.7032 28.9819 72.6147 29.01 72.5318L41.8489 34.2214C41.8853 34.1137 41.9544 34.02 42.0467 33.9533C42.1389 33.8867 42.2497 33.8505 42.3635 33.8496H111.058C111.147 33.8452 111.235 33.8624 111.316 33.8997C111.397 33.9371 111.467 33.9934 111.521 34.0639C111.575 34.1344 111.611 34.2169 111.625 34.3043C111.64 34.3918 111.633 34.4815 111.606 34.5657L98.767 72.8816C98.7291 72.9938 98.6558 73.0908 98.5581 73.1578C98.4603 73.2248 98.3434 73.2584 98.2249 73.2534ZM30.2911 72.16H97.8307L110.297 34.9867H42.7577L30.2911 72.16Z" fill="#093F68"/>
<path d="M96.8672 42.558H82.0135C81.8683 42.558 81.729 42.5004 81.6264 42.3979C81.5237 42.2954 81.466 42.1563 81.466 42.0114C81.466 41.8664 81.5237 41.7273 81.6264 41.6248C81.729 41.5223 81.8683 41.4647 82.0135 41.4647H96.8672C97.0124 41.4647 97.1517 41.5223 97.2543 41.6248C97.357 41.7273 97.4147 41.8664 97.4147 42.0114C97.4147 42.1563 97.357 42.2954 97.2543 42.3979C97.1517 42.5004 97.0124 42.558 96.8672 42.558Z" fill="#093F68"/>
<path d="M86.5194 1.10428L86.4975 12.0431H98.2195L86.5194 1.10428Z" fill="white"/>
<path d="M98.225 12.5733H86.4975C86.4251 12.573 86.3534 12.5584 86.2867 12.5302C86.22 12.5021 86.1595 12.461 86.1088 12.4093C86.0581 12.3583 86.0179 12.2977 85.9907 12.2311C85.9634 12.1645 85.9496 12.0932 85.95 12.0212V1.08788C85.9496 0.981185 85.9806 0.876714 86.0389 0.787347C86.0973 0.697979 86.1806 0.627622 86.2785 0.584945C86.3765 0.542868 86.4847 0.530283 86.5897 0.548735C86.6947 0.567187 86.7921 0.615874 86.8698 0.688813L98.5754 11.6222C98.6574 11.6966 98.7149 11.7942 98.7402 11.9019C98.7655 12.0097 98.7574 12.1226 98.7171 12.2257C98.6767 12.3288 98.606 12.4172 98.5142 12.4793C98.4224 12.5414 98.3139 12.5742 98.2031 12.5733H98.225ZM87.045 11.48H96.8343L87.0669 2.36161L87.045 11.48Z" fill="#093F68"/>
<path d="M51.8517 56.4105C51.8296 55.8385 51.6199 55.2896 51.2549 54.8481C50.8899 54.4066 50.3898 54.0971 49.8315 53.9669C48.8569 53.7592 47.8659 53.6007 46.875 53.4476C46.7388 53.4374 46.6092 53.385 46.5042 53.2978C46.3992 53.2106 46.324 53.0929 46.2891 52.9611C45.999 52.1793 45.6705 51.4031 45.3255 50.6377C45.2717 50.546 45.248 50.4397 45.2578 50.3338C45.2676 50.2278 45.3105 50.1277 45.3803 50.0473C45.9771 49.2328 46.5793 48.4073 47.1268 47.5709C47.4456 47.094 47.5965 46.5247 47.5559 45.9527C47.5153 45.3808 47.2854 44.8385 46.9023 44.4112C45.999 43.4217 45.0299 42.4869 44.0827 41.5412C43.6158 41.0136 42.9646 40.6841 42.2623 40.6201C41.5601 40.5561 40.8599 40.7624 40.305 41.1968C39.5604 41.7107 38.8267 42.23 38.115 42.7657C38.0351 42.8363 37.9351 42.8801 37.829 42.8909C37.7229 42.9017 37.6161 42.8789 37.5237 42.8259C36.686 42.4541 35.8428 42.1097 34.9887 41.7817C34.8851 41.7552 34.7926 41.6964 34.7247 41.6138C34.6567 41.5312 34.6169 41.4292 34.611 41.3225C34.4686 40.4205 34.3208 39.5185 34.162 38.622C34.0699 37.9875 33.7573 37.4054 33.2789 36.9777C32.8005 36.55 32.1868 36.3039 31.545 36.2823C30.1543 36.2495 28.7637 36.2495 27.373 36.2823C26.7805 36.2939 26.209 36.5039 25.7503 36.8786C25.2916 37.2533 24.9723 37.771 24.8436 38.3487C24.6191 39.3545 24.4658 40.3823 24.2961 41.4045C24.2827 41.509 24.2395 41.6074 24.1715 41.6879C24.1035 41.7684 24.0137 41.8275 23.9128 41.8583C23.1025 42.1808 22.2703 42.5252 21.4929 42.886C21.4079 42.9361 21.3094 42.9583 21.2112 42.9495C21.1129 42.9406 21.02 42.9012 20.9454 42.8368C20.1405 42.2464 19.3357 41.6505 18.5035 41.0984C18.0238 40.7716 17.4484 40.6146 16.869 40.6522C16.2895 40.6899 15.7393 40.9201 15.3061 41.3061C14.2494 42.2737 13.2147 43.2851 12.2401 44.3347C11.7785 44.8016 11.505 45.4217 11.4717 46.077C11.4384 46.7322 11.6476 47.3768 12.0594 47.888C12.6069 48.6697 13.1544 49.4351 13.7019 50.2168C13.771 50.344 13.7868 50.4935 13.7457 50.6323C13.4063 51.5069 13.0541 52.3743 12.6891 53.2344C12.6555 53.2997 12.6091 53.3575 12.5526 53.4044C12.4962 53.4514 12.4309 53.4865 12.3606 53.5077C11.4627 53.6717 10.5593 53.8193 9.65591 53.9615C9.0179 54.0332 8.42543 54.3265 7.98207 54.7902C7.53871 55.2538 7.27268 55.8583 7.23048 56.498C7.18668 57.9467 7.18668 59.4008 7.23048 60.8713C7.25609 61.4377 7.46621 61.9801 7.8289 62.4163C8.19159 62.8524 8.687 63.1584 9.23981 63.2876C10.2746 63.5227 11.3258 63.6812 12.3715 63.8343C12.4719 63.843 12.5672 63.8823 12.6445 63.9468C12.7219 64.0114 12.7775 64.098 12.804 64.1951C13.1325 65.0205 13.4829 65.8351 13.8443 66.6441C13.8988 66.7275 13.9236 66.8268 13.9147 66.926C13.9058 67.0252 13.8636 67.1185 13.795 67.1908C13.2475 67.9397 12.7 68.6832 12.1525 69.4485C11.7398 69.9892 11.5437 70.6639 11.6024 71.3411C11.6611 72.0184 11.9705 72.6494 12.4701 73.1112C13.3406 73.9968 14.2166 74.8769 15.109 75.7461C15.5797 76.2645 16.2315 76.5829 16.9302 76.6358C17.6289 76.6887 18.3213 76.472 18.8649 76.0304C19.6204 75.4837 20.3814 74.9699 21.126 74.4177C21.1953 74.3614 21.2801 74.3275 21.3691 74.3207C21.4582 74.3139 21.5472 74.3344 21.6243 74.3795C22.3962 74.7129 23.1682 75.0464 23.9566 75.3361C24.0764 75.3707 24.1823 75.4421 24.259 75.5403C24.3357 75.6385 24.3793 75.7584 24.3837 75.8828C24.5205 76.7684 24.6684 77.6595 24.8271 78.5451C24.9091 79.1628 25.2024 79.7332 25.6574 80.1596C26.1124 80.5861 26.7011 80.8423 27.3237 80.8848C28.7856 80.934 30.2529 80.9285 31.7037 80.8848C32.2762 80.8561 32.8236 80.6413 33.2624 80.2732C33.7013 79.9051 34.0076 79.4038 34.1346 78.8457C34.3482 77.8563 34.5015 76.8559 34.6821 75.8609C34.6889 75.742 34.7326 75.628 34.8072 75.535C34.8817 75.4419 34.9835 75.3743 35.0982 75.3416C35.914 75.03 36.7407 74.6911 37.5291 74.3357C37.6144 74.2856 37.7134 74.2638 37.8118 74.2736C37.9103 74.2835 38.0031 74.3244 38.0766 74.3904C38.8267 74.9371 39.5823 75.4837 40.3378 76.0304C40.8663 76.4129 41.5089 76.6056 42.161 76.5771C42.7738 76.5785 43.3631 76.3412 43.8035 75.9156C44.7616 75.0136 45.6869 74.0733 46.6231 73.144C47.1627 72.6728 47.4992 72.0117 47.5624 71.2987C47.6257 70.5858 47.4108 69.8759 46.9626 69.3173C46.4479 68.5885 45.9241 67.8596 45.3912 67.1307C45.3243 67.0576 45.2828 66.9649 45.273 66.8664C45.2631 66.7679 45.2854 66.6688 45.3365 66.584C45.6978 65.7695 46.0373 64.944 46.3603 64.124C46.394 64.023 46.4565 63.934 46.5402 63.868C46.6238 63.8019 46.7249 63.7617 46.8312 63.7523C47.7345 63.6156 48.6379 63.4625 49.5358 63.3095C50.1718 63.2243 50.7577 62.9187 51.191 62.4461C51.6243 61.9734 51.8775 61.3638 51.9065 60.7237C51.8955 59.2587 51.8901 57.8319 51.8517 56.4105ZM29.5137 68.1912C27.6082 68.1869 25.7466 67.6185 24.1645 66.558C22.5824 65.4974 21.3508 63.9923 20.6253 62.2329C19.8998 60.4735 19.7131 58.5388 20.0887 56.6734C20.4643 54.8081 21.3854 53.0958 22.7355 51.7531C24.0857 50.4104 25.8042 49.4975 27.6739 49.1299C29.5436 48.7622 31.4804 48.9564 33.2396 49.6878C34.9988 50.4191 36.5013 51.6549 37.5572 53.2388C38.6131 54.8227 39.1749 56.6836 39.1716 58.5863C39.1658 61.1385 38.1452 63.584 36.3342 65.3851C34.5231 67.1862 32.0699 68.1956 29.5137 68.1912Z" fill="#F56132" stroke="#093F68" stroke-width="2" stroke-linecap="round" stroke-linejoin="round"/>
<path d="M30.877 27.2295C31.0478 26.8815 31.0995 26.4872 31.0244 26.1071C30.9492 25.7269 30.7513 25.3819 30.4609 25.1248C29.9517 24.682 29.4097 24.272 28.8731 23.862C28.7941 23.8126 28.7328 23.7393 28.6984 23.6528C28.6639 23.5663 28.658 23.471 28.6815 23.3809C28.7636 22.8343 28.8184 22.2548 28.8622 21.6863C28.8587 21.6147 28.878 21.5439 28.9174 21.484C28.9567 21.4241 29.0141 21.3781 29.0812 21.3528C29.7053 21.0576 30.3295 20.7733 30.9263 20.4453C31.2707 20.2635 31.5451 19.9728 31.7066 19.6187C31.868 19.2646 31.9075 18.8671 31.8187 18.4883C31.5997 17.6081 31.3259 16.7444 31.0686 15.8697C30.9609 15.4055 30.6802 14.9997 30.2836 14.7347C29.887 14.4697 29.4042 14.3653 28.9334 14.4429C28.3256 14.5085 27.7179 14.5851 27.1102 14.6671C27.0399 14.6821 26.9667 14.6755 26.9003 14.6482C26.8338 14.6208 26.7772 14.5741 26.7379 14.514C26.3729 14.022 25.9842 13.5409 25.5717 13.0708C25.5185 13.0221 25.4819 12.9578 25.4672 12.8872C25.4524 12.8166 25.4603 12.7431 25.4896 12.6772C25.6976 12.0923 25.9057 11.5073 26.1028 10.9224C26.2518 10.514 26.2522 10.0663 26.1041 9.65761C25.956 9.24891 25.6687 8.90518 25.2925 8.68654C24.4767 8.21641 23.65 7.76814 22.8068 7.33627C22.4483 7.14907 22.037 7.08824 21.6395 7.16365C21.242 7.23906 20.8816 7.44628 20.6168 7.75174C20.1569 8.29841 19.7354 8.84507 19.3028 9.39174C19.2624 9.45184 19.2046 9.49817 19.1371 9.52455C19.0696 9.55093 18.9956 9.55609 18.9251 9.53934C18.3392 9.46827 17.7425 9.41361 17.1512 9.36987C17.0834 9.37153 17.0167 9.35255 16.96 9.31544C16.9032 9.27833 16.8592 9.22486 16.8336 9.16214C16.5489 8.54441 16.2861 7.93214 15.9467 7.33627C15.766 6.98746 15.4743 6.7085 15.1175 6.54325C14.7607 6.37799 14.3591 6.33581 13.9757 6.42334C13.034 6.65841 12.0923 6.92627 11.167 7.23787C10.7511 7.37695 10.3998 7.6619 10.1783 8.03987C9.95685 8.41785 9.88016 8.8632 9.96249 9.29334C10.0282 9.93294 10.1158 10.5725 10.1815 11.2121C10.1833 11.2607 10.1751 11.3091 10.1571 11.3543C10.1392 11.3995 10.1121 11.4404 10.0775 11.4745C9.59566 11.8845 9.10291 12.2891 8.60469 12.6827C8.51979 12.7353 8.41839 12.7548 8.31999 12.7373C7.73416 12.546 7.14834 12.3383 6.56251 12.1305C6.15866 11.9677 5.71031 11.9518 5.29594 12.0858C4.88156 12.2197 4.52755 12.4948 4.29586 12.8631C3.80311 13.7049 3.33226 14.5741 2.88879 15.4488C2.71957 15.7939 2.66811 16.1849 2.74225 16.5619C2.81639 16.939 3.01207 17.2815 3.29941 17.5371C3.84691 18.0072 4.39441 18.4445 4.98024 18.8873C5.03718 18.9239 5.08142 18.9771 5.1069 19.0398C5.13238 19.1024 5.13786 19.1713 5.12259 19.2372C5.04594 19.8385 4.99118 20.4344 4.94738 21.0357C4.9489 21.0999 4.93015 21.163 4.8938 21.216C4.85744 21.2689 4.80532 21.3092 4.74481 21.3309C4.19731 21.5988 3.61149 21.8776 3.04756 22.1509C2.62792 22.3399 2.29357 22.6778 2.10943 23.099C1.92529 23.5203 1.90451 23.9948 2.05111 24.4305C2.28106 25.2396 2.51649 26.0705 2.76834 26.8523C2.88071 27.3122 3.16511 27.7118 3.56319 27.9689C3.96127 28.2261 4.44283 28.3214 4.90906 28.2353C5.53321 28.1643 6.15736 28.0932 6.78151 28.0112C6.83994 27.9981 6.90102 28.0037 6.95607 28.0273C7.01112 28.0508 7.05732 28.0911 7.08811 28.1424C7.43851 28.5907 7.78891 29.0389 8.18311 29.4653C8.24307 29.5249 8.28313 29.6015 8.29783 29.6847C8.31253 29.7679 8.30115 29.8535 8.26524 29.93C8.05171 30.504 7.85461 31.0835 7.66299 31.6629C7.51097 32.0551 7.5005 32.4879 7.63339 32.887C7.76627 33.286 8.03421 33.6264 8.39116 33.8496C9.24526 34.3525 10.1158 34.8263 11.0027 35.2709C11.3526 35.4392 11.7479 35.4887 12.1285 35.4117C12.5091 35.3347 12.854 35.1355 13.1106 34.8445C13.5596 34.3252 13.9702 33.7785 14.3918 33.2373C14.4354 33.1697 14.4985 33.1168 14.5727 33.0856C14.647 33.0544 14.7289 33.0463 14.8079 33.0624C15.3937 33.1444 15.9905 33.2045 16.5818 33.2537C16.6461 33.2522 16.7092 33.2709 16.7623 33.3072C16.8153 33.3435 16.8556 33.3956 16.8774 33.456C17.1457 34.0027 17.4249 34.5821 17.6987 35.1452C17.8871 35.5445 18.2056 35.8683 18.602 36.0636C18.9646 36.2576 19.3882 36.3046 19.7846 36.1948C20.6442 35.9652 21.5038 35.7083 22.3579 35.4568C22.8363 35.3516 23.2549 35.0644 23.5247 34.6562C23.7946 34.2479 23.8945 33.7507 23.8033 33.2701C23.7376 32.6633 23.6609 32.0565 23.5843 31.4497C23.5701 31.3876 23.5757 31.3227 23.6002 31.2639C23.6247 31.2051 23.667 31.1554 23.7212 31.1217C24.1975 30.7555 24.6683 30.3783 25.1282 29.9901C25.1788 29.9376 25.2447 29.9024 25.3165 29.8897C25.3883 29.8769 25.4623 29.8872 25.5279 29.9191L27.2799 30.5313C27.6866 30.6859 28.1348 30.6928 28.5461 30.5509C28.9574 30.409 29.3057 30.1273 29.5301 29.7551C29.99 28.9351 30.439 28.0932 30.877 27.2295ZM13.7621 27.0272C12.6297 26.4092 11.7061 25.4698 11.1082 24.3278C10.5104 23.1858 10.265 21.8925 10.4033 20.6113C10.5415 19.33 11.0571 18.1185 11.8848 17.1299C12.7125 16.1412 13.8153 15.4198 15.0536 15.0568C16.2919 14.6938 17.6102 14.7055 18.8419 15.0906C20.0735 15.4756 21.1631 16.2166 21.9731 17.2199C22.783 18.2231 23.2768 19.4437 23.392 20.7271C23.5073 22.0106 23.2389 23.2994 22.6207 24.4305C21.7891 25.9461 20.3896 27.0705 18.729 27.5572C17.0684 28.044 15.2822 27.8534 13.7621 27.0272Z" fill="#FFBC0E" stroke="#093F68" stroke-width="2" stroke-linecap="round" stroke-linejoin="round"/>
<path d="M82.0135 9.65416H45.8785C45.7333 9.65416 45.594 9.59656 45.4914 9.49404C45.3887 9.39152 45.331 9.25247 45.331 9.10749C45.331 8.9625 45.3887 8.82346 45.4914 8.72094C45.594 8.61842 45.7333 8.56082 45.8785 8.56082H82.0135C82.1587 8.56082 82.298 8.61842 82.4006 8.72094C82.5033 8.82346 82.561 8.9625 82.561 9.10749C82.561 9.25247 82.5033 9.39152 82.4006 9.49404C82.298 9.59656 82.1587 9.65416 82.0135 9.65416Z" fill="#DFEAEF"/>
<path d="M93.9982 16.2962H45.8566C45.7114 16.2962 45.5721 16.2386 45.4694 16.136C45.3668 16.0335 45.3091 15.8945 45.3091 15.7495C45.3091 15.6045 45.3668 15.4655 45.4694 15.3629C45.5721 15.2604 45.7114 15.2028 45.8566 15.2028H93.9982C94.1434 15.2028 94.2827 15.2604 94.3854 15.3629C94.4881 15.4655 94.5457 15.6045 94.5457 15.7495C94.5457 15.8945 94.4881 16.0335 94.3854 16.136C94.2827 16.2386 94.1434 16.2962 93.9982 16.2962Z" fill="#DFEAEF"/>
<path d="M93.9982 22.96H49.8095C49.6643 22.96 49.5251 22.9024 49.4224 22.7999C49.3197 22.6974 49.262 22.5583 49.262 22.4133C49.262 22.2684 49.3197 22.1293 49.4224 22.0268C49.5251 21.9243 49.6643 21.8667 49.8095 21.8667H93.9982C94.1434 21.8667 94.2827 21.9243 94.3854 22.0268C94.4881 22.1293 94.5457 22.2684 94.5457 22.4133C94.5457 22.5583 94.4881 22.6974 94.3854 22.7999C94.2827 22.9024 94.1434 22.96 93.9982 22.96Z" fill="#DFEAEF"/>
<path d="M83.6177 29.5801H45.8402C45.695 29.5801 45.5557 29.5226 45.453 29.42C45.3503 29.3175 45.2927 29.1785 45.2927 29.0335C45.2927 28.8885 45.3503 28.7495 45.453 28.6469C45.5557 28.5444 45.695 28.4868 45.8402 28.4868H83.6177C83.7629 28.4868 83.9021 28.5444 84.0048 28.6469C84.1075 28.7495 84.1652 28.8885 84.1652 29.0335C84.1652 29.1785 84.1075 29.3175 84.0048 29.42C83.9021 29.5226 83.7629 29.5801 83.6177 29.5801Z" fill="#DFEAEF"/>
</svg>
