<svg width="83" height="87" viewBox="0 0 83 87" fill="none" xmlns="http://www.w3.org/2000/svg">
<path d="M66.1809 34.4938C65.8315 34.4943 65.4913 34.3814 65.2118 34.1721C64.9322 33.9629 64.7283 33.6687 64.6309 33.3338L59.8375 16.3669C59.5493 15.2899 58.9187 14.3353 58.0404 13.6465C57.1621 12.9576 56.0835 12.5717 54.9667 12.5466H29.9458C28.8266 12.5675 27.7446 12.9511 26.8631 13.6396C25.9816 14.328 25.3485 15.284 25.0594 16.363L20.2815 33.3184C20.1504 33.7103 19.8731 34.0369 19.5072 34.2303C19.1412 34.4238 18.7147 34.4693 18.3161 34.3574C17.9174 34.2455 17.5772 33.9849 17.366 33.6294C17.1547 33.274 17.0887 32.8511 17.1815 32.4484L21.9594 15.493C22.4411 13.7413 23.4807 12.1934 24.9213 11.083C26.362 9.97254 28.1255 9.35983 29.9458 9.33731H54.9667C56.7846 9.36403 58.5447 9.97906 59.9821 11.0899C61.4196 12.2007 62.4568 13.7473 62.9375 15.4969L67.7154 32.4522C67.8298 32.8624 67.7766 33.3012 67.5675 33.6723C67.3583 34.0434 67.0101 34.3166 66.5994 34.432C66.4635 34.4719 66.3226 34.4927 66.1809 34.4938Z" fill="white"/>
<path d="M66.1809 34.8805C65.7431 34.8827 65.3166 34.7417 64.9667 34.4792C64.6168 34.2166 64.3628 33.8469 64.2434 33.4266L59.4771 16.4713C59.2122 15.4729 58.6288 14.5876 57.8151 13.9493C57.0013 13.311 56.0015 12.9544 54.9666 12.9333H29.9457C28.9109 12.9539 27.9108 13.3098 27.0965 13.9474C26.2821 14.5849 25.6977 15.4694 25.4314 16.4675L20.6535 33.4266C20.4969 33.9204 20.154 34.334 19.6973 34.5801C19.2407 34.8262 18.706 34.8855 18.2063 34.7454C17.7067 34.6053 17.2812 34.2768 17.0198 33.8294C16.7584 33.382 16.6816 32.8507 16.8056 32.3479L21.5873 15.3925C22.0899 13.5584 23.1776 11.9375 24.6857 10.7752C26.1938 9.61288 28.0403 8.97239 29.9457 8.95065H54.9666C56.8717 8.97366 58.7176 9.61462 60.2255 10.7767C61.7333 11.9389 62.8213 13.559 63.325 15.3925L68.1029 32.3479C68.1752 32.599 68.1968 32.8621 68.1662 33.1217C68.1356 33.3813 68.0534 33.6321 67.9246 33.8597C67.7495 34.1678 67.4962 34.4244 67.19 34.6036C66.8839 34.7828 66.5358 34.8783 66.1809 34.8805ZM29.9457 12.16H54.9666C56.1707 12.1813 57.335 12.5932 58.2837 13.3333C59.2324 14.0735 59.9138 15.1017 60.225 16.2625L65.0029 33.2178C65.0948 33.5273 65.3043 33.7886 65.5867 33.9461C65.869 34.1035 66.2018 34.1447 66.5141 34.0608C66.8251 33.9716 67.0882 33.7636 67.2463 33.482C67.4045 33.2004 67.4449 32.8678 67.3589 32.5566L62.5771 15.6013C62.1203 13.9299 61.1305 12.4523 59.7574 11.3919C58.3844 10.3316 56.7027 9.74607 54.9666 9.72399H29.9457C28.2093 9.7465 26.5273 10.3321 25.1538 11.3923C23.7802 12.4525 22.7895 13.9299 22.3314 15.6013L17.5535 32.5566C17.5088 32.7103 17.4958 32.8714 17.5151 33.0302C17.5344 33.189 17.5857 33.3422 17.6659 33.4808C17.7432 33.6211 17.8478 33.7447 17.9736 33.8443C18.0993 33.9439 18.2437 34.0175 18.3982 34.0608C18.7101 34.1477 19.0438 34.1079 19.3263 33.9499C19.6088 33.7919 19.8171 33.5287 19.9056 33.2178L24.6874 16.2625C24.9985 15.1017 25.68 14.0735 26.6286 13.3333C27.5773 12.5932 28.7417 12.1813 29.9457 12.16Z" fill="#093F68"/>
<path d="M63.2863 69.3867H21.6262C20.8252 69.3865 20.0517 69.0952 19.4504 68.5671C18.8491 68.039 18.4613 67.3104 18.3596 66.5176L14.4846 36.0637H70.4124L66.5374 66.5176C66.4376 67.3084 66.0525 68.0359 65.4541 68.5639C64.8558 69.092 64.0851 69.3844 63.2863 69.3867Z" fill="#FD985B"/>
<path d="M63.2863 69.7733H21.6223C20.728 69.7721 19.8647 69.4462 19.1937 68.8563C18.5227 68.2664 18.0898 67.4529 17.9759 66.5679L14.1125 36.1333C14.1064 36.0791 14.1119 36.0242 14.1286 35.9722C14.1453 35.9202 14.1728 35.8723 14.2094 35.8317C14.2457 35.7905 14.2904 35.7574 14.3405 35.7348C14.3906 35.7121 14.445 35.7003 14.5 35.7003H70.4124C70.4674 35.7003 70.5218 35.7121 70.5719 35.7348C70.622 35.7574 70.6667 35.7905 70.703 35.8317C70.7389 35.8726 70.7657 35.9207 70.7818 35.9726C70.7978 36.0246 70.8026 36.0794 70.796 36.1333L66.921 66.5911C66.803 67.4703 66.3698 68.2771 65.7015 68.8621C65.0333 69.4472 64.1753 69.7709 63.2863 69.7733ZM14.9379 36.4659L18.7625 66.4828C18.8511 67.1817 19.1919 67.8243 19.7212 68.2905C20.2504 68.7567 20.9318 69.0144 21.6378 69.0154H63.2863C63.9927 69.0145 64.6745 68.757 65.2044 68.2908C65.7343 67.8247 66.0759 67.182 66.1654 66.4828L69.9706 36.4659H14.9379Z" fill="#093F68"/>
<path d="M70.827 32.0811H14.0854C12.2899 32.0811 10.8343 33.5335 10.8343 35.3252V35.6075C10.8343 37.3991 12.2899 38.8516 14.0854 38.8516H70.827C72.6226 38.8516 74.0782 37.3991 74.0782 35.6075V35.3252C74.0782 33.5335 72.6226 32.0811 70.827 32.0811Z" fill="#FD985B"/>
<path d="M70.8232 39.2266H14.0854C13.1203 39.2246 12.1954 38.8409 11.5134 38.1596C10.8314 37.4783 10.4478 36.555 10.4468 35.592V35.3174C10.4478 34.3545 10.8314 33.4311 11.5134 32.7498C12.1954 32.0685 13.1203 31.6848 14.0854 31.6828H70.8232C71.7889 31.6838 72.7148 32.0671 73.3976 32.7485C74.0805 33.4299 74.4646 34.3538 74.4656 35.3174V35.592C74.4646 36.5556 74.0805 37.4795 73.3976 38.1609C72.7148 38.8424 71.7889 39.2256 70.8232 39.2266ZM14.0854 32.4677C13.3259 32.4698 12.5981 32.772 12.0614 33.3083C11.5247 33.8445 11.2228 34.5712 11.2218 35.329V35.6036C11.2228 36.3615 11.5247 37.0881 12.0614 37.6244C12.5981 38.1606 13.3259 38.4629 14.0854 38.4649H70.8232C71.5833 38.4639 72.3121 38.1621 72.8496 37.6257C73.3872 37.0893 73.6896 36.3621 73.6906 35.6036V35.329C73.6896 34.5705 73.3872 33.8433 72.8496 33.3069C72.3121 32.7705 71.5833 32.4687 70.8232 32.4677H14.0854Z" fill="#093F68"/>
<path d="M26.3498 41.276H26.3459C24.9591 41.276 23.8349 42.3978 23.8349 43.7816V62.3725C23.8349 63.7563 24.9591 64.8781 26.3459 64.8781H26.3498C27.7366 64.8781 28.8608 63.7563 28.8608 62.3725V43.7816C28.8608 42.3978 27.7366 41.276 26.3498 41.276Z" fill="#093F68"/>
<path d="M26.3498 65.2648C25.5807 65.2648 24.843 64.9602 24.2988 64.4179C23.7547 63.8756 23.4484 63.14 23.4474 62.3725V43.7854C23.4474 43.0163 23.7536 42.2787 24.2986 41.7348C24.8436 41.191 25.5829 40.8854 26.3536 40.8854C27.1244 40.8854 27.8636 41.191 28.4087 41.7348C28.9537 42.2787 29.2599 43.0163 29.2599 43.7854V62.3725C29.2594 62.7532 29.1837 63.13 29.0371 63.4814C28.8905 63.8329 28.676 64.152 28.4057 64.4206C28.1354 64.6893 27.8147 64.9021 27.4619 65.0469C27.1092 65.1918 26.7312 65.2658 26.3498 65.2648ZM26.3498 41.6781C26.0704 41.6781 25.7938 41.733 25.5357 41.8397C25.2775 41.9464 25.043 42.1027 24.8455 42.2999C24.6479 42.497 24.4912 42.731 24.3843 42.9885C24.2774 43.2461 24.2224 43.5221 24.2224 43.8009V62.388C24.2224 62.952 24.4469 63.4929 24.8466 63.8918C25.2463 64.2906 25.7884 64.5147 26.3536 64.5147C26.9189 64.5147 27.461 64.2906 27.8607 63.8918C28.2603 63.4929 28.4849 62.952 28.4849 62.388V43.7854C28.4849 43.506 28.4296 43.2293 28.3222 42.9713C28.2148 42.7132 28.0574 42.4789 27.8591 42.2817C27.6607 42.0844 27.4253 41.9282 27.1663 41.822C26.9073 41.7158 26.6298 41.6616 26.3498 41.6626V41.6781Z" fill="#093F68"/>
<path d="M37.0874 41.276H37.0835C35.6967 41.276 34.5725 42.3978 34.5725 43.7816V62.3725C34.5725 63.7563 35.6967 64.8781 37.0835 64.8781H37.0874C38.4742 64.8781 39.5984 63.7563 39.5984 62.3725V43.7816C39.5984 42.3978 38.4742 41.276 37.0874 41.276Z" fill="#093F68"/>
<path d="M37.0874 65.2648C36.3183 65.2648 35.5806 64.9602 35.0365 64.4179C34.4923 63.8756 34.186 63.14 34.185 62.3725V43.7854C34.185 43.0163 34.4912 42.2787 35.0362 41.7348C35.5812 41.191 36.3205 40.8854 37.0913 40.8854C37.862 40.8854 38.6013 41.191 39.1463 41.7348C39.6913 42.2787 39.9975 43.0163 39.9975 43.7854V62.3725C39.997 62.7532 39.9213 63.13 39.7747 63.4814C39.6282 63.8329 39.4136 64.152 39.1433 64.4206C38.873 64.6893 38.5523 64.9021 38.1996 65.0469C37.8468 65.1918 37.4688 65.2658 37.0874 65.2648ZM37.0874 41.6781C36.808 41.6781 36.5314 41.733 36.2733 41.8397C36.0152 41.9464 35.7806 42.1027 35.5831 42.2999C35.3855 42.497 35.2288 42.731 35.1219 42.9885C35.015 43.2461 34.96 43.5221 34.96 43.8009V62.388C34.96 62.952 35.1845 63.4929 35.5842 63.8918C35.9839 64.2906 36.526 64.5147 37.0913 64.5147C37.6565 64.5147 38.1986 64.2906 38.5983 63.8918C38.998 63.4929 39.2225 62.952 39.2225 62.388V43.7854C39.2225 43.506 39.1672 43.2293 39.0598 42.9713C38.9524 42.7132 38.795 42.4789 38.5967 42.2817C38.3983 42.0844 38.1629 41.9282 37.9039 41.822C37.6449 41.7158 37.3674 41.6616 37.0874 41.6626V41.6781Z" fill="#093F68"/>
<path d="M47.8289 41.276H47.825C46.4382 41.276 45.314 42.3978 45.314 43.7816V62.3725C45.314 63.7563 46.4382 64.8781 47.825 64.8781H47.8289C49.2157 64.8781 50.3399 63.7563 50.3399 62.3725V43.7816C50.3399 42.3978 49.2157 41.276 47.8289 41.276Z" fill="#093F68"/>
<path d="M47.825 65.2648C47.0563 65.2648 46.319 64.9601 45.7755 64.4177C45.2319 63.8753 44.9265 63.1396 44.9265 62.3725V43.7854C44.9265 43.0163 45.2327 42.2787 45.7777 41.7348C46.3228 41.191 47.062 40.8854 47.8328 40.8854C48.6035 40.8854 49.3428 41.191 49.8878 41.7348C50.4328 42.2787 50.739 43.0163 50.739 43.7854V62.3725C50.7385 62.7535 50.6627 63.1306 50.5159 63.4823C50.369 63.834 50.1541 64.1533 49.8834 64.422C49.6128 64.6907 49.2916 64.9034 48.9384 65.048C48.5852 65.1927 48.2068 65.2663 47.825 65.2648ZM47.825 41.6781C47.2615 41.6791 46.7214 41.9032 46.3232 42.3012C45.9251 42.6992 45.7015 43.2386 45.7015 43.8009V62.388C45.7015 62.952 45.9261 63.4929 46.3257 63.8918C46.7254 64.2906 47.2675 64.5147 47.8328 64.5147C48.398 64.5147 48.9401 64.2906 49.3398 63.8918C49.7395 63.4929 49.964 62.952 49.964 62.388V43.7854C49.964 43.5057 49.9086 43.2287 49.801 42.9704C49.6933 42.7121 49.5356 42.4776 49.3368 42.2803C49.138 42.083 48.9021 41.9269 48.6427 41.8209C48.3832 41.7149 48.1054 41.6611 47.825 41.6626V41.6781Z" fill="#093F68"/>
<path d="M58.5665 41.276H58.5626C57.1759 41.276 56.0516 42.3978 56.0516 43.7816V62.3725C56.0516 63.7563 57.1759 64.8781 58.5626 64.8781H58.5665C59.9533 64.8781 61.0775 63.7563 61.0775 62.3725V43.7816C61.0775 42.3978 59.9533 41.276 58.5665 41.276Z" fill="#093F68"/>
<path d="M58.5626 65.2648C57.7939 65.2648 57.0567 64.9601 56.5131 64.4177C55.9695 63.8753 55.6641 63.1396 55.6641 62.3725V43.7854C55.6641 43.0163 55.9703 42.2787 56.5153 41.7348C57.0604 41.191 57.7996 40.8854 58.5704 40.8854C59.3412 40.8854 60.0804 41.191 60.6254 41.7348C61.1704 42.2787 61.4766 43.0163 61.4766 43.7854V62.3725C61.4766 62.7536 61.4012 63.131 61.2545 63.4829C61.1079 63.8348 60.893 64.1544 60.6222 64.4231C60.3514 64.6919 60.0301 64.9046 59.6766 65.0491C59.3231 65.1935 58.9446 65.2668 58.5626 65.2648ZM58.5626 41.6781C57.9991 41.6791 57.459 41.9032 57.0608 42.3012C56.6627 42.6992 56.4391 43.2386 56.4391 43.8009V62.388C56.4391 62.952 56.6637 63.4929 57.0634 63.8918C57.463 64.2906 58.0051 64.5147 58.5704 64.5147C59.1356 64.5147 59.6777 64.2906 60.0774 63.8918C60.4771 63.4929 60.7016 62.952 60.7016 62.388V43.7854C60.7016 43.5057 60.6462 43.2287 60.5386 42.9704C60.431 42.7121 60.2732 42.4776 60.0744 42.2803C59.8757 42.083 59.6398 41.9269 59.3803 41.8209C59.1209 41.7149 58.843 41.6611 58.5626 41.6626V41.6781Z" fill="#093F68"/>
<path d="M49.9872 8.18118H34.9251C33.3821 8.18118 32.1312 9.42935 32.1312 10.969V10.9729C32.1312 12.5126 33.3821 13.7608 34.9251 13.7608H49.9872C51.5303 13.7608 52.7811 12.5126 52.7811 10.9729V10.969C52.7811 9.42935 51.5303 8.18118 49.9872 8.18118Z" fill="#FD985B"/>
<path d="M49.9834 14.1475H34.9252C34.1001 14.1187 33.3185 13.7715 32.745 13.1789C32.1715 12.5864 31.851 11.7948 31.851 10.971C31.851 10.1472 32.1715 9.35562 32.745 8.76305C33.3185 8.17049 34.1001 7.82325 34.9252 7.79452H49.9834C50.4108 7.77964 50.8368 7.85078 51.2361 8.00372C51.6353 8.15665 51.9996 8.38824 52.3072 8.68467C52.6148 8.9811 52.8595 9.33631 53.0266 9.72911C53.1936 10.1219 53.2798 10.5443 53.2798 10.971C53.2798 11.3977 53.1936 11.8201 53.0266 12.2129C52.8595 12.6057 52.6148 12.9609 52.3072 13.2573C51.9996 13.5537 51.6353 13.7853 51.2361 13.9383C50.8368 14.0912 50.4108 14.1623 49.9834 14.1475ZM34.9252 8.56785C34.3032 8.59276 33.7149 8.85683 33.2837 9.30478C32.8524 9.75274 32.6116 10.3498 32.6116 10.971C32.6116 11.5922 32.8524 12.1892 33.2837 12.6372C33.7149 13.0851 34.3032 13.3492 34.9252 13.3741H49.9834C50.3078 13.3871 50.6315 13.3346 50.935 13.2197C51.2386 13.1047 51.5157 12.9298 51.7498 12.7054C51.984 12.4809 52.1702 12.2116 52.2975 11.9136C52.4247 11.6156 52.4903 11.2949 52.4903 10.971C52.4903 10.647 52.4247 10.3264 52.2975 10.0284C52.1702 9.73034 51.984 9.46103 51.7498 9.2366C51.5157 9.01216 51.2386 8.83724 50.935 8.72232C50.6315 8.60741 50.3078 8.55487 49.9834 8.56785H34.9252Z" fill="#093F68"/>
<path d="M66.3631 71.8149C73.9861 71.8149 80.1658 65.6485 80.1658 58.0419C80.1658 50.4352 73.9861 44.2688 66.3631 44.2688C58.74 44.2688 52.5603 50.4352 52.5603 58.0419C52.5603 65.6485 58.74 71.8149 66.3631 71.8149Z" fill="white"/>
<path d="M66.363 72.2054C63.5555 72.2062 60.8109 71.3762 58.4762 69.8203C56.1414 68.2645 54.3215 66.0527 53.2466 63.4647C52.1717 60.8767 51.8901 58.0288 52.4373 55.281C52.9846 52.5333 54.3361 50.0092 56.321 48.028C58.306 46.0468 60.8351 44.6975 63.5886 44.1507C66.3421 43.6039 69.1963 43.8841 71.7901 44.956C74.384 46.0279 76.601 47.8433 78.1609 50.1726C79.7207 52.5018 80.5533 55.2404 80.5533 58.0418C80.5492 61.7963 79.053 65.3959 76.3928 68.0511C73.7326 70.7063 70.1256 72.2003 66.363 72.2054ZM66.363 44.6554C63.7087 44.6547 61.1137 45.4394 58.9063 46.9105C56.699 48.3815 54.9784 50.4728 53.9623 52.9197C52.9461 55.3666 52.68 58.0592 53.1977 60.6571C53.7154 63.2549 54.9935 65.6412 56.8704 67.5141C58.7473 69.3869 61.1388 70.6623 63.7422 71.1789C66.3456 71.6954 69.0441 71.4299 71.4962 70.416C73.9484 69.402 76.0442 67.6851 77.5184 65.4825C78.9926 63.2799 79.7791 60.6905 79.7783 58.0418C79.7783 54.4901 78.3654 51.0836 75.85 48.5708C73.3346 46.0579 69.9224 44.6441 66.363 44.64V44.6554Z" fill="#093F68"/>
<path d="M62.6702 65.3808L57.1754 59.3333C56.9727 59.1102 56.8669 58.8159 56.8814 58.515C56.896 58.2141 57.0296 57.9313 57.2529 57.7287L58.7797 56.3444C59.0033 56.1421 59.2982 56.0365 59.5998 56.051C59.9013 56.0655 60.1847 56.1989 60.3878 56.4217L63.697 60.0564L72.811 51.6C73.0322 51.3952 73.3256 51.2863 73.6271 51.2972C73.9286 51.3081 74.2134 51.4378 74.4191 51.658L75.8219 53.166C75.924 53.275 76.0035 53.4031 76.0558 53.5428C76.1081 53.6826 76.1323 53.8313 76.1269 53.9804C76.1215 54.1295 76.0867 54.276 76.0243 54.4117C75.962 54.5473 75.8735 54.6693 75.7638 54.7706L64.2705 65.4349C64.1622 65.5368 64.0347 65.6162 63.8954 65.6687C63.7561 65.7211 63.6078 65.7456 63.459 65.7405C63.3103 65.7355 63.1639 65.7011 63.0286 65.6394C62.8932 65.5776 62.7713 65.4897 62.6702 65.3808Z" fill="#70CC40"/>
<path d="M63.5033 66.1348H63.4374C63.2377 66.1278 63.0414 66.0807 62.8603 65.9963C62.6793 65.9119 62.5171 65.792 62.3834 65.6437L56.8887 59.604C56.7538 59.4561 56.6495 59.2831 56.5817 59.095C56.514 58.9068 56.4841 58.7071 56.4938 58.5074C56.5035 58.3077 56.5526 58.1118 56.6384 57.9311C56.7241 57.7503 56.8447 57.5883 56.9933 57.4541L58.5201 56.0699C58.8193 55.7985 59.2142 55.6567 59.6181 55.6755C60.0221 55.6944 60.402 55.8724 60.6746 56.1704L63.7203 59.5151L72.5476 51.3293C72.694 51.1931 72.866 51.0869 73.0536 51.0171C73.2412 50.9472 73.4408 50.9149 73.6409 50.9221C73.841 50.9293 74.0377 50.9758 74.2198 51.0589C74.4019 51.1421 74.5658 51.2602 74.7021 51.4067L76.1087 52.9147C76.245 53.061 76.3511 53.2328 76.4208 53.4202C76.4905 53.6075 76.5225 53.8067 76.5149 54.0064C76.5073 54.2061 76.4604 54.4024 76.3767 54.5839C76.293 54.7655 76.1743 54.9288 76.0273 55.0645L64.5341 65.7288C64.2548 65.9901 63.8862 66.1354 63.5033 66.1348ZM59.5469 56.4488C59.3605 56.4473 59.1805 56.5164 59.0432 56.6421L57.5126 58.0264C57.3677 58.1616 57.2804 58.347 57.2684 58.5445C57.2638 58.6424 57.2785 58.7403 57.3117 58.8325C57.345 58.9247 57.3961 59.0095 57.4622 59.082L62.9569 65.1333C63.0897 65.2793 63.275 65.3668 63.4723 65.3769C63.5695 65.3813 63.6666 65.3661 63.7579 65.3322C63.8491 65.2984 63.9325 65.2465 64.0032 65.1797L75.5003 54.5155C75.6461 54.38 75.7321 54.1924 75.7394 53.9937C75.7466 53.7951 75.6746 53.6017 75.5391 53.456L74.1363 51.948C73.9976 51.8078 73.8104 51.7257 73.6131 51.7185C73.4158 51.7114 73.2232 51.7796 73.0746 51.9093L63.9606 60.3657C63.923 60.4005 63.879 60.4275 63.8309 60.4452C63.7828 60.4628 63.7317 60.4708 63.6806 60.4686C63.6294 60.4665 63.5792 60.4542 63.5328 60.4326C63.4864 60.4109 63.4448 60.3803 63.4103 60.3425L60.1011 56.7079C60.0322 56.6281 59.9473 56.5638 59.8518 56.5192C59.7563 56.4745 59.6524 56.4505 59.5469 56.4488Z" fill="#093F68"/>
</svg>
