<svg width="95" height="44" viewBox="0 0 95 44" fill="none" xmlns="http://www.w3.org/2000/svg">
<path d="M92.3443 39.9772H2.65572C1.69454 39.9772 0.915344 40.7785 0.915344 41.7669V41.7983C0.915344 42.7867 1.69454 43.588 2.65572 43.588H92.3443C93.3055 43.588 94.0847 42.7867 94.0847 41.7983V41.7669C94.0847 40.7785 93.3055 39.9772 92.3443 39.9772Z" fill="white"/>
<path d="M92.3443 43.9813H2.65569C2.08861 43.9813 1.54476 43.7497 1.14378 43.3373C0.742789 42.925 0.517517 42.3657 0.517517 41.7826C0.517517 41.1995 0.742789 40.6402 1.14378 40.2279C1.54476 39.8155 2.08861 39.5839 2.65569 39.5839H92.3443C92.9114 39.5839 93.4552 39.8155 93.8562 40.2279C94.2572 40.6402 94.4825 41.1995 94.4825 41.7826C94.4825 42.3657 94.2572 42.925 93.8562 43.3373C93.4552 43.7497 92.9114 43.9813 92.3443 43.9813ZM2.65569 40.3705C2.29151 40.3705 1.94223 40.5193 1.68471 40.7841C1.42719 41.0489 1.28252 41.4081 1.28252 41.7826C1.28252 42.1571 1.42719 42.5163 1.68471 42.7811C1.94223 43.0459 2.29151 43.1947 2.65569 43.1947H92.3443C92.7085 43.1947 93.0578 43.0459 93.3153 42.7811C93.5728 42.5163 93.7175 42.1571 93.7175 41.7826C93.7175 41.4081 93.5728 41.0489 93.3153 40.7841C93.0578 40.5193 92.7085 40.3705 92.3443 40.3705H2.65569Z" fill="#093F68"/>
<path d="M64.1119 3.46014V28.7829C64.1119 29.3682 63.8859 29.9294 63.4834 30.3432C63.081 30.7571 62.5352 30.9895 61.9661 30.9895H26.4625C26.1807 30.9895 25.9016 30.9325 25.6413 30.8216C25.381 30.7107 25.1444 30.5481 24.9451 30.3432C24.7459 30.1383 24.5878 29.8951 24.48 29.6274C24.3722 29.3597 24.3167 29.0727 24.3167 28.7829V3.46014C24.3167 3.17037 24.3722 2.88343 24.48 2.61571C24.5878 2.348 24.7459 2.10474 24.9451 1.89984C25.1444 1.69494 25.381 1.5324 25.6413 1.42151C25.9016 1.31062 26.1807 1.25354 26.4625 1.25354H61.9738C62.5415 1.25562 63.0854 1.48902 63.4862 1.90261C63.8869 2.31621 64.1119 2.87627 64.1119 3.46014Z" fill="#FD985B"/>
<path d="M61.9661 31.3829H26.4625C26.1174 31.3816 25.7761 31.3085 25.4592 31.1678C25.1423 31.0272 24.8565 30.8221 24.6188 30.5647C24.178 30.0823 23.9331 29.4449 23.9341 28.7829V3.46013C23.9352 2.77091 24.2019 2.11021 24.6758 1.62285C25.1497 1.1355 25.7922 0.861239 26.4625 0.860199H61.9738C62.6443 0.860199 63.2874 1.13412 63.7616 1.6217C64.2357 2.10929 64.5021 2.77059 64.5021 3.46013V28.7829C64.5021 29.125 64.4364 29.4638 64.3089 29.7797C64.1814 30.0957 63.9945 30.3826 63.7589 30.6242C63.5233 30.8657 63.2437 31.057 62.936 31.1872C62.6284 31.3174 62.2988 31.3839 61.9661 31.3829ZM26.4625 1.64687C25.9951 1.6479 25.5472 1.83928 25.2167 2.17911C24.8863 2.51894 24.7002 2.97954 24.6991 3.46013V28.7829C24.697 29.2439 24.8684 29.6879 25.1773 30.0219C25.3422 30.2025 25.5413 30.3466 25.7623 30.4453C25.9833 30.5441 26.2215 30.5954 26.4625 30.5962H61.9738C62.2053 30.5962 62.4346 30.5493 62.6486 30.4582C62.8625 30.3671 63.0569 30.2335 63.2206 30.0651C63.3844 29.8967 63.5143 29.6968 63.6029 29.4768C63.6915 29.2568 63.7371 29.0211 63.7371 28.7829V3.46013C63.7371 2.97922 63.5513 2.51801 63.2206 2.17796C62.8899 1.83791 62.4414 1.64687 61.9738 1.64687H26.4625Z" fill="#093F68"/>
<path d="M61.9661 3.28314H26.4548V24.9165H61.9661V3.28314Z" fill="white"/>
<path d="M61.9662 25.3098H26.4625C26.3611 25.3098 26.2638 25.2684 26.192 25.1946C26.1203 25.1208 26.08 25.0208 26.08 24.9165V3.28313C26.08 3.17882 26.1203 3.07877 26.192 3.00501C26.2638 2.93124 26.3611 2.8898 26.4625 2.8898H61.9738C62.0752 2.8898 62.1725 2.93124 62.2443 3.00501C62.316 3.07877 62.3563 3.17882 62.3563 3.28313V24.9165C62.3563 24.9688 62.3462 25.0206 62.3265 25.0688C62.3068 25.1171 62.2779 25.1608 62.2416 25.1974C62.2052 25.234 62.1622 25.2629 62.1149 25.2822C62.0676 25.3015 62.017 25.3109 61.9662 25.3098ZM26.8374 24.5231H61.5837V3.67647H26.845L26.8374 24.5231Z" fill="#093F68"/>
<path d="M51.784 39.9772H36.637L38.2397 30.9895H50.1813L51.784 39.9772Z" fill="#FD985B"/>
<path d="M51.784 40.3705H36.637C36.5815 40.37 36.5267 40.3571 36.4765 40.3327C36.4263 40.3082 36.3819 40.2728 36.3463 40.2289C36.3101 40.1848 36.2838 40.133 36.2693 40.0773C36.2547 40.0216 36.2523 39.9632 36.2622 39.9064L37.8648 30.9187C37.8811 30.8271 37.9285 30.7444 37.9986 30.6853C38.0686 30.6263 38.1568 30.5947 38.2473 30.5962H50.1775C50.2681 30.5947 50.3562 30.6263 50.4263 30.6853C50.4963 30.7444 50.5437 30.8271 50.56 30.9187L52.1589 39.9064C52.1692 39.9629 52.1674 40.0211 52.1535 40.0768C52.1396 40.1326 52.114 40.1845 52.0785 40.2289C52.0426 40.2733 51.9975 40.309 51.9466 40.3335C51.8957 40.358 51.8402 40.3706 51.784 40.3705ZM37.096 39.5839H51.325L49.8639 31.3829H38.561L37.096 39.5839Z" fill="#093F68"/>
<path d="M43.9351 23.0914H31.4083C31.3068 23.0914 31.2095 23.05 31.1378 22.9762C31.0661 22.9024 31.0258 22.8024 31.0258 22.6981V12.7035C31.0258 12.5992 31.0661 12.4991 31.1378 12.4254C31.2095 12.3516 31.3068 12.3102 31.4083 12.3102H43.9351C44.0366 12.3102 44.1339 12.3516 44.2056 12.4254C44.2773 12.4991 44.3176 12.5992 44.3176 12.7035V22.6981C44.3176 22.8024 44.2773 22.9024 44.2056 22.9762C44.1339 23.05 44.0366 23.0914 43.9351 23.0914ZM31.7908 22.3047H43.5526V13.0968H31.7908V22.3047Z" fill="#DFEAEF"/>
<path d="M31.412 21.0539C31.33 21.0541 31.2501 21.0272 31.1841 20.9771C31.118 20.927 31.0694 20.8564 31.0454 20.7757C31.0214 20.695 31.0233 20.6085 31.0507 20.529C31.0782 20.4495 31.1297 20.3812 31.1978 20.3341L35.8796 17.1442C35.9588 17.0899 36.0547 17.0679 36.1488 17.0825C36.2428 17.097 36.3283 17.1471 36.3884 17.2229L37.8074 19.0086L41.3303 15.5276C41.4019 15.4543 41.4989 15.4132 41.5999 15.4132C41.701 15.4132 41.7979 15.4543 41.8696 15.5276C41.9054 15.5642 41.9339 15.6077 41.9533 15.6556C41.9727 15.7035 41.9827 15.7549 41.9827 15.8069C41.9827 15.8588 41.9727 15.9102 41.9533 15.9581C41.9339 16.0061 41.9054 16.0496 41.8696 16.0861L38.0446 19.8661C38.006 19.9036 37.9602 19.9324 37.9101 19.9506C37.8601 19.9689 37.8069 19.9763 37.7539 19.9723C37.7016 19.969 37.6505 19.9548 37.6038 19.9305C37.5571 19.9061 37.5157 19.8721 37.4823 19.8307L36.025 17.9977L31.6301 20.9871C31.5657 21.0316 31.4896 21.0549 31.412 21.0539Z" fill="#DFEAEF"/>
<path d="M41.927 17.982H41.904C41.8538 17.979 41.8046 17.9658 41.7593 17.9432C41.714 17.9206 41.6735 17.889 41.6401 17.8503C41.6067 17.8116 41.581 17.7664 41.5646 17.7175C41.5482 17.6685 41.5414 17.6167 41.5445 17.5651L41.6669 15.6456H39.7544C39.6529 15.6456 39.5557 15.6041 39.4839 15.5304C39.4122 15.4566 39.3719 15.3566 39.3719 15.2523C39.3719 15.1479 39.4122 15.0479 39.4839 14.9741C39.5557 14.9004 39.6529 14.8589 39.7544 14.8589H42.0494C42.1016 14.8588 42.1533 14.8697 42.2013 14.8909C42.2492 14.9122 42.2925 14.9433 42.3283 14.9823C42.3641 15.0214 42.3918 15.0676 42.4096 15.1181C42.4274 15.1686 42.435 15.2222 42.4319 15.2759L42.2865 17.6359C42.2758 17.7279 42.2339 17.813 42.1681 17.8763C42.1024 17.9397 42.017 17.9771 41.927 17.982Z" fill="#DFEAEF"/>
<path d="M57.0089 14.1942H47.1749C47.0734 14.1942 46.9761 14.1528 46.9044 14.079C46.8327 14.0052 46.7924 13.9052 46.7924 13.8009C46.7924 13.6965 46.8327 13.5965 46.9044 13.5227C46.9761 13.449 47.0734 13.4075 47.1749 13.4075H57.0089C57.1104 13.4075 57.2077 13.449 57.2794 13.5227C57.3512 13.5965 57.3914 13.6965 57.3914 13.8009C57.3914 13.9052 57.3512 14.0052 57.2794 14.079C57.2077 14.1528 57.1104 14.1942 57.0089 14.1942Z" fill="#DFEAEF"/>
<path d="M55.0391 16.4441H47.1749C47.0734 16.4441 46.9761 16.4026 46.9044 16.3289C46.8327 16.2551 46.7924 16.155 46.7924 16.0507C46.7924 15.9464 46.8327 15.8464 46.9044 15.7726C46.9761 15.6988 47.0734 15.6574 47.1749 15.6574H55.0391C55.1405 15.6574 55.2378 15.6988 55.3095 15.7726C55.3813 15.8464 55.4216 15.9464 55.4216 16.0507C55.4216 16.155 55.3813 16.2551 55.3095 16.3289C55.2378 16.4026 55.1405 16.4441 55.0391 16.4441Z" fill="#DFEAEF"/>
<path d="M57.0089 19.3154H47.1749C47.0734 19.3154 46.9761 19.274 46.9044 19.2002C46.8327 19.1264 46.7924 19.0264 46.7924 18.9221C46.7924 18.8177 46.8327 18.7177 46.9044 18.6439C46.9761 18.5702 47.0734 18.5287 47.1749 18.5287H57.0089C57.1104 18.5287 57.2077 18.5702 57.2794 18.6439C57.3512 18.7177 57.3914 18.8177 57.3914 18.9221C57.3914 19.0264 57.3512 19.1264 57.2794 19.2002C57.2077 19.274 57.1104 19.3154 57.0089 19.3154Z" fill="#DFEAEF"/>
<path d="M52.637 21.5613H47.1749C47.0734 21.5613 46.9761 21.5199 46.9044 21.4461C46.8327 21.3724 46.7924 21.2723 46.7924 21.168C46.7924 21.0637 46.8327 20.9636 46.9044 20.8899C46.9761 20.8161 47.0734 20.7747 47.1749 20.7747H52.637C52.7384 20.7747 52.8357 20.8161 52.9074 20.8899C52.9792 20.9636 53.0195 21.0637 53.0195 21.168C53.0195 21.2723 52.9792 21.3724 52.9074 21.4461C52.8357 21.5199 52.7384 21.5613 52.637 21.5613Z" fill="#DFEAEF"/>
<path d="M57.009 11.2678H31.4083C31.3068 11.2678 31.2095 11.2264 31.1378 11.1526C31.0661 11.0788 31.0258 10.9788 31.0258 10.8745V8.26667C31.0258 8.16235 31.0661 8.06231 31.1378 7.98854C31.2095 7.91478 31.3068 7.87334 31.4083 7.87334H57.009C57.1104 7.87334 57.2077 7.91478 57.2795 7.98854C57.3512 8.06231 57.3915 8.16235 57.3915 8.26667V10.8941C57.3866 10.995 57.3441 11.0901 57.2729 11.1596C57.2017 11.2292 57.1072 11.2679 57.009 11.2678ZM31.7908 10.4811H56.6265V8.66H31.7908V10.4811Z" fill="#DFEAEF"/>
<path d="M44.2105 28.6885C44.7238 28.6885 45.14 28.2606 45.14 27.7327C45.14 27.2049 44.7238 26.7769 44.2105 26.7769C43.6971 26.7769 43.281 27.2049 43.281 27.7327C43.281 28.2606 43.6971 28.6885 44.2105 28.6885Z" fill="#093F68"/>
<path d="M44.2105 29.0858C43.9503 29.0858 43.6959 29.0065 43.4795 28.8578C43.2631 28.7091 43.0945 28.4978 42.9949 28.2505C42.8953 28.0033 42.8692 27.7312 42.92 27.4688C42.9708 27.2063 43.0961 26.9652 43.2801 26.776C43.4641 26.5867 43.6986 26.4579 43.9538 26.4057C44.209 26.3535 44.4736 26.3803 44.714 26.4827C44.9545 26.5851 45.16 26.7585 45.3046 26.981C45.4491 27.2035 45.5263 27.4651 45.5263 27.7327C45.5263 28.0916 45.3877 28.4358 45.1409 28.6895C44.8942 28.9433 44.5595 29.0858 44.2105 29.0858ZM44.2105 27.1703C44.0728 27.1821 43.9445 27.2467 43.851 27.3512C43.7575 27.4558 43.7056 27.5926 43.7056 27.7347C43.7056 27.8768 43.7575 28.0136 43.851 28.1182C43.9445 28.2227 44.0728 28.2873 44.2105 28.2991C44.2864 28.3057 44.3629 28.2959 44.435 28.2705C44.507 28.2451 44.5732 28.2046 44.6293 28.1516C44.6854 28.0985 44.7301 28.0341 44.7607 27.9623C44.7914 27.8906 44.8072 27.8131 44.8072 27.7347C44.8072 27.6563 44.7914 27.5788 44.7607 27.5071C44.7301 27.4353 44.6854 27.3709 44.6293 27.3179C44.5732 27.2648 44.507 27.2243 44.435 27.1989C44.3629 27.1735 44.2864 27.1637 44.2105 27.1703Z" fill="#093F68"/>
<path d="M60.2985 39.7845C60.2985 37.8965 62.3295 36.3664 64.8349 36.3664C67.3403 36.3664 69.3713 37.8965 69.3713 39.7845H60.2985Z" fill="white"/>
<path d="M69.3713 40.1778H60.2985C60.197 40.1778 60.0997 40.1364 60.028 40.0626C59.9563 39.9888 59.916 39.8888 59.916 39.7845C59.916 37.6841 62.123 35.9731 64.8349 35.9731C67.5468 35.9731 69.7538 37.6841 69.7538 39.7845C69.7538 39.8888 69.7135 39.9888 69.6418 40.0626C69.5701 40.1364 69.4728 40.1778 69.3713 40.1778ZM60.7154 39.3911H68.9544C68.6867 37.9083 66.9425 36.7597 64.8349 36.7597C62.7273 36.7597 60.9831 37.9083 60.7154 39.3911Z" fill="#093F68"/>
<path d="M64.8349 37.8453C64.7334 37.8453 64.6362 37.8039 64.5644 37.7301C64.4927 37.6564 64.4524 37.5563 64.4524 37.452V35.7253C64.4524 35.6209 64.4927 35.5209 64.5644 35.4471C64.6362 35.3734 64.7334 35.3319 64.8349 35.3319C64.9363 35.3319 65.0336 35.3734 65.1053 35.4471C65.1771 35.5209 65.2174 35.6209 65.2174 35.7253V37.452C65.2174 37.5563 65.1771 37.6564 65.1053 37.7301C65.0336 37.8039 64.9363 37.8453 64.8349 37.8453Z" fill="#093F68"/>
<path d="M17.5387 39.9772H12.4859C11.9077 39.9772 11.3531 39.741 10.9443 39.3205C10.5354 38.9001 10.3057 38.3298 10.3057 37.7352L10.3057 28.8498H19.719V37.747C19.716 38.3396 19.4849 38.9068 19.0764 39.3247C18.6678 39.7426 18.115 39.9772 17.5387 39.9772Z" fill="#FD985B"/>
<path d="M17.5388 40.3705H12.4898C11.8101 40.3705 11.1582 40.0929 10.6776 39.5987C10.197 39.1044 9.927 38.4341 9.927 37.7352V28.8498C9.927 28.7455 9.9673 28.6455 10.039 28.5717C10.1108 28.4979 10.2081 28.4565 10.3095 28.4565H19.7228C19.8243 28.4565 19.9216 28.4979 19.9933 28.5717C20.065 28.6455 20.1053 28.7455 20.1053 28.8498V37.7352C20.1043 38.4345 19.8335 39.1048 19.3523 39.5989C18.871 40.093 18.2188 40.3705 17.5388 40.3705ZM10.692 29.2431V37.7352C10.693 38.2252 10.8827 38.6948 11.2197 39.0413C11.5566 39.3877 12.0133 39.5828 12.4898 39.5839H17.5388C18.0159 39.5839 18.4736 39.3892 18.8113 39.0427C19.1491 38.6961 19.3393 38.2259 19.3403 37.7352V29.2431H10.692Z" fill="#093F68"/>
<path d="M9.25001 37.2239C8.56915 37.2239 7.93803 37.1649 7.45608 36.6771C6.97413 36.1894 6.73315 35.3044 6.73315 33.9238C6.73315 32.5432 6.96265 31.6858 7.45608 31.1705C8.01835 30.6041 8.77953 30.612 9.58278 30.6238H10.3172C10.4186 30.6238 10.5159 30.6652 10.5876 30.739C10.6594 30.8127 10.6997 30.9128 10.6997 31.0171V36.803C10.6997 36.9073 10.6594 37.0074 10.5876 37.0811C10.5159 37.1549 10.4186 37.1963 10.3172 37.1963H9.25001V37.2239ZM9.25001 31.4262C8.71068 31.4262 8.27845 31.4694 8.00305 31.7526C7.66645 32.0909 7.50581 32.8028 7.50581 33.9317C7.50581 35.0605 7.66645 35.7764 8.00305 36.1147C8.33965 36.4529 8.88663 36.4451 9.57896 36.4333H9.96146V31.434H9.25001V31.4262Z" fill="#093F68"/>
<path d="M76.0881 22.7767H72.2249V39.8985H76.0881V22.7767Z" fill="#70CC40"/>
<path d="M76.088 40.2919H72.2248C72.1233 40.2919 72.026 40.2504 71.9543 40.1767C71.8826 40.1029 71.8423 40.0028 71.8423 39.8985V22.7767C71.8423 22.6724 71.8826 22.5724 71.9543 22.4986C72.026 22.4248 72.1233 22.3834 72.2248 22.3834H76.088C76.1895 22.3834 76.2868 22.4248 76.3585 22.4986C76.4302 22.5724 76.4705 22.6724 76.4705 22.7767V39.8985C76.4705 40.0028 76.4302 40.1029 76.3585 40.1767C76.2868 40.2504 76.1895 40.2919 76.088 40.2919ZM72.6073 39.5052H75.7055V23.1701H72.6073V39.5052Z" fill="#093F68"/>
<path d="M80.4485 25.0227H76.088V39.9772H80.4485V25.0227Z" fill="#F56132"/>
<path d="M80.4485 40.3705H76.088C75.9866 40.3705 75.8893 40.3291 75.8175 40.2553C75.7458 40.1816 75.7055 40.0815 75.7055 39.9772V25.0305C75.7055 24.9262 75.7458 24.8262 75.8175 24.7524C75.8893 24.6786 75.9866 24.6372 76.088 24.6372H80.4485C80.55 24.6372 80.6472 24.6786 80.719 24.7524C80.7907 24.8262 80.831 24.9262 80.831 25.0305V39.9772C80.831 40.0815 80.7907 40.1816 80.719 40.2553C80.6472 40.3291 80.55 40.3705 80.4485 40.3705ZM76.4705 39.5839H80.066V25.4239H76.4705V39.5839Z" fill="#093F68"/>
<path d="M86.2855 22.171H80.7546V39.9772H86.2855V22.171Z" fill="#FFBC0E"/>
<path d="M86.2893 40.3705H80.7546C80.6531 40.3705 80.5558 40.3291 80.4841 40.2553C80.4124 40.1816 80.3721 40.0815 80.3721 39.9772V22.171C80.3721 22.0667 80.4124 21.9666 80.4841 21.8929C80.5558 21.8191 80.6531 21.7777 80.7546 21.7777H86.2893C86.3908 21.7777 86.4881 21.8191 86.5598 21.8929C86.6315 21.9666 86.6718 22.0667 86.6718 22.171V39.9772C86.6718 40.0815 86.6315 40.1816 86.5598 40.2553C86.4881 40.3291 86.3908 40.3705 86.2893 40.3705ZM81.1371 39.5839H85.9068V22.5643H81.1371V39.5839Z" fill="#093F68"/>
<path d="M91.3459 27.7367H86.2893V39.8946H91.3459V27.7367Z" fill="#725858"/>
<path d="M91.3421 40.2919H86.2893C86.1879 40.2919 86.0906 40.2504 86.0188 40.1767C85.9471 40.1029 85.9068 40.0028 85.9068 39.8985V27.7367C85.9068 27.6324 85.9471 27.5323 86.0188 27.4585C86.0906 27.3848 86.1879 27.3433 86.2893 27.3433H91.3421C91.4436 27.3433 91.5409 27.3848 91.6126 27.4585C91.6843 27.5323 91.7246 27.6324 91.7246 27.7367V39.8985C91.7246 40.0028 91.6843 40.1029 91.6126 40.1767C91.5409 40.2504 91.4436 40.2919 91.3421 40.2919ZM86.6718 39.5052H90.9596V28.13H86.6718V39.5052Z" fill="#093F68"/>
<path d="M91.3421 32.1105H86.2893C86.1879 32.1105 86.0906 32.0691 86.0188 31.9953C85.9471 31.9216 85.9068 31.8215 85.9068 31.7172C85.9068 31.6129 85.9471 31.5128 86.0188 31.4391C86.0906 31.3653 86.1879 31.3239 86.2893 31.3239H91.3421C91.4436 31.3239 91.5409 31.3653 91.6126 31.4391C91.6843 31.5128 91.7246 31.6129 91.7246 31.7172C91.7246 31.8215 91.6843 31.9216 91.6126 31.9953C91.5409 32.0691 91.4436 32.1105 91.3421 32.1105Z" fill="#093F68"/>
<path d="M86.2893 26.7533H80.7546C80.6531 26.7533 80.5558 26.7119 80.4841 26.6381C80.4124 26.5644 80.3721 26.4643 80.3721 26.36C80.3721 26.2557 80.4124 26.1556 80.4841 26.0819C80.5558 26.0081 80.6531 25.9667 80.7546 25.9667H86.2893C86.3908 25.9667 86.4881 26.0081 86.5598 26.0819C86.6315 26.1556 86.6718 26.2557 86.6718 26.36C86.6718 26.4643 86.6315 26.5644 86.5598 26.6381C86.4881 26.7119 86.3908 26.7533 86.2893 26.7533Z" fill="#093F68"/>
<path d="M86.2893 36.1186H80.7546C80.6531 36.1186 80.5558 36.0772 80.4841 36.0034C80.4124 35.9296 80.3721 35.8296 80.3721 35.7253C80.3721 35.6209 80.4124 35.5209 80.4841 35.4471C80.5558 35.3734 80.6531 35.3319 80.7546 35.3319H86.2893C86.3908 35.3319 86.4881 35.3734 86.5598 35.4471C86.6315 35.5209 86.6718 35.6209 86.6718 35.7253C86.6718 35.8296 86.6315 35.9296 86.5598 36.0034C86.4881 36.0772 86.3908 36.1186 86.2893 36.1186Z" fill="#093F68"/>
<path d="M78.1536 29.3375C78.5824 29.3375 78.93 28.98 78.93 28.5391C78.93 28.0981 78.5824 27.7406 78.1536 27.7406C77.7247 27.7406 77.3771 28.0981 77.3771 28.5391C77.3771 28.98 77.7247 29.3375 78.1536 29.3375Z" fill="#093F68"/>
<path d="M78.1535 29.7309C77.9266 29.7309 77.7047 29.6617 77.516 29.532C77.3273 29.4024 77.1802 29.2181 77.0934 29.0024C77.0065 28.7868 76.9838 28.5496 77.0281 28.3207C77.0724 28.0918 77.1817 27.8815 77.3421 27.7165C77.5026 27.5515 77.7071 27.4391 77.9297 27.3936C78.1523 27.348 78.383 27.3714 78.5927 27.4607C78.8023 27.55 78.9816 27.7013 79.1076 27.8953C79.2337 28.0894 79.301 28.3175 79.301 28.5509C79.301 28.8638 79.1801 29.164 78.9649 29.3853C78.7497 29.6066 78.4579 29.7309 78.1535 29.7309ZM78.1535 28.13C78.0779 28.13 78.0039 28.1531 77.941 28.1963C77.8781 28.2395 77.8291 28.301 77.8002 28.3728C77.7712 28.4447 77.7636 28.5238 77.7784 28.6001C77.7932 28.6764 77.8296 28.7465 77.8831 28.8015C77.9366 28.8565 78.0047 28.8939 78.0789 28.9091C78.1531 28.9243 78.23 28.9165 78.2999 28.8867C78.3698 28.857 78.4295 28.8066 78.4716 28.7419C78.5136 28.6772 78.536 28.6011 78.536 28.5233C78.536 28.419 78.4957 28.319 78.424 28.2452C78.3523 28.1715 78.255 28.13 78.1535 28.13Z" fill="#093F68"/>
<path d="M76.088 28.13H72.2248C72.1233 28.13 72.026 28.0886 71.9543 28.0148C71.8826 27.941 71.8423 27.841 71.8423 27.7367C71.8423 27.6323 71.8826 27.5323 71.9543 27.4585C72.026 27.3848 72.1233 27.3433 72.2248 27.3433H76.088C76.1895 27.3433 76.2868 27.3848 76.3585 27.4585C76.4302 27.5323 76.4705 27.6323 76.4705 27.7367C76.4705 27.841 76.4302 27.941 76.3585 28.0148C76.2868 28.0886 76.1895 28.13 76.088 28.13Z" fill="#093F68"/>
<path d="M76.088 35.3162H72.2248C72.1233 35.3162 72.026 35.2748 71.9543 35.201C71.8826 35.1272 71.8423 35.0272 71.8423 34.9229C71.8423 34.8185 71.8826 34.7185 71.9543 34.6447C72.026 34.571 72.1233 34.5295 72.2248 34.5295H76.088C76.1895 34.5295 76.2868 34.571 76.3585 34.6447C76.4302 34.7185 76.4705 34.8185 76.4705 34.9229C76.4705 35.0272 76.4302 35.1272 76.3585 35.201C76.2868 35.2748 76.1895 35.3162 76.088 35.3162Z" fill="#093F68"/>
<path d="M75.3995 36.7597H72.2248C72.1233 36.7597 72.026 36.7183 71.9543 36.6445C71.8826 36.5708 71.8423 36.4707 71.8423 36.3664C71.8423 36.2621 71.8826 36.162 71.9543 36.0883C72.026 36.0145 72.1233 35.9731 72.2248 35.9731H75.3995C75.501 35.9731 75.5983 36.0145 75.67 36.0883C75.7417 36.162 75.782 36.2621 75.782 36.3664C75.782 36.4707 75.7417 36.5708 75.67 36.6445C75.5983 36.7183 75.501 36.7597 75.3995 36.7597Z" fill="#093F68"/>
<path d="M78.165 4.00687H70.6795V11.7044H78.165V4.00687Z" fill="white"/>
<path d="M78.165 12.0977H70.6795C70.5781 12.0977 70.4808 12.0563 70.409 11.9825C70.3373 11.9088 70.297 11.8087 70.297 11.7044V4.00686C70.297 3.90254 70.3373 3.80249 70.409 3.72873C70.4808 3.65497 70.5781 3.61353 70.6795 3.61353H78.165C78.2665 3.61353 78.3637 3.65497 78.4355 3.72873C78.5072 3.80249 78.5475 3.90254 78.5475 4.00686V11.7044C78.5475 11.8087 78.5072 11.9088 78.4355 11.9825C78.3637 12.0563 78.2665 12.0977 78.165 12.0977ZM71.062 11.3111H77.7825V4.40019H71.062V11.3111Z" fill="#DFEAEF"/>
<path d="M74.4242 5.78867C74.3227 5.78867 74.2254 5.74723 74.1537 5.67347C74.082 5.5997 74.0417 5.49965 74.0417 5.39534V3.232C74.0417 3.12768 74.082 3.02764 74.1537 2.95387C74.2254 2.88011 74.3227 2.83867 74.4242 2.83867C74.5256 2.83867 74.6229 2.88011 74.6946 2.95387C74.7664 3.02764 74.8067 3.12768 74.8067 3.232V5.39534C74.8067 5.49965 74.7664 5.5997 74.6946 5.67347C74.6229 5.74723 74.5256 5.78867 74.4242 5.78867Z" fill="#DFEAEF"/>
<path d="M89.5597 9.56073H82.7589V16.5542H89.5597V9.56073Z" fill="white"/>
<path d="M89.575 16.9436H82.7588C82.6574 16.9436 82.5601 16.9022 82.4884 16.8284C82.4166 16.7546 82.3763 16.6546 82.3763 16.5503V9.56074C82.3763 9.45642 82.4166 9.35637 82.4884 9.28261C82.5601 9.20884 82.6574 9.1674 82.7588 9.1674H89.575C89.6764 9.1674 89.7737 9.20884 89.8455 9.28261C89.9172 9.35637 89.9575 9.45642 89.9575 9.56074V16.5503C89.9575 16.6546 89.9172 16.7546 89.8455 16.8284C89.7737 16.9022 89.6764 16.9436 89.575 16.9436ZM83.1605 16.1569H89.1925V9.95407H83.1413L83.1605 16.1569Z" fill="#DFEAEF"/>
<path d="M86.1554 11.2167C86.054 11.2167 85.9567 11.1752 85.885 11.1015C85.8133 11.0277 85.7729 10.9276 85.7729 10.8233V8.85667C85.7729 8.75235 85.8133 8.6523 85.885 8.57854C85.9567 8.50477 86.054 8.46333 86.1554 8.46333C86.2569 8.46333 86.3542 8.50477 86.4259 8.57854C86.4976 8.6523 86.5379 8.75235 86.5379 8.85667V10.8233C86.5379 10.9276 86.4976 11.0277 86.4259 11.1015C86.3542 11.1752 86.2569 11.2167 86.1554 11.2167Z" fill="#DFEAEF"/>
<path d="M17.0798 5.41893H3.71906V19.1581H17.0798V5.41893Z" fill="white"/>
<path d="M17.0798 19.5553H3.71905C3.6176 19.5553 3.52031 19.5139 3.44858 19.4401C3.37685 19.3664 3.33655 19.2663 3.33655 19.162V5.41894C3.33655 5.31462 3.37685 5.21457 3.44858 5.14081C3.52031 5.06704 3.6176 5.0256 3.71905 5.0256H17.0798C17.1812 5.0256 17.2785 5.06704 17.3502 5.14081C17.422 5.21457 17.4623 5.31462 17.4623 5.41894V19.162C17.4623 19.2663 17.422 19.3664 17.3502 19.4401C17.2785 19.5139 17.1812 19.5553 17.0798 19.5553ZM4.10155 18.7687H16.6973V5.81227H4.10155V18.7687Z" fill="#DFEAEF"/>
<path d="M17.0798 5.41893H3.71906V8.5656H17.0798V5.41893Z" fill="white"/>
<path d="M17.0798 8.95894H3.71905C3.6176 8.95894 3.52031 8.9175 3.44858 8.84374C3.37685 8.76997 3.33655 8.66993 3.33655 8.56561V5.41894C3.33655 5.31462 3.37685 5.21457 3.44858 5.14081C3.52031 5.06704 3.6176 5.0256 3.71905 5.0256H17.0798C17.1812 5.0256 17.2785 5.06704 17.3502 5.14081C17.422 5.21457 17.4623 5.31462 17.4623 5.41894V8.56561C17.4623 8.66993 17.422 8.76997 17.3502 8.84374C17.2785 8.9175 17.1812 8.95894 17.0798 8.95894ZM4.10155 8.17227H16.6973V5.81227H4.10155V8.17227Z" fill="#DFEAEF"/>
<path d="M6.95502 15.15L8.72599 13.38L8.88664 13.2109C8.94287 13.1512 8.99406 13.0867 9.03964 13.0181C9.0852 12.9532 9.12368 12.8833 9.15439 12.8097C9.18156 12.7368 9.19581 12.6596 9.19647 12.5815C9.19918 12.4906 9.18082 12.4002 9.14292 12.318C9.10667 12.2449 9.05736 12.1796 8.99757 12.1253C8.93526 12.0718 8.86396 12.0305 8.78719 12.0033C8.70501 11.9731 8.61818 11.9585 8.53092 11.9601C8.35458 11.9517 8.18191 12.0137 8.04897 12.1331C7.92029 12.2553 7.83993 12.4219 7.82329 12.6012L7.00474 12.5343C7.01808 12.3331 7.07009 12.1366 7.15774 11.9561C7.2358 11.7937 7.34819 11.6512 7.48669 11.5392C7.62549 11.425 7.78373 11.3383 7.95334 11.2835C8.14062 11.2254 8.33528 11.1962 8.53092 11.197C8.7279 11.1949 8.92401 11.2241 9.11232 11.2835C9.28094 11.3351 9.43905 11.4177 9.57897 11.5274C9.71622 11.6387 9.82625 11.7815 9.90027 11.9443C9.98703 12.1637 10.0245 12.4003 10.0099 12.6367C9.99538 12.873 9.92912 13.1029 9.81612 13.3092C9.6755 13.5385 9.50425 13.7464 9.30739 13.9267L7.88832 15.2837H10.015V16.0035H6.95502V15.15Z" fill="#DFEAEF"/>
<path d="M10.78 15.15L12.5662 13.3761L12.7269 13.2069C12.7831 13.1473 12.8343 13.0828 12.8799 13.0142C12.9254 12.9492 12.9639 12.8793 12.9946 12.8057C13.0285 12.7285 13.0461 12.6447 13.0461 12.5599C13.0461 12.4751 13.0285 12.3913 12.9946 12.3141C12.9597 12.2402 12.9102 12.1745 12.8493 12.1213C12.787 12.0678 12.7157 12.0265 12.6389 11.9994C12.5568 11.9688 12.4699 11.9542 12.3826 11.9561C12.2063 11.9478 12.0336 12.0098 11.9007 12.1292C11.7734 12.2524 11.6934 12.4185 11.675 12.5973L10.8565 12.5304C10.8698 12.3292 10.9218 12.1326 11.0095 11.9522C11.0888 11.7906 11.201 11.6484 11.3384 11.5353C11.4777 11.4219 11.6358 11.3353 11.8051 11.2796C11.9924 11.2217 12.187 11.1926 12.3826 11.1931C12.5796 11.191 12.7757 11.2201 12.964 11.2796C13.1342 11.3303 13.2937 11.413 13.4345 11.5235C13.5706 11.635 13.6793 11.7778 13.752 11.9404C13.8318 12.1274 13.871 12.3301 13.8667 12.5343C13.8769 12.8104 13.8091 13.0836 13.6717 13.321C13.5285 13.5495 13.3561 13.7572 13.1591 13.9385L11.74 15.2955H13.84V16.0153H10.78V15.15Z" fill="#DFEAEF"/>
<path d="M6.44628 6.62648C6.34483 6.62648 6.24754 6.58504 6.17581 6.51128C6.10408 6.43751 6.06378 6.33747 6.06378 6.23315V4.26649C6.06378 4.16217 6.10408 4.06212 6.17581 3.98836C6.24754 3.91459 6.34483 3.87315 6.44628 3.87315C6.54772 3.87315 6.64501 3.91459 6.71675 3.98836C6.78848 4.06212 6.82878 4.16217 6.82878 4.26649V6.23315C6.82878 6.33747 6.78848 6.43751 6.71675 6.51128C6.64501 6.58504 6.54772 6.62648 6.44628 6.62648Z" fill="#DFEAEF"/>
<path d="M9.08166 6.62648C8.98021 6.62648 8.88292 6.58504 8.81119 6.51128C8.73946 6.43751 8.69916 6.33747 8.69916 6.23315V4.26649C8.69916 4.16217 8.73946 4.06212 8.81119 3.98836C8.88292 3.91459 8.98021 3.87315 9.08166 3.87315C9.18311 3.87315 9.2804 3.91459 9.35213 3.98836C9.42386 4.06212 9.46416 4.16217 9.46416 4.26649V6.23315C9.46416 6.33747 9.42386 6.43751 9.35213 6.51128C9.2804 6.58504 9.18311 6.62648 9.08166 6.62648Z" fill="#DFEAEF"/>
<path d="M11.7172 6.62648C11.6157 6.62648 11.5184 6.58504 11.4467 6.51128C11.375 6.43751 11.3347 6.33747 11.3347 6.23315V4.26649C11.3347 4.16217 11.375 4.06212 11.4467 3.98836C11.5184 3.91459 11.6157 3.87315 11.7172 3.87315C11.8186 3.87315 11.9159 3.91459 11.9876 3.98836C12.0594 4.06212 12.0997 4.16217 12.0997 4.26649V6.23315C12.0997 6.33747 12.0594 6.43751 11.9876 6.51128C11.9159 6.58504 11.8186 6.62648 11.7172 6.62648Z" fill="#DFEAEF"/>
<path d="M14.3487 6.62648C14.2473 6.62648 14.15 6.58504 14.0783 6.51128C14.0065 6.43751 13.9662 6.33747 13.9662 6.23315V4.26649C13.9662 4.16217 14.0065 4.06212 14.0783 3.98836C14.15 3.91459 14.2473 3.87315 14.3487 3.87315C14.4502 3.87315 14.5475 3.91459 14.6192 3.98836C14.6909 4.06212 14.7312 4.16217 14.7312 4.26649V6.23315C14.7312 6.33747 14.6909 6.43751 14.6192 6.51128C14.5475 6.58504 14.4502 6.62648 14.3487 6.62648Z" fill="#DFEAEF"/>
<path d="M54.3964 37.3733H34.0283C33.4727 37.3733 33.0223 37.8365 33.0223 38.4078V38.8641C33.0223 39.4354 33.4727 39.8985 34.0283 39.8985H54.3964C54.952 39.8985 55.4024 39.4354 55.4024 38.8641V38.4078C55.4024 37.8365 54.952 37.3733 54.3964 37.3733Z" fill="#FD985B"/>
<path d="M54.385 40.2919H34.0284C33.6604 40.2908 33.3079 40.1401 33.0477 39.8725C32.7875 39.605 32.6409 39.2424 32.6399 38.8641V38.4078C32.6409 38.0294 32.7875 37.6669 33.0477 37.3993C33.3079 37.1318 33.6604 36.981 34.0284 36.98H54.385C54.753 36.981 55.1055 37.1318 55.3657 37.3993C55.6259 37.6669 55.7725 38.0294 55.7735 38.4078V38.8641C55.7725 39.2424 55.6259 39.605 55.3657 39.8725C55.1055 40.1401 54.753 40.2908 54.385 40.2919ZM34.0284 37.7667C33.863 37.7667 33.7044 37.8342 33.5875 37.9544C33.4706 38.0747 33.4049 38.2378 33.4049 38.4078V38.8641C33.4049 39.0341 33.4706 39.1972 33.5875 39.3174C33.7044 39.4376 33.863 39.5052 34.0284 39.5052H54.385C54.5501 39.5042 54.7081 39.4363 54.8248 39.3163C54.9415 39.1963 55.0075 39.0338 55.0085 38.8641V38.4078C55.0075 38.2381 54.9415 38.0756 54.8248 37.9556C54.7081 37.8356 54.5501 37.7677 54.385 37.7667H34.0284Z" fill="#093F68"/>
</svg>
