<svg width="75" height="76" viewBox="0 0 75 76" fill="none" xmlns="http://www.w3.org/2000/svg">
<path d="M74.1831 38C74.1831 47.7496 70.3183 57.0999 63.4388 63.9939C56.5594 70.8879 47.229 74.7609 37.5 74.7609C27.7711 74.7609 18.4406 70.8879 11.5612 63.9939C4.68177 57.0999 0.816956 47.7496 0.816956 38C0.816956 28.2504 4.68177 18.9001 11.5612 12.0061C18.4406 5.11208 27.7711 1.23907 37.5 1.23907C47.229 1.23907 56.5594 5.11208 63.4388 12.0061C70.3183 18.9001 74.1831 28.2504 74.1831 38Z" fill="white"/>
<path d="M37.5001 75.1543C32.6298 75.1595 27.8063 74.202 23.3058 72.3366C18.8052 70.4713 14.716 67.7347 11.2722 64.2836C7.82837 60.8325 5.0976 56.7346 3.23621 52.2244C1.37482 47.7144 0.419356 42.8806 0.42452 38C0.42452 33.1208 1.38351 28.2894 3.24673 23.7817C5.10995 19.2739 7.84092 15.1781 11.2837 11.728C14.7265 8.27788 18.8137 5.54111 23.3119 3.67394C27.8101 1.80676 32.6312 0.845734 37.5001 0.845734C42.3689 0.845734 47.1901 1.80676 51.6883 3.67394C56.1865 5.54111 60.2737 8.27788 63.7164 11.728C67.1592 15.1781 69.8902 19.2739 71.7534 23.7817C73.6166 28.2894 74.5756 33.1208 74.5756 38C74.5756 42.8792 73.6166 47.7106 71.7534 52.2183C69.8902 56.7261 67.1592 60.8219 63.7164 64.272C60.2737 67.7221 56.1865 70.4589 51.6883 72.3261C47.1901 74.1933 42.3689 75.1543 37.5001 75.1543ZM37.5001 1.6324C30.5047 1.64036 23.6601 3.67033 17.7871 7.47887C11.914 11.2874 7.26199 16.7128 4.38877 23.1045C2.28238 27.786 1.19843 32.8646 1.20952 38C1.20952 42.7759 2.1482 47.505 3.97197 51.9173C5.79574 56.3296 8.46889 60.3387 11.8388 63.7158C15.2087 67.0928 19.2093 69.7717 23.6123 71.5993C28.0153 73.4269 32.7343 74.3676 37.5001 74.3676C42.2658 74.3676 46.9849 73.4269 51.3879 71.5993C55.7908 69.7717 59.7915 67.0928 63.1614 63.7158C66.5313 60.3387 69.2044 56.3296 71.0282 51.9173C72.8519 47.505 73.7906 42.7759 73.7906 38C73.8017 32.8646 72.7178 27.786 70.6114 23.1045C67.7382 16.7128 63.0861 11.2874 57.2131 7.47887C51.3401 3.67033 44.4955 1.64036 37.5001 1.6324Z" fill="#093F68"/>
<path d="M15.1275 27.0378L23.5153 28.1942C23.5153 28.1942 32.6684 25.3897 33.6378 25.3897C34.6073 25.3897 38.6972 30.3536 38.6972 30.3536C38.6972 30.3536 56.8935 44.49 57.5372 45.6739C58.1809 46.8579 57.5372 50.6929 53.3374 49.9377C53.3374 49.9377 53.3374 52.9034 51.6143 53.3361C50.5841 53.599 49.5046 53.599 48.4743 53.3361C48.4743 53.3361 48.3723 55.6331 46.3274 56.172C44.2824 56.7109 43.521 56.0343 43.521 56.0343C43.521 56.0343 42.3121 59.2518 40.0513 58.6028C37.7905 57.9538 35.4669 55.9635 34.1638 54.7757C32.8607 53.5878 22.8362 46.3229 22.8362 46.3229L10.5981 45.4733L15.1275 27.0378Z" fill="#FFC9B0"/>
<path d="M40.6832 59.0866C40.4399 59.0863 40.1979 59.0505 39.9649 58.9804C38.234 58.4848 36.2636 57.2065 33.9361 55.0471C32.7586 53.9497 23.7311 47.4164 22.7342 46.6887L10.5667 45.8313C10.5099 45.8271 10.4547 45.8107 10.4049 45.783C10.3552 45.7554 10.312 45.7173 10.2784 45.6712C10.2448 45.6252 10.2216 45.5724 10.2103 45.5165C10.1991 45.4606 10.2002 45.4029 10.2134 45.3475L14.735 26.9434C14.7575 26.8482 14.8146 26.7648 14.8952 26.7096C14.9757 26.6543 15.074 26.6311 15.1707 26.6445L23.4721 27.793C24.7359 27.3997 32.6487 24.9964 33.626 24.9964C34.6034 24.9964 37.6766 28.5364 38.9601 30.0704C42.1001 32.5012 57.2231 44.2933 57.8708 45.4851C58.2986 46.2718 58.2633 47.8451 57.4155 48.9858C56.9523 49.6348 55.8651 50.6339 53.6985 50.39C53.62 51.3065 53.2667 53.3243 51.7007 53.7176C50.7579 53.9531 49.7762 53.9867 48.8197 53.8159C48.7251 54.455 48.4502 55.0537 48.0274 55.5415C47.6046 56.0293 47.0515 56.3859 46.4333 56.5693C45.0517 56.9311 44.1882 56.7777 43.7172 56.5968C43.3443 57.3874 42.3317 59.0866 40.6832 59.0866ZM11.0887 45.0997L22.899 45.9296C22.9725 45.9359 23.0429 45.9617 23.1031 46.0043C23.4956 46.2993 33.1707 53.3007 34.4856 54.4885C36.7189 56.5417 38.5912 57.765 40.2004 58.2252C42.0883 58.768 43.1873 55.9242 43.1991 55.8967C43.2212 55.8371 43.2574 55.7838 43.3046 55.7413C43.3518 55.6989 43.4085 55.6685 43.4699 55.6528C43.532 55.6369 43.597 55.6365 43.6593 55.6516C43.7215 55.6667 43.7791 55.6968 43.8271 55.7393C43.8271 55.7393 44.5022 56.2585 46.2685 55.7905C48.0347 55.3224 48.1211 53.399 48.125 53.3164C48.1282 53.2563 48.145 53.1978 48.1743 53.1453C48.2035 53.0928 48.2444 53.0477 48.2938 53.0135C48.343 52.9795 48.3994 52.9572 48.4586 52.9483C48.5178 52.9394 48.5782 52.9443 48.6352 52.9624C49.5906 53.1971 50.5883 53.1971 51.5437 52.9624C52.7212 52.6713 52.9684 50.685 52.9724 49.9455C52.9723 49.8877 52.9849 49.8306 53.0093 49.7783C53.0337 49.726 53.0694 49.6796 53.1137 49.6427C53.1576 49.6067 53.2087 49.5807 53.2636 49.5664C53.3185 49.5522 53.3758 49.55 53.4316 49.5601C54.9663 49.8354 56.1359 49.4814 56.8149 48.5335C57.494 47.5855 57.4861 46.3623 57.2074 45.8706C56.6776 44.9895 45.7111 36.2969 38.4695 30.6722C38.4468 30.6545 38.4257 30.6348 38.4067 30.6132C36.5423 28.3515 34.1912 25.8657 33.6417 25.7909C32.9863 25.7909 27.1576 27.5019 23.6408 28.5797C23.5852 28.5919 23.5277 28.5919 23.4721 28.5797L15.4337 27.4705L11.0887 45.0997Z" fill="#093F68"/>
<path d="M25.7009 46.1975C26.6293 45.3447 26.6926 43.8998 25.8423 42.9702C24.992 42.0406 23.5501 41.9784 22.6217 42.8312L19.601 45.606C18.6726 46.4588 18.6093 47.9038 19.4596 48.8333C20.3099 49.7629 21.7518 49.8251 22.6802 48.9723L25.7009 46.1975Z" fill="#E28362"/>
<path d="M21.1445 49.9652C20.7755 49.9645 20.4107 49.8873 20.0729 49.7384C19.7352 49.5895 19.4318 49.3721 19.182 49.0999C18.7033 48.5761 18.4517 47.8833 18.4826 47.1737C18.5136 46.4642 18.8244 45.7959 19.3469 45.316L22.3731 42.5391C22.6251 42.2726 22.9292 42.0609 23.2663 41.9172C23.6034 41.7734 23.9665 41.7007 24.3328 41.7034C24.6992 41.7062 25.0611 41.7844 25.3961 41.9332C25.731 42.082 26.0319 42.2982 26.2799 42.5684C26.528 42.8386 26.718 43.157 26.8381 43.5039C26.9582 43.8508 27.0058 44.2187 26.9781 44.5848C26.9503 44.9509 26.8478 45.3074 26.6768 45.6321C26.5058 45.9568 26.27 46.2428 25.9841 46.4724L22.9579 49.2533C22.4647 49.7113 21.817 49.9657 21.1445 49.9652ZM19.7551 48.5689C20.0936 48.9378 20.5644 49.1569 21.0641 49.1783C21.5637 49.1997 22.0515 49.0216 22.4202 48.6829L25.4424 45.906C25.637 45.7417 25.7964 45.5397 25.9112 45.3121C26.0259 45.0845 26.0935 44.8359 26.1099 44.5815C26.1264 44.327 26.0913 44.0718 26.0069 43.8313C25.9225 43.5908 25.7904 43.3698 25.6186 43.1817C25.4467 42.9936 25.2388 42.8423 25.0071 42.7368C24.7755 42.6313 24.5249 42.5738 24.2705 42.5678C24.0161 42.5617 23.7632 42.6073 23.5268 42.7017C23.2904 42.7962 23.0756 42.9375 22.8951 43.1173L19.8689 45.8981C19.5008 46.2374 19.2821 46.7092 19.2608 47.2099C19.2394 47.7106 19.4172 48.1994 19.7551 48.5689Z" fill="#093F68"/>
<path d="M30.0941 48.5194C31.0225 47.6665 31.0858 46.2216 30.2355 45.292C29.3852 44.3624 27.9433 44.3002 27.0149 45.1531L22.5244 49.278C21.596 50.1309 21.5327 51.5758 22.383 52.5054C23.2333 53.435 24.6752 53.4972 25.6036 52.6443L30.0941 48.5194Z" fill="#E28362"/>
<path d="M24.0726 53.6389H23.9548C23.4269 53.6159 22.9175 53.4366 22.4912 53.1236C22.0649 52.8106 21.7407 52.378 21.5597 51.8805C21.3786 51.3829 21.3488 50.8427 21.4741 50.3282C21.5993 49.8137 21.8739 49.3479 22.2632 48.9897L26.7573 44.8637C27.0108 44.6044 27.3144 44.3996 27.6495 44.2617C27.9845 44.1238 28.3441 44.0557 28.7063 44.0615C29.0685 44.0674 29.4257 44.147 29.7562 44.2957C30.0866 44.4443 30.3835 44.6588 30.6286 44.926C30.8737 45.1933 31.0619 45.5078 31.1819 45.8503C31.3018 46.1928 31.3509 46.5562 31.3262 46.9184C31.3015 47.2805 31.2034 47.6339 31.0381 47.9568C30.8727 48.2798 30.6435 48.5657 30.3644 48.797L25.8742 52.9467C25.3818 53.3962 24.7386 53.6433 24.0726 53.6389ZM28.5589 44.9463C28.088 44.9461 27.6342 45.1229 27.2872 45.4419L22.793 49.5679C22.5187 49.8198 22.3248 50.1473 22.2356 50.5093C22.1464 50.8713 22.1659 51.2517 22.2917 51.6026C22.4175 51.9535 22.644 52.2593 22.9427 52.4817C23.2414 52.704 23.599 52.8329 23.9705 52.8523C24.219 52.8645 24.4675 52.827 24.7013 52.7419C24.9352 52.6568 25.1497 52.5258 25.3325 52.3567L29.8345 48.2267C30.1141 47.9689 30.3096 47.6327 30.3954 47.2618C30.4813 46.891 30.4535 46.5028 30.3157 46.148C30.1779 45.7933 29.9365 45.4884 29.6231 45.2733C29.3097 45.0582 28.9388 44.9428 28.5589 44.9423V44.9463Z" fill="#093F68"/>
<path d="M37.9786 54.3524C38.8968 53.4886 38.943 52.043 38.0818 51.1236C37.2205 50.2042 35.778 50.1591 34.8597 51.023L30.4184 55.201C29.5001 56.0648 29.4539 57.5104 30.3152 58.4298C31.1764 59.3492 32.619 59.3943 33.5372 58.5305L37.9786 54.3524Z" fill="#E28362"/>
<path d="M31.9814 59.5429H31.8951C31.5443 59.5327 31.199 59.4531 30.879 59.3086C30.559 59.1642 30.2707 58.9577 30.0307 58.7011C29.547 58.183 29.2878 57.494 29.3099 56.7848C29.332 56.0757 29.6335 55.4042 30.1485 54.9173L34.5916 50.7361C35.1128 50.2793 35.7905 50.0431 36.4821 50.077C37.1737 50.111 37.8251 50.4126 38.2992 50.9183C38.7733 51.424 39.0331 52.0944 39.0239 52.7882C39.0146 53.482 38.7371 54.1452 38.2497 54.638L33.8066 58.8191C33.3126 59.285 32.6597 59.5439 31.9814 59.5429ZM36.4206 50.7991C35.9409 50.7985 35.4791 50.9814 35.1293 51.3104L30.6862 55.4876C30.3222 55.8318 30.1092 56.3066 30.0937 56.8079C30.0783 57.3092 30.2617 57.7962 30.6038 58.1623C30.9466 58.5268 31.4197 58.7402 31.9193 58.7557C32.4188 58.7711 32.9042 58.5875 33.2688 58.2449L37.7119 54.0677C37.9869 53.808 38.1777 53.4715 38.2598 53.102C38.3418 52.7324 38.3114 52.3466 38.1723 51.9946C38.0332 51.6425 37.7919 51.3404 37.4796 51.1273C37.1673 50.9141 36.7984 50.7998 36.4206 50.7991Z" fill="#093F68"/>
<path d="M34.4184 51.1387C35.3161 50.2535 35.3283 48.8072 34.4457 47.9084C33.563 47.0096 32.1198 46.9986 31.2221 47.8838L26.0998 52.9353C25.2021 53.8206 25.1899 55.2669 26.0725 56.1657C26.9551 57.0645 28.3983 57.0755 29.296 56.1902L34.4184 51.1387Z" fill="#E28362"/>
<path d="M27.7072 57.2419H27.6875C27.3371 57.2427 26.99 57.1736 26.6665 57.0385C26.343 56.9035 26.0497 56.7052 25.8035 56.4552C25.3077 55.9489 25.0325 55.2661 25.0384 54.5568C25.0443 53.8474 25.3308 53.1693 25.8349 52.6713L30.9571 47.617C31.204 47.3564 31.5007 47.1482 31.8295 47.0048C32.1584 46.8615 32.5127 46.7859 32.8713 46.7827C33.2299 46.7794 33.5855 46.8485 33.9169 46.9858C34.2483 47.1231 34.5487 47.3258 34.8003 47.5819C35.0519 47.838 35.2495 48.1422 35.3814 48.4764C35.5132 48.8106 35.5766 49.168 35.5677 49.5273C35.5589 49.8866 35.478 50.2404 35.3298 50.5677C35.1817 50.8949 34.9693 51.189 34.7054 51.4323L29.6029 56.4867C29.3519 56.7311 29.0553 56.9237 28.73 57.0532C28.4047 57.1828 28.0572 57.2469 27.7072 57.2419ZM32.8332 47.6209C32.337 47.6201 31.8604 47.8151 31.5065 48.1637L26.4041 53.2181C26.1372 53.4798 25.954 53.8151 25.8777 54.1814C25.8014 54.5477 25.8355 54.9285 25.9755 55.2754C26.1156 55.6223 26.3553 55.9196 26.6643 56.1297C26.9733 56.3397 27.3377 56.453 27.7111 56.4552C28.2106 56.4553 28.6906 56.2607 29.0495 55.9124L34.1755 50.8581C34.3519 50.684 34.4923 50.4769 34.5887 50.2485C34.6852 50.02 34.7357 49.7748 34.7375 49.5268C34.7394 49.2788 34.6924 49.0328 34.5993 48.803C34.5063 48.5732 34.3689 48.364 34.1952 48.1873C34.0222 48.0089 33.8154 47.8669 33.5869 47.7696C33.3584 47.6724 33.1128 47.6218 32.8646 47.6209H32.8332Z" fill="#093F68"/>
<path d="M62.0666 26.0387C62.0666 26.0387 53.0391 27.439 51.7282 27.2187C50.4172 26.9985 41.8175 23.0179 39.8864 22.3689C37.9553 21.7199 34.2855 23.3641 32.5624 24.8076C30.8393 26.2511 25.9959 31.4313 26.6396 34.5623C27.2833 37.6932 31.2711 35.64 34.3954 31.5415L38.7129 30.3615L56.4656 44.6867L61.2031 44.1517L62.0666 26.0387Z" fill="#E28362"/>
<path d="M56.4656 45.08C56.3757 45.0804 56.2884 45.0498 56.2183 44.9935L38.6108 30.7705L34.623 31.8679C32.2287 34.9753 29.4851 36.7964 27.7738 36.4031C27.2243 36.2772 26.5139 35.8681 26.2549 34.6252C25.5248 31.0852 30.9335 25.6454 32.3111 24.489C34.1206 22.9707 37.9239 21.2833 40.0081 21.9795C40.8559 22.2627 42.9165 23.1595 45.1106 24.1035C47.7835 25.2835 51.108 26.7035 51.7831 26.8215C52.6819 26.9709 58.381 26.1921 61.9881 25.6415C62.046 25.6318 62.1053 25.6353 62.1617 25.6516C62.218 25.6679 62.27 25.6967 62.3138 25.7359C62.357 25.7748 62.3911 25.8229 62.4135 25.8766C62.4359 25.9304 62.4461 25.9884 62.4434 26.0466L61.5799 44.1793C61.5805 44.2765 61.5451 44.3705 61.4806 44.4431C61.4161 44.5158 61.327 44.5619 61.2305 44.5726L56.5088 45.08H56.4656ZM38.701 29.9445C38.7909 29.9442 38.8782 29.9747 38.9483 30.0311L56.5833 44.2933L60.8263 43.8135L61.6505 26.5068C59.6409 26.8136 52.8467 27.8166 51.6653 27.6199C50.9313 27.498 48.4664 26.4399 44.7887 24.8666C42.6221 23.9265 40.5733 23.0376 39.7608 22.7662C37.9592 22.1644 34.4424 23.7653 32.8135 25.1262C31.1258 26.5422 26.4276 31.5965 27.0242 34.4993C27.1655 35.1759 27.4677 35.5574 27.9465 35.6793C29.3399 35.9979 31.9186 34.1689 34.0813 31.3291C34.1333 31.2603 34.2064 31.2105 34.2893 31.1875L38.6068 30.0075C38.6355 29.9868 38.6673 29.9708 38.701 29.9603V29.9445Z" fill="#093F68"/>
<path d="M53.3452 50.331C53.2554 50.3314 53.1681 50.3008 53.098 50.2445L44.8044 43.5067C44.7296 43.4392 44.6834 43.3454 44.6756 43.2448C44.6677 43.1442 44.6988 43.0444 44.7623 42.9661C44.8258 42.8878 44.917 42.8369 45.0169 42.8241C45.1168 42.8112 45.2178 42.8373 45.299 42.897L53.5925 49.6309C53.6326 49.6636 53.6657 49.7039 53.6902 49.7496C53.7146 49.7952 53.7298 49.8452 53.7349 49.8967C53.74 49.9483 53.7349 50.0003 53.7199 50.0498C53.7049 50.0994 53.6803 50.1455 53.6475 50.1855C53.611 50.2306 53.5649 50.267 53.5126 50.2922C53.4604 50.3174 53.4032 50.3306 53.3452 50.331Z" fill="#093F68"/>
<path d="M48.49 53.7333C48.4068 53.7336 48.3257 53.7075 48.2584 53.6586L39.5371 47.2355C39.4543 47.1735 39.3992 47.0814 39.3838 46.9791C39.3684 46.8767 39.3938 46.7724 39.4546 46.6887C39.5158 46.6052 39.6075 46.5492 39.7097 46.533C39.8118 46.5168 39.9162 46.5417 40.0002 46.6022L48.7215 53.0214C48.7888 53.0702 48.8389 53.1392 48.8646 53.2183C48.8903 53.2975 48.8903 53.3828 48.8646 53.4619C48.8388 53.541 48.7887 53.61 48.7214 53.6587C48.6541 53.7075 48.573 53.7336 48.49 53.7333Z" fill="#093F68"/>
<path d="M43.5445 56.4277C43.4472 56.4274 43.3535 56.391 43.2815 56.3254L36.3225 49.9573C36.2506 49.8838 36.2103 49.785 36.2103 49.682C36.2103 49.579 36.2506 49.4802 36.3225 49.4067C36.3929 49.3302 36.4907 49.2848 36.5944 49.2803C36.6981 49.2759 36.7993 49.3129 36.876 49.3831L43.8232 55.7472C43.882 55.8008 43.9232 55.871 43.9414 55.9485C43.9595 56.026 43.9537 56.1073 43.9248 56.1815C43.8959 56.2556 43.8451 56.3193 43.7793 56.3639C43.7136 56.4086 43.6358 56.4322 43.5563 56.4316L43.5445 56.4277Z" fill="#093F68"/>
<path d="M46.7826 34.2201C43.1991 34.2201 38.6893 30.8374 38.4655 30.6801C38.4243 30.6491 38.3896 30.6102 38.3633 30.5658C38.337 30.5214 38.3198 30.4722 38.3125 30.421C38.3052 30.3699 38.308 30.3178 38.3208 30.2678C38.3336 30.2177 38.3561 30.1707 38.387 30.1294C38.418 30.0881 38.4567 30.0533 38.5011 30.0269C38.5454 30.0006 38.5945 29.9833 38.6455 29.976C38.6965 29.9687 38.7485 29.9716 38.7984 29.9844C38.8484 29.9972 38.8953 30.0197 38.9365 30.0507C38.9993 30.0979 45.138 34.7039 48.3251 33.1227C48.4178 33.08 48.5235 33.0752 48.6196 33.1092C48.7158 33.1432 48.795 33.2134 48.8404 33.305C48.8858 33.3965 48.8939 33.5022 48.8629 33.5995C48.832 33.6969 48.7644 33.7784 48.6745 33.8267C48.0829 34.1033 47.4352 34.2379 46.7826 34.2201Z" fill="#093F68"/>
<path d="M17.3491 25.4527L17.0861 27.3053L14.4799 45.7369L14.2562 47.3102L1.75506 46.2993C1.13105 43.5772 0.81636 40.793 0.816981 38C0.810925 32.8098 1.9053 27.6776 4.02763 22.9432L17.3491 25.4527Z" fill="#FD985B"/>
<path d="M14.2562 47.7075H14.2248L1.72363 46.6966C1.64093 46.6896 1.56257 46.6565 1.4998 46.6021C1.43704 46.5477 1.3931 46.4747 1.3743 46.3937C0.743786 43.6405 0.425156 40.8248 0.424453 38C0.413854 32.7537 1.52048 27.5655 3.67043 22.7819C3.70612 22.7006 3.76822 22.6339 3.84661 22.5924C3.92501 22.551 4.01508 22.5374 4.10218 22.5538L17.4197 25.0672C17.5191 25.0855 17.6076 25.1415 17.6668 25.2236C17.7261 25.3056 17.7514 25.4074 17.7376 25.5077L14.6447 47.3692C14.6315 47.463 14.5849 47.5489 14.5135 47.6111C14.4421 47.6732 14.3507 47.7074 14.2562 47.7075ZM2.08865 45.9335L13.9343 46.8933L16.9173 25.7713L4.27488 23.3877C2.24595 27.9905 1.20172 32.9681 1.20945 38C1.20861 40.6683 1.49949 43.3287 2.07688 45.9335H2.08865Z" fill="#093F68"/>
<path d="M8.74546 44.8833C9.66024 44.8833 10.4018 44.1402 10.4018 43.2235C10.4018 42.3068 9.66024 41.5636 8.74546 41.5636C7.83069 41.5636 7.08911 42.3068 7.08911 43.2235C7.08911 44.1402 7.83069 44.8833 8.74546 44.8833Z" fill="#093F68"/>
<path d="M8.74545 45.2727C8.34022 45.2727 7.9441 45.1523 7.60717 44.9267C7.27023 44.7011 7.00763 44.3804 6.85256 44.0053C6.69748 43.6301 6.65691 43.2173 6.73596 42.819C6.81502 42.4207 7.01015 42.0549 7.29669 41.7677C7.58323 41.4806 7.9483 41.285 8.34574 41.2058C8.74317 41.1266 9.15513 41.1672 9.52951 41.3226C9.90389 41.478 10.2239 41.7412 10.449 42.0788C10.6741 42.4165 10.7943 42.8135 10.7943 43.2195C10.7943 43.4892 10.7413 43.7562 10.6383 44.0053C10.5354 44.2544 10.3845 44.4807 10.1942 44.6714C10.004 44.862 9.77809 45.0133 9.52951 45.1164C9.28093 45.2196 9.01451 45.2727 8.74545 45.2727ZM8.74545 41.9569C8.49531 41.9569 8.25081 42.0313 8.04288 42.1707C7.83496 42.31 7.67297 42.508 7.57743 42.7397C7.48189 42.9714 7.45709 43.2262 7.50618 43.472C7.55526 43.7178 7.67602 43.9435 7.85317 44.1204C8.03031 44.2974 8.25588 44.4177 8.5013 44.4661C8.74672 44.5146 9.00096 44.4889 9.23183 44.3925C9.4627 44.296 9.65981 44.133 9.79821 43.9243C9.93661 43.7155 10.0101 43.4702 10.0093 43.2195C10.0083 42.8843 9.87465 42.5632 9.63774 42.3265C9.40083 42.0898 9.07996 41.9569 8.74545 41.9569Z" fill="#093F68"/>
<path d="M74.183 38C74.184 40.7944 73.8693 43.5798 73.245 46.3033L60.7438 47.3141L60.3121 44.2697L57.8197 26.6484L57.6509 25.4684L70.9724 22.9589C73.0925 27.6885 74.1869 32.8151 74.183 38Z" fill="#FD985B"/>
<path d="M60.7438 47.7075C60.6486 47.7084 60.5563 47.6746 60.484 47.6124C60.4118 47.5501 60.3647 47.4637 60.3513 47.3692L57.2584 25.5077C57.2446 25.4074 57.27 25.3056 57.3292 25.2236C57.3884 25.1415 57.477 25.0855 57.5764 25.0672L70.8939 22.5538C70.981 22.5374 71.071 22.551 71.1494 22.5924C71.2278 22.6339 71.2899 22.7006 71.3256 22.7819C73.4769 27.5652 74.5849 32.7534 74.5755 38C74.5694 40.8241 74.2455 43.6385 73.61 46.3898C73.5912 46.4708 73.5472 46.5438 73.4845 46.5982C73.4217 46.6526 73.3433 46.6857 73.2606 46.6927L60.7595 47.7035L60.7438 47.7075ZM58.0945 25.7713L61.0814 46.8933L72.9231 45.9335C73.5005 43.3287 73.7914 40.6683 73.7905 38C73.802 32.969 72.7618 27.9913 70.7369 23.3877L58.0945 25.7713Z" fill="#093F68"/>
<path d="M66.2546 44.8833C67.1693 44.8833 67.9109 44.1402 67.9109 43.2235C67.9109 42.3068 67.1693 41.5636 66.2546 41.5636C65.3398 41.5636 64.5982 42.3068 64.5982 43.2235C64.5982 44.1402 65.3398 44.8833 66.2546 44.8833Z" fill="#093F68"/>
<path d="M66.2545 45.2727C65.8493 45.2727 65.4532 45.1523 65.1163 44.9267C64.7793 44.7011 64.5167 44.3804 64.3617 44.0053C64.2066 43.6301 64.166 43.2173 64.2451 42.819C64.3241 42.4207 64.5193 42.0549 64.8058 41.7677C65.0923 41.4806 65.4574 41.285 65.8548 41.2058C66.2523 41.1266 66.6642 41.1672 67.0386 41.3226C67.413 41.478 67.733 41.7412 67.9581 42.0788C68.1832 42.4165 68.3034 42.8135 68.3034 43.2195C68.3034 43.7641 68.0875 44.2863 67.7033 44.6714C67.3191 45.0564 66.7979 45.2727 66.2545 45.2727ZM66.2545 41.9569C66.0044 41.9569 65.7599 42.0313 65.552 42.1707C65.3441 42.31 65.1821 42.508 65.0865 42.7397C64.991 42.9714 64.9662 43.2262 65.0153 43.472C65.0644 43.7178 65.1851 43.9435 65.3623 44.1204C65.5394 44.2974 65.765 44.4177 66.0104 44.4661C66.2558 44.5146 66.51 44.4889 66.7409 44.3925C66.9718 44.296 67.1689 44.133 67.3073 43.9243C67.4457 43.7155 67.5192 43.4702 67.5184 43.2195C67.5174 42.8843 67.3837 42.5632 67.1468 42.3265C66.9099 42.0898 66.5891 41.9569 66.2545 41.9569Z" fill="#093F68"/>
</svg>
