<svg width="106" height="72" viewBox="0 0 106 72" fill="none" xmlns="http://www.w3.org/2000/svg">
<path d="M96.9819 3.87579H9.26216C7.30016 3.87579 5.70966 5.4663 5.70966 7.42829V59.1282C5.70966 61.0902 7.30016 62.6807 9.26216 62.6807H96.9819C98.9439 62.6807 100.534 61.0902 100.534 59.1282V7.42829C100.534 5.4663 98.9439 3.87579 96.9819 3.87579Z" fill="#093F68"/>
<path d="M96.9869 63.1658H9.27687C8.20514 63.1645 7.17766 62.7382 6.41983 61.9804C5.662 61.2225 5.23567 60.195 5.23438 59.1233V7.4283C5.23567 6.35656 5.662 5.32909 6.41983 4.57126C7.17766 3.81342 8.20514 3.3871 9.27687 3.3858H96.9869C98.0586 3.3871 99.0861 3.81342 99.8439 4.57126C100.602 5.32909 101.028 6.35656 101.029 7.4283V59.1233C101.028 60.195 100.602 61.2225 99.8439 61.9804C99.0861 62.7382 98.0586 63.1645 96.9869 63.1658ZM9.27687 4.3658C8.46505 4.3671 7.68684 4.69017 7.11279 5.26422C6.53874 5.83827 6.21567 6.61648 6.21437 7.4283V59.1233C6.21567 59.9351 6.53874 60.7133 7.11279 61.2874C7.68684 61.8614 8.46505 62.1845 9.27687 62.1858H96.9869C97.7987 62.1845 98.5769 61.8614 99.151 61.2874C99.725 60.7133 100.048 59.9351 100.049 59.1233V7.4283C100.048 6.61648 99.725 5.83827 99.151 5.26422C98.5769 4.69017 97.7987 4.3671 96.9869 4.3658H9.27687Z" fill="#093F68"/>
<path d="M1.03998 60.8726H105.214V67.86C105.214 68.7697 104.853 69.6421 104.209 70.2854C103.566 70.9286 102.694 71.29 101.784 71.29H4.46998C3.56029 71.29 2.68785 70.9286 2.0446 70.2854C1.40135 69.6421 1.03998 68.7697 1.03998 67.86V60.8726Z" fill="#FD985B"/>
<path d="M101.794 71.78H4.46999C3.43034 71.78 2.43327 71.367 1.69813 70.6319C0.962987 69.8967 0.549988 68.8996 0.549988 67.86V60.8726C0.549988 60.7426 0.601612 60.618 0.693505 60.5261C0.785398 60.4342 0.910032 60.3826 1.03999 60.3826H105.214C105.344 60.3826 105.469 60.4342 105.56 60.5261C105.652 60.618 105.704 60.7426 105.704 60.8726V67.86C105.704 68.8979 105.292 69.8935 104.559 70.6284C103.826 71.3633 102.832 71.7774 101.794 71.78ZM1.52999 61.3626V67.86C1.52999 68.6397 1.83974 69.3875 2.3911 69.9389C2.94245 70.4902 3.69025 70.8 4.46999 70.8H101.794C102.574 70.8 103.321 70.4902 103.873 69.9389C104.424 69.3875 104.734 68.6397 104.734 67.86V61.3626H1.52999Z" fill="#093F68"/>
<path d="M95.9481 7.71249H10.301V58.8097H95.9481V7.71249Z" fill="white"/>
<path d="M95.9481 59.2997H10.301C10.171 59.2997 10.0464 59.2481 9.95449 59.1562C9.8626 59.0643 9.81097 58.9397 9.81097 58.8097V7.7125C9.81097 7.58255 9.8626 7.45791 9.95449 7.36602C10.0464 7.27413 10.171 7.2225 10.301 7.2225H95.9481C96.078 7.2225 96.2027 7.27413 96.2946 7.36602C96.3865 7.45791 96.4381 7.58255 96.4381 7.7125V58.8097C96.4381 58.9397 96.3865 59.0643 96.2946 59.1562C96.2027 59.2481 96.078 59.2997 95.9481 59.2997ZM10.791 58.3197H95.4581V8.2025H10.791V58.3197Z" fill="#093F68"/>
<path d="M95.9481 41.2285V58.8097H89.828C89.5585 58.3197 89.2939 57.8689 89.0244 57.4524C87.6858 55.4198 86.8155 53.1152 86.4764 50.7051C86.4218 50.5097 86.4137 50.3041 86.4529 50.105C86.492 49.9059 86.5773 49.7187 86.7018 49.5585C87.1918 49.1028 87.9807 49.5928 88.4217 50.1024C89.4975 51.3419 90.3065 52.7897 90.7982 54.3556C90.3327 52.768 90.0485 51.151 89.6222 49.5585C89.3331 48.4805 88.897 47.1575 89.4703 46.0746C90.6169 43.8941 92.4103 49.6173 92.4691 50.4846C92.3781 48.7569 92.4668 47.0245 92.7337 45.3151C92.9395 43.9627 93.3119 42.5368 94.3409 41.6303C94.6579 41.3258 95.0775 41.1509 95.5169 41.1403C95.6649 41.1423 95.8112 41.1722 95.9481 41.2285Z" fill="#70CC40"/>
<path d="M95.9481 59.2997H89.828C89.7412 59.2995 89.6559 59.2763 89.581 59.2324C89.5061 59.1885 89.4442 59.1255 89.4017 59.0498C89.1518 58.6039 88.8823 58.1335 88.6128 57.717C87.2288 55.6269 86.3328 53.2522 85.9913 50.7688C85.9242 50.4963 85.9234 50.2117 85.989 49.9389C86.0547 49.666 86.1849 49.4129 86.3686 49.2008C86.4851 49.0909 86.6234 49.0067 86.7744 48.9535C86.9255 48.9004 87.086 48.8794 87.2457 48.8921C87.8549 48.9861 88.407 49.3041 88.7941 49.7839C88.9852 50.0044 89.1714 50.2347 89.3478 50.4699C89.2841 50.2053 89.2155 49.9456 89.1469 49.6859L89.0783 49.4311C88.7843 48.3531 88.4168 47.0154 89.0342 45.8443C89.4458 45.0652 89.9799 45.0554 90.2592 45.1142C90.9354 45.2661 91.543 46.2412 92.0134 47.329C92.0624 46.6283 92.1408 45.9276 92.2486 45.2416C92.4495 43.9431 92.8268 42.3016 94.0175 41.2677C94.4232 40.8723 94.9652 40.6478 95.5316 40.6405C95.741 40.6475 95.9471 40.694 96.1392 40.7777C96.2278 40.8152 96.3033 40.8779 96.3565 40.9581C96.4096 41.0383 96.438 41.1323 96.4381 41.2285V58.8097C96.4381 58.9396 96.3865 59.0643 96.2946 59.1562C96.2027 59.2481 96.0781 59.2997 95.9481 59.2997ZM90.1122 58.3197H95.4581V41.6205C95.1589 41.6579 94.8801 41.7921 94.6643 42.0027C93.7137 42.8406 93.3903 44.2567 93.2188 45.3935C92.9571 47.0705 92.87 48.7701 92.9591 50.465C92.9656 50.5949 92.9202 50.7222 92.8329 50.8187C92.7456 50.9151 92.6236 50.973 92.4936 50.9795C92.3636 50.986 92.2364 50.9406 92.1399 50.8533C92.0434 50.766 91.9856 50.6439 91.9791 50.514C91.935 49.6614 90.6806 46.2216 90.0534 46.0746C89.995 46.1442 89.944 46.2197 89.9015 46.3C89.4654 47.133 89.7643 48.2159 90.024 49.1714L90.0926 49.4311C90.2837 50.1367 90.4454 50.857 90.5826 51.5479C90.7835 52.4299 90.9893 53.3413 91.249 54.2184C91.2777 54.3397 91.2591 54.4674 91.197 54.5755C91.1349 54.6836 91.0339 54.7639 90.9146 54.8002C90.7953 54.8364 90.6666 54.8258 90.5549 54.7705C90.4431 54.7152 90.3567 54.6194 90.3131 54.5026C89.8373 53.0035 89.0621 51.6166 88.0346 50.4258C87.8168 50.1471 87.5111 49.9502 87.1673 49.8672C87.1395 49.8635 87.1112 49.8664 87.0848 49.8758C87.0584 49.8852 87.0346 49.9007 87.0154 49.9211C86.8782 50.0436 86.9076 50.4111 86.9419 50.6414C87.2614 52.9786 88.0984 55.2151 89.3919 57.1878C89.6712 57.57 89.8966 57.9375 90.1122 58.3197Z" fill="#093F68"/>
<path d="M60.5701 64.4153H45.679L44.7823 60.1376H61.4668L60.5701 64.4153Z" fill="#093F68"/>
<path d="M60.5652 64.92H45.679C45.5644 64.9223 45.4525 64.8843 45.363 64.8127C45.2735 64.7411 45.2119 64.6403 45.189 64.528L44.2874 60.2454C44.2727 60.1734 44.2743 60.099 44.2923 60.0277C44.3102 59.9564 44.344 59.8901 44.391 59.8336C44.4381 59.7771 44.4973 59.732 44.5641 59.7015C44.631 59.671 44.7039 59.6559 44.7774 59.6574H61.4374C61.5109 59.6559 61.5838 59.671 61.6506 59.7015C61.7175 59.732 61.7767 59.7771 61.8237 59.8336C61.8708 59.8901 61.9045 59.9564 61.9225 60.0277C61.9404 60.099 61.9421 60.1734 61.9274 60.2454L61.0258 64.528C61.0039 64.6355 60.9467 64.7325 60.8632 64.8035C60.7797 64.8746 60.6748 64.9156 60.5652 64.92ZM46.0808 63.94H60.1683L60.8641 60.6374H45.385L46.0808 63.94Z" fill="#093F68"/>
<path d="M55.2781 58.403V49.4066C55.2781 47.53 54.5326 45.7303 53.2057 44.4034C51.8788 43.0765 50.0791 42.331 48.2025 42.331H37.0452C35.1695 42.3323 33.371 43.0783 32.0452 44.4051C30.7193 45.7319 29.9745 47.5309 29.9745 49.4066V58.403H55.2781Z" fill="#D1D1D1"/>
<path d="M55.2781 58.893H29.9745C29.8445 58.893 29.7199 58.8414 29.628 58.7495C29.5361 58.6576 29.4845 58.5329 29.4845 58.403V49.4066C29.4858 47.4013 30.2826 45.4785 31.7001 44.0601C33.1176 42.6417 35.0399 41.8436 37.0452 41.841H48.2025C50.2082 41.8436 52.1311 42.6415 53.5493 44.0598C54.9676 45.478 55.7655 47.4009 55.7681 49.4066V58.403C55.7681 58.5329 55.7165 58.6576 55.6246 58.7495C55.5327 58.8414 55.4081 58.893 55.2781 58.893ZM30.4645 57.913H54.7881V49.4066C54.7855 47.6608 54.0908 45.9872 52.8564 44.7527C51.6219 43.5183 49.9483 42.8236 48.2025 42.821H37.0452C35.2998 42.8236 33.6268 43.5184 32.3931 44.753C31.1594 45.9877 30.4658 47.6612 30.4645 49.4066V57.913Z" fill="#093F68"/>
<path d="M47.2372 42.3359L42.7096 53.8901L38.0791 42.3359H47.2372Z" fill="#868686"/>
<path d="M42.69 54.3801C42.5919 54.3802 42.496 54.3508 42.4147 54.2958C42.3335 54.2407 42.2706 54.1626 42.2343 54.0714L37.6038 42.5172C37.5733 42.4423 37.5619 42.3611 37.5704 42.2807C37.579 42.2004 37.6073 42.1234 37.6528 42.0566C37.6977 41.9901 37.7583 41.9357 37.8293 41.8981C37.9002 41.8605 37.9792 41.8409 38.0595 41.841H47.2176C47.2976 41.8409 47.3765 41.8605 47.4473 41.8979C47.518 41.9353 47.5785 41.9895 47.6235 42.0558C47.6684 42.122 47.6965 42.1983 47.7052 42.2778C47.7139 42.3574 47.7029 42.4379 47.6733 42.5123L43.18 54.0665C43.1445 54.1586 43.0819 54.2378 43.0006 54.2937C42.9193 54.3497 42.823 54.3798 42.7243 54.3801H42.69ZM38.77 42.821L42.69 52.5573L46.5022 42.821H38.77Z" fill="#093F68"/>
<path d="M41.1122 40.9884H44.65V43.0268C44.65 43.4257 44.4915 43.8084 44.2094 44.0905C43.9273 44.3726 43.5447 44.5311 43.1457 44.5311H42.6116C42.2126 44.5311 41.83 44.3726 41.5479 44.0905C41.2658 43.8084 41.1073 43.4257 41.1073 43.0268V40.9884H41.1122Z" fill="#FFC9B0"/>
<path d="M43.1506 45.0162H42.6165C42.0884 45.0162 41.5819 44.8068 41.208 44.4338C40.8342 44.0609 40.6235 43.5549 40.6222 43.0268V40.9884C40.6222 40.8585 40.6738 40.7338 40.7657 40.6419C40.8576 40.55 40.9822 40.4984 41.1122 40.4984H44.65C44.7799 40.4984 44.9046 40.55 44.9965 40.6419C45.0884 40.7338 45.14 40.8585 45.14 40.9884V43.0268C45.1387 43.554 44.9287 44.0593 44.5559 44.4321C44.1831 44.8049 43.6778 45.0149 43.1506 45.0162ZM41.6022 41.4784V43.0268C41.6035 43.295 41.7109 43.5517 41.901 43.7409C42.0911 43.93 42.3483 44.0362 42.6165 44.0362H43.1506C43.4188 44.0362 43.676 43.93 43.8661 43.7409C44.0562 43.5517 44.1636 43.295 44.1649 43.0268V41.4784H41.6022Z" fill="#093F68"/>
<path d="M30.636 31.2521C30.452 31.1052 30.3005 30.9219 30.1909 30.7136C30.0812 30.5053 30.0159 30.2766 29.999 30.0418C29.7671 27.8335 29.6462 25.6171 29.6364 23.3925C29.6364 21.1532 29.7442 18.8404 30.7438 16.8363C31.861 14.597 34.0758 12.0294 36.7953 13.6464C36.9172 13.7438 37.0708 13.7926 37.2265 13.7836C37.3542 13.7364 37.4616 13.6464 37.5303 13.5288C41.8031 7.85951 50.3242 10.0988 54.1462 14.94C55.9543 17.2283 56.8706 20.5309 57.0568 23.4121C57.1156 24.3431 55.7632 31.5167 55.4545 31.4628L53.2593 31.0757C52.3381 30.9189 51.1866 31.1443 50.2556 31.1737L43.3956 31.3844C40.7839 31.4677 38.1967 31.8744 35.5801 31.8744C34.213 31.8793 31.7924 32.1733 30.636 31.2521Z" fill="#725858"/>
<path d="M33.6446 32.4183C32.4294 32.4183 31.1603 32.2958 30.3322 31.6343C30.0963 31.4474 29.9014 31.2138 29.7598 30.9483C29.6182 30.6827 29.5328 30.3908 29.509 30.0908C29.2787 27.876 29.1562 25.622 29.1464 23.3974C29.1366 21.1728 29.264 18.6983 30.3028 16.6158C30.7928 15.6652 32.106 13.3818 34.1199 12.7889C34.6127 12.6482 35.1299 12.6143 35.637 12.6895C36.144 12.7647 36.6291 12.9473 37.0599 13.225L37.1236 13.2642V13.2348C37.9526 12.1161 39.0361 11.2109 40.2844 10.594C41.5326 9.97711 42.9098 9.66626 44.3021 9.68718H44.4246C46.3661 9.72629 48.2757 10.1895 50.0193 11.0444C51.763 11.8993 53.2986 13.1252 54.5186 14.6362C56.214 16.7873 57.3116 19.9723 57.5272 23.3827C57.5762 24.0932 56.4051 31.2668 55.7926 31.8156C55.7332 31.8683 55.6627 31.907 55.5864 31.9291C55.5102 31.9511 55.4299 31.9559 55.3516 31.943L53.1613 31.5608C52.5256 31.4904 51.8835 31.5003 51.2503 31.5902C50.9024 31.6196 50.5692 31.6539 50.2703 31.6637L43.4103 31.8744C42.2686 31.9136 41.1073 32.0165 39.9803 32.1194C38.5642 32.2419 37.104 32.3742 35.6438 32.3742H35.5556C35.3204 32.3742 35.0656 32.3742 34.7618 32.3742C34.458 32.3742 34.0268 32.4183 33.6446 32.4183ZM35.1146 13.6268C34.8789 13.6274 34.6445 13.6621 34.4188 13.7297C32.7773 14.2197 31.6258 16.214 31.2044 17.0568C30.3126 18.8453 30.1362 20.8837 30.1509 23.3925C30.1509 25.5877 30.2832 27.8025 30.5086 29.9928C30.5192 30.162 30.5653 30.327 30.6438 30.4773C30.7223 30.6275 30.8315 30.7596 30.9643 30.865C31.7679 31.5118 33.4927 31.453 34.7471 31.4138C35.0607 31.4138 35.3449 31.4138 35.6046 31.4138C37.0501 31.4138 38.5005 31.2864 39.9117 31.159C41.0534 31.0561 42.2294 30.9532 43.4005 30.914L50.2605 30.7033C50.5545 30.7033 50.8681 30.6641 51.1915 30.6347C51.9119 30.5393 52.6417 30.5393 53.3622 30.6347C53.6464 30.6837 54.6068 30.8405 55.2046 30.9532C55.6211 29.6449 56.6354 24.2598 56.5864 23.4807C56.3855 20.3104 55.3369 17.2479 53.7836 15.2781C52.6417 13.8706 51.2046 12.7311 49.5738 11.9403C47.943 11.1494 46.1584 10.7265 44.3462 10.7015C43.1047 10.6846 41.8768 10.9616 40.7628 11.5101C39.6489 12.0585 38.6806 12.8628 37.937 13.8571C37.8045 14.0686 37.5986 14.2239 37.3588 14.2932C37.223 14.3155 37.0842 14.3106 36.9504 14.2786C36.8167 14.2466 36.6906 14.1883 36.5797 14.107C36.1373 13.8118 35.6215 13.6456 35.0901 13.6268H35.1146ZM55.4937 30.9728H55.5623H55.4937Z" fill="#093F68"/>
<path d="M32.7675 34.7556C34.6673 34.7556 36.2073 33.4283 36.2073 31.7911C36.2073 30.1539 34.6673 28.8266 32.7675 28.8266C30.8678 28.8266 29.3277 30.1539 29.3277 31.7911C29.3277 33.4283 30.8678 34.7556 32.7675 34.7556Z" fill="#FFC9B0"/>
<path d="M32.7675 35.2456C30.5968 35.2456 28.8475 33.6972 28.8475 31.7911C28.8475 29.885 30.6066 28.3611 32.7675 28.3611C34.9284 28.3611 36.6875 29.9095 36.6875 31.7911C36.6875 33.6727 34.9333 35.2456 32.7675 35.2456ZM32.7675 29.3166C31.1407 29.3166 29.8275 30.4289 29.8275 31.7666C29.8275 33.1043 31.1505 34.2411 32.7675 34.2411C34.3845 34.2411 35.7075 33.1337 35.7075 31.7666C35.7075 30.3995 34.3894 29.3166 32.7675 29.3166Z" fill="#093F68"/>
<path d="M52.8183 34.7556C54.718 34.7556 56.2581 33.4283 56.2581 31.7911C56.2581 30.1539 54.718 28.8266 52.8183 28.8266C50.9185 28.8266 49.3785 30.1539 49.3785 31.7911C49.3785 33.4283 50.9185 34.7556 52.8183 34.7556Z" fill="#FFC9B0"/>
<path d="M52.8183 35.2456C50.6525 35.2456 48.8983 33.6972 48.8983 31.7911C48.8983 29.885 50.6623 28.3611 52.8183 28.3611C54.9743 28.3611 56.7383 29.9095 56.7383 31.7911C56.7383 33.6727 54.9841 35.2456 52.8183 35.2456ZM52.8183 29.3166C51.1915 29.3166 49.8783 30.4289 49.8783 31.7666C49.8783 33.1043 51.2013 34.2411 52.8183 34.2411C54.4353 34.2411 55.7583 33.1337 55.7583 31.7666C55.7583 30.3995 54.45 29.3166 52.8183 29.3166Z" fill="#093F68"/>
<path d="M42.8811 41.4539C41.5185 41.4539 40.1692 41.1854 38.9103 40.6638C37.6514 40.1422 36.5077 39.3776 35.5443 38.4139C34.581 37.4501 33.817 36.306 33.296 35.0469C32.775 33.7878 32.5072 32.4383 32.5078 31.0757V23.5444C33.1154 24.5244 35.1293 24.1471 38.0791 19.0805C49.1335 24.6812 53.2691 21.4717 53.2691 21.4717V31.0757C53.2691 32.4394 53.0004 33.7897 52.4782 35.0495C51.956 36.3093 51.1907 37.4538 50.226 38.4176C49.2612 39.3815 48.116 40.1457 46.8557 40.6667C45.5954 41.1877 44.2448 41.4552 42.8811 41.4539Z" fill="#FFC9B0"/>
<path d="M42.8811 41.9439C40.0011 41.94 37.2403 40.7942 35.2039 38.7578C33.1674 36.7214 32.0217 33.9605 32.0178 31.0806V23.5444C32.0167 23.4366 32.0512 23.3315 32.116 23.2453C32.1807 23.1591 32.272 23.0967 32.3758 23.0677C32.4796 23.0387 32.5901 23.0447 32.6901 23.0848C32.7902 23.1249 32.8742 23.1969 32.9292 23.2896C32.9649 23.3561 33.019 23.4109 33.085 23.4474C33.1511 23.4839 33.2263 23.5006 33.3016 23.4954C34.0954 23.4954 35.6536 22.2606 37.6479 18.8355C37.7107 18.7281 37.8119 18.6486 37.9311 18.6131C38.0503 18.5777 38.1785 18.5888 38.2898 18.6444C43.8317 21.4521 47.5312 21.9617 49.6627 21.8931C51.9412 21.8196 52.9408 21.0895 52.9506 21.0846C53.023 21.0288 53.1096 20.9944 53.2006 20.9853C53.2916 20.9762 53.3833 20.9927 53.4653 21.033C53.5474 21.0732 53.6166 21.1357 53.665 21.2132C53.7135 21.2907 53.7393 21.3803 53.7395 21.4717V31.0806C53.7356 33.9597 52.5905 36.7198 50.5551 38.7561C48.5198 40.7924 45.7602 41.9387 42.8811 41.9439ZM32.9978 24.446V31.0806C33.0553 33.6643 34.1221 36.1229 35.9698 37.9299C37.8174 39.7369 40.2991 40.7487 42.8835 40.7487C45.4679 40.7487 47.9496 39.7369 49.7973 37.9299C51.645 36.1229 52.7118 33.6643 52.7693 31.0806V22.29C51.0984 22.9858 46.6639 23.8825 38.2702 19.7322C36.4278 22.7849 34.6785 24.4656 33.3212 24.4803C33.2125 24.4791 33.1043 24.4676 32.9978 24.446Z" fill="#093F68"/>
<path d="M38.4074 30.5269C38.9378 30.5269 39.3678 30.0969 39.3678 29.5665C39.3678 29.0361 38.9378 28.6061 38.4074 28.6061C37.877 28.6061 37.447 29.0361 37.447 29.5665C37.447 30.0969 37.877 30.5269 38.4074 30.5269Z" fill="#093F68"/>
<path d="M47.3548 30.5269C47.8852 30.5269 48.3152 30.0969 48.3152 29.5665C48.3152 29.0361 47.8852 28.6061 47.3548 28.6061C46.8244 28.6061 46.3944 29.0361 46.3944 29.5665C46.3944 30.0969 46.8244 30.5269 47.3548 30.5269Z" fill="#093F68"/>
<path d="M42.8517 34.05C42.5235 34.0488 42.1959 34.0226 41.8717 33.9716C41.8083 33.9604 41.7478 33.9367 41.6935 33.9021C41.6392 33.8674 41.5923 33.8224 41.5555 33.7697C41.5186 33.7169 41.4925 33.6573 41.4787 33.5945C41.4648 33.5316 41.4635 33.4666 41.4748 33.4032C41.4861 33.3398 41.5097 33.2793 41.5443 33.225C41.579 33.1707 41.624 33.1238 41.6768 33.087C41.7296 33.0501 41.7891 33.024 41.852 33.0102C41.9148 32.9963 41.9798 32.995 42.0432 33.0063C42.4384 33.0709 42.8403 33.0841 43.2388 33.0455C43.0707 32.3384 42.8069 31.6576 42.4548 31.0218C42.4057 30.9081 42.4016 30.78 42.4431 30.6633C42.4846 30.5466 42.5688 30.45 42.6787 30.3929C42.7886 30.3358 42.9161 30.3224 43.0354 30.3554C43.1548 30.3885 43.2572 30.4655 43.3221 30.571C43.7582 31.404 44.4393 32.8985 44.1404 33.56C44.0967 33.6612 44.0294 33.7505 43.9442 33.8204C43.8589 33.8903 43.7582 33.9388 43.6504 33.9618C43.3886 34.0229 43.1205 34.0525 42.8517 34.05Z" fill="#093F68"/>
<path d="M35.7369 58.893C35.6069 58.893 35.4823 58.8414 35.3904 58.7495C35.2985 58.6576 35.2469 58.533 35.2469 58.403V48.4217C35.2469 48.2917 35.2985 48.1671 35.3904 48.0752C35.4823 47.9833 35.6069 47.9317 35.7369 47.9317C35.8668 47.9317 35.9915 47.9833 36.0834 48.0752C36.1753 48.1671 36.2269 48.2917 36.2269 48.4217V58.403C36.2269 58.533 36.1753 58.6576 36.0834 58.7495C35.9915 58.8414 35.8668 58.893 35.7369 58.893Z" fill="#093F68"/>
<path d="M49.5108 58.893C49.3809 58.893 49.2562 58.8414 49.1643 58.7495C49.0724 58.6576 49.0208 58.533 49.0208 58.403V48.4217C49.0208 48.2917 49.0724 48.1671 49.1643 48.0752C49.2562 47.9833 49.3809 47.9317 49.5108 47.9317C49.6408 47.9317 49.7654 47.9833 49.8573 48.0752C49.9492 48.1671 50.0008 48.2917 50.0008 48.4217V58.403C50.0008 58.533 49.9492 58.6576 49.8573 58.7495C49.7654 58.8414 49.6408 58.893 49.5108 58.893Z" fill="#093F68"/>
<path d="M40.1959 27.5575H35.193C34.933 27.5575 34.6838 27.4543 34.5 27.2705C34.3162 27.0867 34.213 26.8374 34.213 26.5775C34.213 26.3176 34.3162 26.0683 34.5 25.8845C34.6838 25.7008 34.933 25.5975 35.193 25.5975H40.1959C40.4558 25.5975 40.705 25.7008 40.8888 25.8845C41.0726 26.0683 41.1759 26.3176 41.1759 26.5775C41.1759 26.8374 41.0726 27.0867 40.8888 27.2705C40.705 27.4543 40.4558 27.5575 40.1959 27.5575Z" fill="#093F68"/>
<path d="M50.5741 27.5575H45.5712C45.3113 27.5575 45.062 27.4543 44.8782 27.2705C44.6944 27.0867 44.5912 26.8374 44.5912 26.5775C44.5912 26.3176 44.6944 26.0683 44.8782 25.8845C45.062 25.7008 45.3113 25.5975 45.5712 25.5975H50.5741C50.834 25.5975 51.0833 25.7008 51.267 25.8845C51.4508 26.0683 51.5541 26.3176 51.5541 26.5775C51.5541 26.8374 51.4508 27.0867 51.267 27.2705C51.0833 27.4543 50.834 27.5575 50.5741 27.5575Z" fill="#093F68"/>
<path d="M44.9538 35.4612H41.0338C41.0338 35.4612 40.6173 38.4502 43.1163 38.4502C44.2335 38.46 44.9538 37.2203 44.9538 35.4612Z" fill="white"/>
<path d="M43.0967 38.95C42.7418 38.9683 42.3873 38.907 42.0591 38.7705C41.731 38.634 41.4376 38.4258 41.2004 38.1611C40.2988 37.1321 40.5193 35.4759 40.5291 35.4024C40.5457 35.2846 40.6046 35.177 40.6948 35.0995C40.7849 35.0219 40.9002 34.9798 41.0191 34.981H44.9391C45.069 34.981 45.1937 35.0326 45.2856 35.1245C45.3775 35.2164 45.4291 35.341 45.4291 35.471C45.4438 37.5437 44.503 38.95 43.0967 38.95ZM41.4797 35.961C41.4504 36.5193 41.6129 37.0709 41.9403 37.5241C42.089 37.6781 42.2695 37.7979 42.4692 37.8749C42.6689 37.9519 42.8831 37.9844 43.0967 37.97C43.915 37.97 44.3462 37.0243 44.4442 35.961H41.4797Z" fill="#093F68"/>
<path d="M101.608 0.72998H69.5126C68.7238 0.72998 67.9672 1.04334 67.4095 1.60113C66.8517 2.15892 66.5383 2.91545 66.5383 3.70428V24.2843L60.82 27.3027L66.5187 27.6604V30.5661C66.5187 31.3549 66.8321 32.1114 67.3899 32.6692C67.9477 33.227 68.7042 33.5404 69.493 33.5404H101.588C102.377 33.5404 103.133 33.227 103.691 32.6692C104.249 32.1114 104.562 31.3549 104.562 30.5661V3.69938C104.561 2.91478 104.25 2.16246 103.696 1.60629C103.143 1.05012 102.392 0.73515 101.608 0.72998Z" fill="white"/>
<path d="M101.608 34.05H69.5126C68.5942 34.0487 67.7138 33.6833 67.0644 33.0339C66.415 32.3845 66.0496 31.5041 66.0483 30.5857V28.1357L60.82 27.7927C60.7135 27.7861 60.6121 27.745 60.5312 27.6756C60.4502 27.6062 60.3941 27.5122 60.3714 27.408C60.3486 27.3038 60.3605 27.195 60.4052 27.0982C60.4499 27.0014 60.525 26.9218 60.6191 26.8715L66.0581 23.9805V3.69939C66.0607 2.78354 66.4253 1.90587 67.0725 1.2578C67.7196 0.60974 68.5968 0.243867 69.5126 0.23999H101.608C102.526 0.241286 103.406 0.60669 104.056 1.25609C104.705 1.90549 105.071 2.7859 105.072 3.70429V30.571C105.073 31.027 104.985 31.4788 104.811 31.9005C104.638 32.3222 104.383 32.7056 104.061 33.0287C103.739 33.3518 103.357 33.6083 102.936 33.7836C102.515 33.9588 102.064 34.0493 101.608 34.05ZM62.5987 26.9401L66.5677 27.19C66.6925 27.1975 66.8097 27.2524 66.8953 27.3435C66.981 27.4346 67.0285 27.555 67.0283 27.68V30.5857C67.0283 31.2446 67.29 31.8765 67.7559 32.3424C68.2218 32.8082 68.8537 33.07 69.5126 33.07H101.608C102.266 33.0687 102.897 32.8065 103.363 32.3409C103.828 31.8753 104.091 31.2442 104.092 30.5857V3.69939C104.089 3.04176 103.827 2.41188 103.361 1.94732C102.896 1.48276 102.265 1.22128 101.608 1.21999H69.5126C68.8541 1.22129 68.223 1.48344 67.7574 1.94905C67.2917 2.41467 67.0296 3.04581 67.0283 3.70429V24.2843C67.0281 24.3729 67.0038 24.4599 66.958 24.5358C66.9123 24.6117 66.8468 24.6738 66.7686 24.7155L62.5987 26.9401Z" fill="#093F68"/>
<path d="M101.127 7.71249H76.2109C76.0809 7.71249 75.9563 7.66087 75.8644 7.56897C75.7725 7.47708 75.7209 7.35244 75.7209 7.22249C75.7209 7.09253 75.7725 6.96789 75.8644 6.876C75.9563 6.78411 76.0809 6.73248 76.2109 6.73248H101.127C101.257 6.73248 101.382 6.78411 101.474 6.876C101.566 6.96789 101.617 7.09253 101.617 7.22249C101.617 7.35244 101.566 7.47708 101.474 7.56897C101.382 7.66087 101.257 7.71249 101.127 7.71249Z" fill="#DFEAEF"/>
<path d="M97.374 12.735H70.5612C70.4312 12.735 70.3066 12.6834 70.2147 12.5915C70.1228 12.4996 70.0712 12.375 70.0712 12.245C70.0712 12.115 70.1228 11.9904 70.2147 11.8985C70.3066 11.8066 70.4312 11.755 70.5612 11.755H97.374C97.5039 11.755 97.6286 11.8066 97.7204 11.8985C97.8123 11.9904 97.864 12.115 97.864 12.245C97.864 12.375 97.8123 12.4996 97.7204 12.5915C97.6286 12.6834 97.5039 12.735 97.374 12.735Z" fill="#DFEAEF"/>
<path d="M101.127 17.7526H88.1228C87.9929 17.7526 87.8682 17.701 87.7763 17.6091C87.6844 17.5172 87.6328 17.3925 87.6328 17.2626C87.6328 17.1326 87.6844 17.008 87.7763 16.9161C87.8682 16.8242 87.9929 16.7726 88.1228 16.7726H101.127C101.257 16.7726 101.382 16.8242 101.474 16.9161C101.566 17.008 101.617 17.1326 101.617 17.2626C101.617 17.3925 101.566 17.5172 101.474 17.6091C101.382 17.701 101.257 17.7526 101.127 17.7526Z" fill="#DFEAEF"/>
<path d="M82.7083 17.7526H70.5612C70.4312 17.7526 70.3066 17.701 70.2147 17.6091C70.1228 17.5172 70.0712 17.3925 70.0712 17.2626C70.0712 17.1326 70.1228 17.008 70.2147 16.9161C70.3066 16.8242 70.4312 16.7726 70.5612 16.7726H82.7083C82.8382 16.7726 82.9629 16.8242 83.0548 16.9161C83.1466 17.008 83.1983 17.1326 83.1983 17.2626C83.1983 17.3925 83.1466 17.5172 83.0548 17.6091C82.9629 17.701 82.8382 17.7526 82.7083 17.7526Z" fill="#DFEAEF"/>
<path d="M96.884 22.78H74.6331C74.5031 22.78 74.3785 22.7284 74.2866 22.6365C74.1947 22.5446 74.1431 22.4199 74.1431 22.29C74.1431 22.16 74.1947 22.0354 74.2866 21.9435C74.3785 21.8516 74.5031 21.8 74.6331 21.8H96.884C97.0139 21.8 97.1386 21.8516 97.2305 21.9435C97.3223 22.0354 97.374 22.16 97.374 22.29C97.374 22.4199 97.3223 22.5446 97.2305 22.6365C97.1386 22.7284 97.0139 22.78 96.884 22.78Z" fill="#DFEAEF"/>
<path d="M91.8615 27.7927H70.5612C70.4312 27.7927 70.3066 27.7411 70.2147 27.6492C70.1228 27.5573 70.0712 27.4326 70.0712 27.3027C70.0712 27.1727 70.1228 27.0481 70.2147 26.9562C70.3066 26.8643 70.4312 26.8127 70.5612 26.8127H91.8615C91.9914 26.8127 92.1161 26.8643 92.208 26.9562C92.2998 27.0481 92.3515 27.1727 92.3515 27.3027C92.3515 27.4326 92.2998 27.5573 92.208 27.6492C92.1161 27.7411 91.9914 27.7927 91.8615 27.7927Z" fill="#DFEAEF"/>
<path d="M14.9462 12.7987C15.4198 12.7987 15.8037 12.4148 15.8037 11.9412C15.8037 11.4676 15.4198 11.0837 14.9462 11.0837C14.4726 11.0837 14.0887 11.4676 14.0887 11.9412C14.0887 12.4148 14.4726 12.7987 14.9462 12.7987Z" fill="#093F68"/>
<path d="M19.5571 12.7987C20.0307 12.7987 20.4146 12.4148 20.4146 11.9412C20.4146 11.4676 20.0307 11.0837 19.5571 11.0837C19.0835 11.0837 18.6996 11.4676 18.6996 11.9412C18.6996 12.4148 19.0835 12.7987 19.5571 12.7987Z" fill="#093F68"/>
<path d="M24.1631 12.7987C24.6367 12.7987 25.0206 12.4148 25.0206 11.9412C25.0206 11.4676 24.6367 11.0837 24.1631 11.0837C23.6895 11.0837 23.3056 11.4676 23.3056 11.9412C23.3056 12.4148 23.6895 12.7987 24.1631 12.7987Z" fill="#093F68"/>
<path d="M30.1362 58.8097L24.8197 49.8966L20.2431 52.2829L23.3203 58.8097H30.1362Z" fill="#D1D1D1"/>
<path d="M30.1362 59.2997H23.3203C23.2274 59.299 23.1366 59.2719 23.0586 59.2216C22.9805 59.1713 22.9183 59.0998 22.8793 59.0155L19.8021 52.4936C19.7485 52.3794 19.741 52.249 19.7812 52.1294C19.8213 52.0098 19.906 51.9104 20.0177 51.8517L24.5943 49.4654C24.7049 49.4075 24.8334 49.3941 24.9536 49.4278C25.0739 49.4615 25.1767 49.5398 25.2411 49.6467L30.5576 58.55C30.6006 58.6245 30.6232 58.709 30.6232 58.795C30.6232 58.881 30.6006 58.9655 30.5576 59.04C30.5167 59.1168 30.4562 59.1813 30.3821 59.227C30.308 59.2726 30.2232 59.2977 30.1362 59.2997ZM23.629 58.3197H29.2738L24.6384 50.5483L20.8899 52.5083L23.629 58.3197Z" fill="#093F68"/>
<path d="M24.8197 49.8966C24.8197 49.8966 24.6727 45.075 24.0357 45.32C23.3987 45.565 23.1488 47.28 23.1488 47.28C23.1488 47.28 21.326 40.42 20.6988 40.42C20.0716 40.42 19.5669 40.42 19.464 41.7038C19.3611 42.9876 20.444 46.5058 20.444 46.5058C20.444 46.5058 18.2292 46.5744 17.5922 48.3482C16.9552 50.122 20.248 52.2682 20.248 52.2682L24.8197 49.8966Z" fill="#FFC9B0"/>
<path d="M20.2431 52.7729C20.1492 52.7727 20.0574 52.7454 19.9785 52.6945C19.6061 52.4544 16.377 50.2837 17.1267 48.2061C17.3519 47.6546 17.7181 47.172 18.1885 46.8065C18.6589 46.4411 19.217 46.2056 19.807 46.1236C19.4983 45.0407 18.8858 42.7475 18.9691 41.7136C19.0916 40.1162 19.8511 39.979 20.689 39.979C21.0369 39.979 21.6004 39.979 23.1782 45.5601C23.3188 45.2629 23.5601 45.0251 23.8593 44.8888C23.9522 44.8528 24.0524 44.8398 24.1513 44.8509C24.2503 44.862 24.3451 44.8968 24.4277 44.9525C24.609 45.075 25.1774 45.4425 25.3097 49.9064C25.3131 49.9983 25.2906 50.0894 25.2446 50.1691C25.1987 50.2488 25.1313 50.314 25.05 50.3572L20.4685 52.7435C20.3971 52.7724 20.3195 52.7825 20.2431 52.7729ZM20.5273 40.9394C20.0079 40.9394 19.9981 41.106 19.9442 41.7626C19.8707 42.7426 20.6155 45.4327 20.9242 46.3882C20.9469 46.4605 20.9525 46.537 20.9406 46.6119C20.9287 46.6867 20.8996 46.7577 20.8556 46.8194C20.811 46.8805 20.7528 46.9304 20.6856 46.9653C20.6185 47.0001 20.5442 47.019 20.4685 47.0203C20.4685 47.0203 18.5771 47.1085 18.0626 48.5393C17.6853 49.583 19.4003 51.0775 20.2921 51.7145L24.3346 49.6075C24.3028 48.4393 24.1865 47.275 23.9867 46.1236C23.8232 46.5196 23.7096 46.9344 23.6486 47.3584C23.6558 47.4884 23.611 47.6158 23.5242 47.7128C23.4373 47.8097 23.3155 47.8682 23.1856 47.8753C23.0556 47.8825 22.9281 47.8377 22.8312 47.7509C22.7342 47.6641 22.6758 47.5423 22.6686 47.4123C21.9532 44.7026 20.9585 41.5666 20.5273 40.9394Z" fill="#093F68"/>
<path d="M20.2431 45.516C20.2431 45.516 22.3109 48.2747 21.7131 49.1567C21.1153 50.0387 18.7731 51.4499 17.4942 50.1661C16.2153 48.8823 15.7057 47.8778 16.7396 47.0448C17.7735 46.2118 20.2431 45.516 20.2431 45.516Z" fill="#FFC9B0"/>
<path d="M18.8172 51.1706C18.5116 51.1781 18.2076 51.1243 17.9232 51.0124C17.6387 50.9004 17.3795 50.7326 17.161 50.5189C16.1173 49.485 15.6665 48.701 15.691 47.9709C15.7111 47.7125 15.7873 47.4616 15.9142 47.2357C16.0412 47.0098 16.2158 46.8142 16.426 46.6626C17.5236 45.7708 19.9932 45.075 20.0961 45.0456C20.1911 45.0188 20.292 45.0213 20.3855 45.0527C20.4791 45.0842 20.561 45.1432 20.6204 45.222C21.3064 46.1334 22.8205 48.3727 22.0904 49.4311C21.3492 50.3744 20.2704 50.9929 19.0818 51.1559L18.8172 51.1706ZM20.052 46.0844C18.993 46.3788 17.984 46.8297 17.0581 47.4221C16.9548 47.4875 16.8673 47.575 16.802 47.6784C16.7368 47.7818 16.6954 47.8985 16.6808 48.0199C16.6808 48.4364 17.0434 49.0244 17.847 49.8182C18.0017 49.9654 18.1884 50.0747 18.3924 50.1376C18.5965 50.2006 18.8123 50.2153 19.023 50.1808C19.9193 50.0469 20.7344 49.5861 21.3113 48.8872C21.5024 48.603 20.9046 47.28 20.052 46.0844Z" fill="#093F68"/>
<path d="M55.2781 58.5206L62.4762 50.7394L67.0283 54.3507L64.2255 58.8097L55.2781 58.5206Z" fill="#D1D1D1"/>
<path d="M64.25 59.2997L55.3075 59.0106C55.2131 59.0084 55.1214 58.979 55.0433 58.926C54.9652 58.8729 54.9041 58.7984 54.8674 58.7114C54.8306 58.6245 54.8198 58.5288 54.8361 58.4358C54.8525 58.3428 54.8954 58.2566 54.9596 58.1874L62.1577 50.4062C62.2419 50.3152 62.3576 50.2596 62.4812 50.2505C62.6049 50.2414 62.7274 50.2795 62.8241 50.3572L67.3762 53.9685C67.4717 54.0432 67.5361 54.1507 67.5569 54.2702C67.5777 54.3897 67.5535 54.5126 67.4889 54.6153L64.6812 59.0694C64.6358 59.1421 64.572 59.2017 64.4964 59.2421C64.4207 59.2826 64.3357 59.3024 64.25 59.2997ZM56.41 58.0649L64.005 58.3099L66.4256 54.4634L62.5693 51.4058L56.41 58.0649Z" fill="#093F68"/>
<path d="M62.2312 51.1069C62.2312 51.1069 65.5534 46.6528 66.3668 47.574C67.1802 48.4952 65.6073 50.073 65.6073 50.073C65.6073 50.073 75.3485 47.623 75.2505 49.2792C75.1525 50.9354 66.3668 54.7721 66.3668 54.7721L62.2312 51.1069Z" fill="#FFC9B0"/>
<path d="M66.3668 55.2621C66.2477 55.2619 66.1327 55.2184 66.0434 55.1396L61.9078 51.4744C61.8152 51.393 61.7568 51.2797 61.7441 51.1571C61.7314 51.0345 61.7653 50.9116 61.8392 50.8129C62.5056 49.9211 64.7792 47.0105 66.0385 46.9615C66.1688 46.9535 66.2992 46.9754 66.4198 47.0255C66.5404 47.0756 66.648 47.1526 66.7343 47.2506C67.2635 47.8484 67.1312 48.6079 66.7931 49.2743C73.5992 47.6671 75.1231 48.3286 75.422 48.5834C75.5301 48.6692 75.6156 48.7801 75.6711 48.9065C75.7266 49.0329 75.7504 49.1709 75.7405 49.3086C75.6376 51.0971 69.2872 54.042 66.5628 55.2229C66.5012 55.2505 66.4342 55.2639 66.3668 55.2621ZM62.8976 51.0432L66.4599 54.1988C70.8356 52.2731 74.5351 50.0926 74.7556 49.2988C74.0843 48.897 70.0271 49.4507 65.7249 50.5434C65.621 50.569 65.5116 50.5598 65.4133 50.5173C65.3151 50.4749 65.2335 50.4014 65.181 50.3082C65.128 50.2151 65.1069 50.1072 65.1211 50.001C65.1353 49.8948 65.1838 49.7962 65.2594 49.7202C65.5142 49.4654 66.3668 48.4315 66.0336 47.9366C65.5583 48.0199 64.1716 49.3968 62.8976 51.0432Z" fill="#093F68"/>
<path d="M79.5576 37.8181H61.5599V50.1171H79.5576V37.8181Z" fill="#FFBC0E"/>
<path d="M79.5576 50.6071H61.5599C61.4299 50.6071 61.3053 50.5555 61.2134 50.4636C61.1215 50.3717 61.0699 50.247 61.0699 50.1171V37.8181C61.0699 37.6881 61.1215 37.5635 61.2134 37.4716C61.3053 37.3797 61.4299 37.3281 61.5599 37.3281H79.5576C79.6875 37.3281 79.8122 37.3797 79.9041 37.4716C79.996 37.5635 80.0476 37.6881 80.0476 37.8181V50.1171C80.0476 50.247 79.996 50.3717 79.9041 50.4636C79.8122 50.5555 79.6875 50.6071 79.5576 50.6071ZM62.0499 49.6271H79.0676V38.3081H62.0499V49.6271Z" fill="#093F68"/>
<path d="M79.5576 41.3314H61.5599C61.4299 41.3314 61.3053 41.2798 61.2134 41.1879C61.1215 41.096 61.0699 40.9713 61.0699 40.8414C61.0699 40.7114 61.1215 40.5868 61.2134 40.4949C61.3053 40.403 61.4299 40.3514 61.5599 40.3514H79.5576C79.6875 40.3514 79.8122 40.403 79.9041 40.4949C79.996 40.5868 80.0476 40.7114 80.0476 40.8414C80.0476 40.9713 79.996 41.096 79.9041 41.1879C79.8122 41.2798 79.6875 41.3314 79.5576 41.3314Z" fill="#093F68"/>
</svg>
