<svg width="375" height="664" viewBox="0 0 375 664" fill="none" xmlns="http://www.w3.org/2000/svg">
<path fill-rule="evenodd" clip-rule="evenodd" d="M346.776 129.553C366.761 118.02 380.436 94.6027 380.436 67.5911C380.436 29.157 352.749 -2 318.596 -2C297.84 -2 279.472 9.5073 268.256 27.162C264.476 25.9543 260.487 25.3079 256.364 25.3079C241.271 25.3079 227.976 33.9687 220.189 47.1147C214.472 40.2023 206.316 35.8787 197.263 35.8787C185.025 35.8787 174.426 43.78 169.276 55.2969C160.712 49.6722 150.75 46.4495 140.119 46.4495C120.726 46.4495 103.558 57.1745 93.0446 73.6414C89.5899 72.5687 85.9509 71.9956 82.193 71.9956C75.8052 71.9956 69.7611 73.6514 64.381 76.6025C58.4517 64.9057 47.2656 57.0203 34.4428 57.0203C15.4206 57.0203 0 74.3736 0 95.7799C0 112.546 9.45993 126.826 22.701 132.229V663.08H346.776V129.553ZM217.974 97.5417H218.182C218.159 97.4951 218.137 97.4484 218.115 97.4017C218.068 97.4485 218.021 97.4952 217.974 97.5417Z" fill="url(#paint0_linear)"/>
<defs>
<linearGradient id="paint0_linear" x1="184.739" y1="26.1888" x2="184.739" y2="478.531" gradientUnits="userSpaceOnUse">
<stop stop-color="#EFEFEF"/>
<stop offset="1" stop-color="white" stop-opacity="0"/>
</linearGradient>
</defs>
</svg>
