<svg width="358" height="543" viewBox="0 0 358 543" fill="none" xmlns="http://www.w3.org/2000/svg">
<path opacity="0.3" d="M-14.9999 188.13C18.96 189.14 -11.2199 398.13 -1.07991 365.71C26.9201 276.21 112.14 289.45 170.92 350.71C206.42 387.71 265.88 491.59 294.93 525.22C301.82 533.2 310.1 541.21 320.58 542.44C333.77 543.99 346.07 533.75 351.31 521.54C360.37 500.44 356.95 471.99 354.35 449.86C350.37 415.9 341.17 382.78 331.47 350.08C316.84 300.81 297 253.13 273.32 207.55C273.1 207.13 272.89 206.72 272.67 206.31C243.05 149.53 206.57 96.31 164.07 48.4C147.62 29.86 128.75 13.61 108.04 4.3675e-06C204.2 97.53 280.45 236.6 321.42 389.19C324.58 400.97 327.58 413.11 327.66 425.17C327.74 437.23 324.4 449.38 317.19 454.8C309 460.96 296.42 458.71 289.14 448.76C282.11 439.15 274.08 428.6 267.64 417.1C235.34 359.38 199.57 305.21 160.95 255.51C143.5 233.05 125.27 211.31 104.78 195.34C84.2901 179.38 61.2001 169.45 39.4101 172.36L-14.9999 188.13Z" fill="#E9E9E9"/>
</svg>
